<svg id="Layer_1" data-name="Layer 1" xmlns="http://www.w3.org/2000/svg" xmlns:xlink="http://www.w3.org/1999/xlink" viewBox="0 0 1920 640"><defs><style>.cls-1{fill:none;}.cls-2{fill:url(#linear-gradient);}.cls-3{clip-path:url(#clip-path);}.cls-4{fill:#fff;opacity:0.3;}.cls-5{fill:url(#linear-gradient-2);}</style><linearGradient id="linear-gradient" x2="54" y2="54" gradientUnits="userSpaceOnUse"><stop offset="0" stop-color="#e6e6e6" stop-opacity="0.8"/><stop offset="1" stop-color="#f2f2f2" stop-opacity="0.1"/></linearGradient><clipPath id="clip-path"><path class="cls-1" d="M0,2H1921V269c0,76-107,107-267,107H747c-91,0-160,37-160,107S559,643,427,643H0Z"/></clipPath><linearGradient id="linear-gradient-2" x1="951.3" y1="295.63" x2="837.55" y2="-24.04" gradientUnits="userSpaceOnUse"><stop offset="0" stop-color="#fff" stop-opacity="0.7"/><stop offset="1" stop-color="#f2f2f2" stop-opacity="0"/></linearGradient><symbol id="blue_gradient_square-2" data-name="blue gradient square" viewBox="0 0 54 54"><rect class="cls-2" width="54" height="54"/></symbol></defs><title>bg-pattern-carbon-fiber-white-asym-crop2</title><g id="New_Symbol" data-name="New Symbol"><g class="cls-3"><rect class="cls-4" x="-0.08" y="-51.06" width="53.36" height="53.36"/><use width="54" height="54" transform="translate(-0.08 2.31) scale(0.99)" xlink:href="#blue_gradient_square-2"/><rect class="cls-4" x="53.28" y="2.31" width="53.36" height="53.36"/><use width="54" height="54" transform="translate(53.28 -51.06) scale(0.99)" xlink:href="#blue_gradient_square-2"/><rect class="cls-4" x="106.64" y="-51.06" width="53.36" height="53.36"/><use width="54" height="54" transform="translate(106.64 2.31) scale(0.99)" xlink:href="#blue_gradient_square-2"/><rect class="cls-4" x="160" y="2.31" width="53.36" height="53.36"/><use width="54" height="54" transform="translate(160 -51.06) scale(0.99)" xlink:href="#blue_gradient_square-2"/><rect class="cls-4" x="213.36" y="-51.06" width="53.36" height="53.36"/><use width="54" height="54" transform="translate(213.36 2.31) scale(0.99)" xlink:href="#blue_gradient_square-2"/><rect class="cls-4" x="266.72" y="2.31" width="53.36" height="53.36"/><use width="54" height="54" transform="translate(266.72 -51.06) scale(0.99)" xlink:href="#blue_gradient_square-2"/><rect class="cls-4" x="320.08" y="-51.06" width="53.36" height="53.36"/><use width="54" height="54" transform="translate(320.08 2.31) scale(0.99)" xlink:href="#blue_gradient_square-2"/><rect class="cls-4" x="373.44" y="2.31" width="53.36" height="53.36"/><use width="54" height="54" transform="translate(373.44 -51.06) scale(0.99)" xlink:href="#blue_gradient_square-2"/><rect class="cls-4" x="426.81" y="-51.06" width="53.36" height="53.36"/><use width="54" height="54" transform="translate(426.81 2.31) scale(0.99)" xlink:href="#blue_gradient_square-2"/><rect class="cls-4" x="480.17" y="2.31" width="53.36" height="53.36"/><use width="54" height="54" transform="translate(480.17 -51.06) scale(0.99)" xlink:href="#blue_gradient_square-2"/><rect class="cls-4" x="533.53" y="-51.06" width="53.36" height="53.36"/><use width="54" height="54" transform="translate(533.53 2.31) scale(0.99)" xlink:href="#blue_gradient_square-2"/><rect class="cls-4" x="586.89" y="2.31" width="53.36" height="53.36"/><use width="54" height="54" transform="translate(586.89 -51.06) scale(0.99)" xlink:href="#blue_gradient_square-2"/><rect class="cls-4" x="640.25" y="-51.06" width="53.36" height="53.36"/><use width="54" height="54" transform="translate(640.25 2.31) scale(0.99)" xlink:href="#blue_gradient_square-2"/><rect class="cls-4" x="693.61" y="2.31" width="53.36" height="53.36"/><use width="54" height="54" transform="translate(693.61 -51.06) scale(0.99)" xlink:href="#blue_gradient_square-2"/><rect class="cls-4" x="746.97" y="-51.06" width="53.36" height="53.36"/><use width="54" height="54" transform="translate(746.97 2.31) scale(0.99)" xlink:href="#blue_gradient_square-2"/><rect class="cls-4" x="800.33" y="2.31" width="53.36" height="53.36"/><use width="54" height="54" transform="translate(800.33 -51.06) scale(0.99)" xlink:href="#blue_gradient_square-2"/><rect class="cls-4" x="853.69" y="-51.06" width="53.36" height="53.36"/><use width="54" height="54" transform="translate(853.69 2.31) scale(0.99)" xlink:href="#blue_gradient_square-2"/><rect class="cls-4" x="907.06" y="2.31" width="53.36" height="53.36"/><use width="54" height="54" transform="translate(907.06 -51.06) scale(0.99)" xlink:href="#blue_gradient_square-2"/><rect class="cls-4" x="960.42" y="-51.06" width="53.36" height="53.36"/><use width="54" height="54" transform="translate(960.42 2.31) scale(0.99)" xlink:href="#blue_gradient_square-2"/><rect class="cls-4" x="1013.78" y="2.31" width="53.36" height="53.36"/><use width="54" height="54" transform="translate(1013.78 -51.06) scale(0.99)" xlink:href="#blue_gradient_square-2"/><rect class="cls-4" x="1067.14" y="-51.06" width="53.36" height="53.36"/><use width="54" height="54" transform="translate(1067.14 2.31) scale(0.99)" xlink:href="#blue_gradient_square-2"/><rect class="cls-4" x="1120.5" y="2.31" width="53.36" height="53.36"/><use width="54" height="54" transform="translate(1120.5 -51.06) scale(0.99)" xlink:href="#blue_gradient_square-2"/><rect class="cls-4" x="1173.86" y="-51.06" width="53.36" height="53.36"/><use width="54" height="54" transform="translate(1173.86 2.31) scale(0.99)" xlink:href="#blue_gradient_square-2"/><rect class="cls-4" x="1227.22" y="2.31" width="53.36" height="53.36"/><use width="54" height="54" transform="translate(1227.22 -51.06) scale(0.99)" xlink:href="#blue_gradient_square-2"/><rect class="cls-4" x="1280.58" y="-51.06" width="53.36" height="53.36"/><use width="54" height="54" transform="translate(1280.58 2.31) scale(0.99)" xlink:href="#blue_gradient_square-2"/><rect class="cls-4" x="1333.94" y="2.31" width="53.36" height="53.36"/><use width="54" height="54" transform="translate(1333.94 -51.06) scale(0.99)" xlink:href="#blue_gradient_square-2"/><rect class="cls-4" x="1387.31" y="-51.06" width="53.36" height="53.36"/><use width="54" height="54" transform="translate(1387.31 2.31) scale(0.99)" xlink:href="#blue_gradient_square-2"/><rect class="cls-4" x="1440.67" y="2.31" width="53.36" height="53.36"/><use width="54" height="54" transform="translate(1440.67 -51.06) scale(0.99)" xlink:href="#blue_gradient_square-2"/><rect class="cls-4" x="1494.03" y="-51.06" width="53.36" height="53.36"/><use width="54" height="54" transform="translate(1494.03 2.31) scale(0.99)" xlink:href="#blue_gradient_square-2"/><rect class="cls-4" x="1547.39" y="2.31" width="53.36" height="53.36"/><use width="54" height="54" transform="translate(1547.39 -51.06) scale(0.99)" xlink:href="#blue_gradient_square-2"/><rect class="cls-4" x="1600.75" y="-51.06" width="53.36" height="53.36"/><use width="54" height="54" transform="translate(1600.75 2.31) scale(0.99)" xlink:href="#blue_gradient_square-2"/><rect class="cls-4" x="1654.11" y="2.31" width="53.36" height="53.36"/><use width="54" height="54" transform="translate(1654.11 -51.06) scale(0.99)" xlink:href="#blue_gradient_square-2"/><rect class="cls-4" x="1707.47" y="-51.06" width="53.36" height="53.36"/><use width="54" height="54" transform="translate(1707.47 2.31) scale(0.99)" xlink:href="#blue_gradient_square-2"/><rect class="cls-4" x="1760.83" y="2.31" width="53.36" height="53.36"/><use width="54" height="54" transform="translate(1760.83 -51.06) scale(0.99)" xlink:href="#blue_gradient_square-2"/><rect class="cls-4" x="1814.19" y="-51.06" width="53.36" height="53.36"/><use width="54" height="54" transform="translate(1814.19 2.31) scale(0.99)" xlink:href="#blue_gradient_square-2"/><rect class="cls-4" x="1867.56" y="2.31" width="53.36" height="53.36"/><use width="54" height="54" transform="translate(1867.56 -51.06) scale(0.99)" xlink:href="#blue_gradient_square-2"/><rect class="cls-4" x="-0.08" y="162.39" width="53.36" height="53.36"/><rect class="cls-4" x="-0.08" y="269.11" width="53.36" height="53.36"/><rect class="cls-4" x="-0.08" y="55.67" width="53.36" height="53.36"/><rect class="cls-4" x="-0.08" y="482.56" width="53.36" height="53.36"/><rect class="cls-4" x="-0.08" y="589.28" width="53.36" height="53.36"/><rect class="cls-4" x="-0.08" y="375.83" width="53.36" height="53.36"/><use width="54" height="54" transform="translate(-0.08 109.03) scale(0.99)" xlink:href="#blue_gradient_square-2"/><use width="54" height="54" transform="translate(-0.08 215.75) scale(0.99)" xlink:href="#blue_gradient_square-2"/><use width="54" height="54" transform="translate(-0.08 322.47) scale(0.99)" xlink:href="#blue_gradient_square-2"/><use width="54" height="54" transform="translate(-0.08 429.19) scale(0.99)" xlink:href="#blue_gradient_square-2"/><use width="54" height="54" transform="translate(-0.08 535.92) scale(0.99)" xlink:href="#blue_gradient_square-2"/><rect class="cls-4" x="53.28" y="215.75" width="53.36" height="53.36"/><rect class="cls-4" x="53.28" y="322.47" width="53.36" height="53.36"/><rect class="cls-4" x="53.28" y="109.03" width="53.36" height="53.36"/><rect class="cls-4" x="53.28" y="535.92" width="53.36" height="53.36"/><rect class="cls-4" x="53.28" y="429.19" width="53.36" height="53.36"/><use id="blue_gradient_square-86" data-name="blue gradient square" width="54" height="54" transform="translate(53.28 55.67) scale(0.99)" xlink:href="#blue_gradient_square-2"/><use width="54" height="54" transform="translate(53.28 162.39) scale(0.99)" xlink:href="#blue_gradient_square-2"/><use width="54" height="54" transform="translate(53.28 269.11) scale(0.99)" xlink:href="#blue_gradient_square-2"/><use width="54" height="54" transform="translate(53.28 375.83) scale(0.99)" xlink:href="#blue_gradient_square-2"/><use width="54" height="54" transform="translate(53.28 482.56) scale(0.99)" xlink:href="#blue_gradient_square-2"/><use width="54" height="54" transform="translate(53.28 589.28) scale(0.99)" xlink:href="#blue_gradient_square-2"/><rect class="cls-4" x="106.64" y="162.39" width="53.36" height="53.36"/><rect class="cls-4" x="106.64" y="269.11" width="53.36" height="53.36"/><rect class="cls-4" x="106.64" y="55.67" width="53.36" height="53.36"/><rect class="cls-4" x="106.64" y="482.56" width="53.36" height="53.36"/><rect class="cls-4" x="106.64" y="589.28" width="53.36" height="53.36"/><rect class="cls-4" x="106.64" y="375.83" width="53.36" height="53.36"/><use width="54" height="54" transform="translate(106.64 109.03) scale(0.99)" xlink:href="#blue_gradient_square-2"/><use width="54" height="54" transform="translate(106.64 215.75) scale(0.99)" xlink:href="#blue_gradient_square-2"/><use width="54" height="54" transform="translate(106.64 322.47) scale(0.99)" xlink:href="#blue_gradient_square-2"/><use width="54" height="54" transform="translate(106.64 429.19) scale(0.99)" xlink:href="#blue_gradient_square-2"/><use width="54" height="54" transform="translate(106.64 535.92) scale(0.99)" xlink:href="#blue_gradient_square-2"/><rect class="cls-4" x="160" y="215.75" width="53.36" height="53.36"/><rect class="cls-4" x="160" y="322.47" width="53.36" height="53.36"/><rect class="cls-4" x="160" y="109.03" width="53.36" height="53.36"/><rect class="cls-4" x="160" y="535.92" width="53.36" height="53.36"/><rect class="cls-4" x="160" y="429.19" width="53.36" height="53.36"/><use id="blue_gradient_square-109" data-name="blue gradient square" width="54" height="54" transform="translate(160 55.67) scale(0.99)" xlink:href="#blue_gradient_square-2"/><use width="54" height="54" transform="translate(160 162.39) scale(0.99)" xlink:href="#blue_gradient_square-2"/><use width="54" height="54" transform="translate(160 269.11) scale(0.99)" xlink:href="#blue_gradient_square-2"/><use width="54" height="54" transform="translate(160 375.83) scale(0.99)" xlink:href="#blue_gradient_square-2"/><use width="54" height="54" transform="translate(160 482.56) scale(0.99)" xlink:href="#blue_gradient_square-2"/><use width="54" height="54" transform="translate(160 589.28) scale(0.99)" xlink:href="#blue_gradient_square-2"/><rect class="cls-4" x="213.36" y="162.39" width="53.36" height="53.36"/><rect class="cls-4" x="213.36" y="269.11" width="53.36" height="53.36"/><rect class="cls-4" x="213.36" y="55.67" width="53.36" height="53.36"/><rect class="cls-4" x="213.36" y="482.56" width="53.36" height="53.36"/><rect class="cls-4" x="213.36" y="589.28" width="53.36" height="53.36"/><rect class="cls-4" x="213.36" y="375.83" width="53.36" height="53.36"/><use width="54" height="54" transform="translate(213.36 109.03) scale(0.99)" xlink:href="#blue_gradient_square-2"/><use width="54" height="54" transform="translate(213.36 215.75) scale(0.99)" xlink:href="#blue_gradient_square-2"/><use width="54" height="54" transform="translate(213.36 322.47) scale(0.99)" xlink:href="#blue_gradient_square-2"/><use width="54" height="54" transform="translate(213.36 429.19) scale(0.99)" xlink:href="#blue_gradient_square-2"/><use width="54" height="54" transform="translate(213.36 535.92) scale(0.99)" xlink:href="#blue_gradient_square-2"/><rect class="cls-4" x="266.72" y="215.75" width="53.36" height="53.36"/><rect class="cls-4" x="266.72" y="322.47" width="53.36" height="53.36"/><rect class="cls-4" x="266.72" y="109.03" width="53.36" height="53.36"/><rect class="cls-4" x="266.72" y="535.92" width="53.36" height="53.36"/><rect class="cls-4" x="266.72" y="429.19" width="53.36" height="53.36"/><use id="blue_gradient_square-132" data-name="blue gradient square" width="54" height="54" transform="translate(266.72 55.67) scale(0.99)" xlink:href="#blue_gradient_square-2"/><use width="54" height="54" transform="translate(266.72 162.39) scale(0.99)" xlink:href="#blue_gradient_square-2"/><use width="54" height="54" transform="translate(266.72 269.11) scale(0.99)" xlink:href="#blue_gradient_square-2"/><use width="54" height="54" transform="translate(266.72 375.83) scale(0.99)" xlink:href="#blue_gradient_square-2"/><use width="54" height="54" transform="translate(266.72 482.56) scale(0.99)" xlink:href="#blue_gradient_square-2"/><use width="54" height="54" transform="translate(266.72 589.28) scale(0.99)" xlink:href="#blue_gradient_square-2"/><rect class="cls-4" x="320.08" y="162.39" width="53.36" height="53.36"/><rect class="cls-4" x="320.08" y="269.11" width="53.36" height="53.36"/><rect class="cls-4" x="320.08" y="55.67" width="53.36" height="53.36"/><rect class="cls-4" x="320.08" y="482.56" width="53.36" height="53.36"/><rect class="cls-4" x="320.08" y="589.28" width="53.36" height="53.36"/><rect class="cls-4" x="320.08" y="375.83" width="53.36" height="53.36"/><use width="54" height="54" transform="translate(320.08 109.03) scale(0.99)" xlink:href="#blue_gradient_square-2"/><use width="54" height="54" transform="translate(320.08 215.75) scale(0.99)" xlink:href="#blue_gradient_square-2"/><use width="54" height="54" transform="translate(320.08 322.47) scale(0.99)" xlink:href="#blue_gradient_square-2"/><use width="54" height="54" transform="translate(320.08 429.19) scale(0.99)" xlink:href="#blue_gradient_square-2"/><use width="54" height="54" transform="translate(320.08 535.92) scale(0.99)" xlink:href="#blue_gradient_square-2"/><rect class="cls-4" x="373.44" y="215.75" width="53.36" height="53.36"/><rect class="cls-4" x="373.44" y="322.47" width="53.36" height="53.36"/><rect class="cls-4" x="373.44" y="109.03" width="53.36" height="53.36"/><rect class="cls-4" x="373.44" y="535.92" width="53.36" height="53.36"/><rect class="cls-4" x="373.44" y="429.19" width="53.36" height="53.36"/><use id="blue_gradient_square-155" data-name="blue gradient square" width="54" height="54" transform="translate(373.44 55.67) scale(0.99)" xlink:href="#blue_gradient_square-2"/><use width="54" height="54" transform="translate(373.44 162.39) scale(0.99)" xlink:href="#blue_gradient_square-2"/><use width="54" height="54" transform="translate(373.44 269.11) scale(0.99)" xlink:href="#blue_gradient_square-2"/><use width="54" height="54" transform="translate(373.44 375.83) scale(0.99)" xlink:href="#blue_gradient_square-2"/><use width="54" height="54" transform="translate(373.44 482.56) scale(0.99)" xlink:href="#blue_gradient_square-2"/><use width="54" height="54" transform="translate(373.44 589.28) scale(0.99)" xlink:href="#blue_gradient_square-2"/><rect class="cls-4" x="426.81" y="162.39" width="53.36" height="53.36"/><rect class="cls-4" x="426.81" y="269.11" width="53.36" height="53.36"/><rect class="cls-4" x="426.81" y="55.67" width="53.36" height="53.36"/><rect class="cls-4" x="426.81" y="482.56" width="53.36" height="53.36"/><rect class="cls-4" x="426.81" y="589.28" width="53.36" height="53.36"/><rect class="cls-4" x="426.81" y="375.83" width="53.36" height="53.36"/><use width="54" height="54" transform="translate(426.81 109.03) scale(0.99)" xlink:href="#blue_gradient_square-2"/><use width="54" height="54" transform="translate(426.81 215.75) scale(0.99)" xlink:href="#blue_gradient_square-2"/><use width="54" height="54" transform="translate(426.81 322.47) scale(0.99)" xlink:href="#blue_gradient_square-2"/><use width="54" height="54" transform="translate(426.81 429.19) scale(0.99)" xlink:href="#blue_gradient_square-2"/><use width="54" height="54" transform="translate(426.81 535.92) scale(0.99)" xlink:href="#blue_gradient_square-2"/><rect class="cls-4" x="480.17" y="215.75" width="53.36" height="53.36"/><rect class="cls-4" x="480.17" y="322.47" width="53.36" height="53.36"/><rect class="cls-4" x="480.17" y="109.03" width="53.36" height="53.36"/><rect class="cls-4" x="480.17" y="535.92" width="53.36" height="53.36"/><rect class="cls-4" x="480.17" y="429.19" width="53.36" height="53.36"/><use id="blue_gradient_square-178" data-name="blue gradient square" width="54" height="54" transform="translate(480.17 55.67) scale(0.99)" xlink:href="#blue_gradient_square-2"/><use width="54" height="54" transform="translate(480.17 162.39) scale(0.99)" xlink:href="#blue_gradient_square-2"/><use width="54" height="54" transform="translate(480.17 269.11) scale(0.99)" xlink:href="#blue_gradient_square-2"/><use width="54" height="54" transform="translate(480.17 375.83) scale(0.99)" xlink:href="#blue_gradient_square-2"/><use width="54" height="54" transform="translate(480.17 482.56) scale(0.99)" xlink:href="#blue_gradient_square-2"/><use width="54" height="54" transform="translate(480.17 589.28) scale(0.99)" xlink:href="#blue_gradient_square-2"/><rect class="cls-4" x="533.53" y="162.39" width="53.36" height="53.36"/><rect class="cls-4" x="533.53" y="269.11" width="53.36" height="53.36"/><rect class="cls-4" x="533.53" y="55.67" width="53.36" height="53.36"/><rect class="cls-4" x="533.53" y="482.56" width="53.36" height="53.36"/><rect class="cls-4" x="533.53" y="589.28" width="53.36" height="53.36"/><rect class="cls-4" x="533.53" y="375.83" width="53.36" height="53.36"/><use width="54" height="54" transform="translate(533.53 109.03) scale(0.99)" xlink:href="#blue_gradient_square-2"/><use width="54" height="54" transform="translate(533.53 215.75) scale(0.99)" xlink:href="#blue_gradient_square-2"/><use width="54" height="54" transform="translate(533.53 322.47) scale(0.99)" xlink:href="#blue_gradient_square-2"/><use width="54" height="54" transform="translate(533.53 429.19) scale(0.99)" xlink:href="#blue_gradient_square-2"/><use width="54" height="54" transform="translate(533.53 535.92) scale(0.99)" xlink:href="#blue_gradient_square-2"/><rect class="cls-4" x="586.89" y="215.75" width="53.36" height="53.36"/><rect class="cls-4" x="586.89" y="322.47" width="53.36" height="53.36"/><rect class="cls-4" x="586.89" y="109.03" width="53.36" height="53.36"/><rect class="cls-4" x="586.89" y="535.92" width="53.36" height="53.36"/><rect class="cls-4" x="586.89" y="429.19" width="53.36" height="53.36"/><use id="blue_gradient_square-201" data-name="blue gradient square" width="54" height="54" transform="translate(586.89 55.67) scale(0.99)" xlink:href="#blue_gradient_square-2"/><use width="54" height="54" transform="translate(586.89 162.39) scale(0.99)" xlink:href="#blue_gradient_square-2"/><use width="54" height="54" transform="translate(586.89 269.11) scale(0.99)" xlink:href="#blue_gradient_square-2"/><use width="54" height="54" transform="translate(586.89 375.83) scale(0.99)" xlink:href="#blue_gradient_square-2"/><use width="54" height="54" transform="translate(586.89 482.56) scale(0.99)" xlink:href="#blue_gradient_square-2"/><use width="54" height="54" transform="translate(586.89 589.28) scale(0.99)" xlink:href="#blue_gradient_square-2"/><rect class="cls-4" x="640.25" y="162.39" width="53.36" height="53.36"/><rect class="cls-4" x="640.25" y="269.11" width="53.36" height="53.36"/><rect class="cls-4" x="640.25" y="55.67" width="53.36" height="53.36"/><rect class="cls-4" x="640.25" y="482.56" width="53.36" height="53.36"/><rect class="cls-4" x="640.25" y="589.28" width="53.36" height="53.36"/><rect class="cls-4" x="640.25" y="375.83" width="53.36" height="53.36"/><use width="54" height="54" transform="translate(640.25 109.03) scale(0.99)" xlink:href="#blue_gradient_square-2"/><use width="54" height="54" transform="translate(640.25 215.75) scale(0.99)" xlink:href="#blue_gradient_square-2"/><use width="54" height="54" transform="translate(640.25 322.47) scale(0.99)" xlink:href="#blue_gradient_square-2"/><use width="54" height="54" transform="translate(640.25 429.19) scale(0.99)" xlink:href="#blue_gradient_square-2"/><use width="54" height="54" transform="translate(640.25 535.92) scale(0.99)" xlink:href="#blue_gradient_square-2"/><rect class="cls-4" x="693.61" y="215.75" width="53.36" height="53.36"/><rect class="cls-4" x="693.61" y="322.47" width="53.36" height="53.36"/><rect class="cls-4" x="693.61" y="109.03" width="53.36" height="53.36"/><rect class="cls-4" x="693.61" y="535.92" width="53.36" height="53.36"/><rect class="cls-4" x="693.61" y="429.19" width="53.36" height="53.36"/><use id="blue_gradient_square-224" data-name="blue gradient square" width="54" height="54" transform="translate(693.61 55.67) scale(0.99)" xlink:href="#blue_gradient_square-2"/><use width="54" height="54" transform="translate(693.61 162.39) scale(0.99)" xlink:href="#blue_gradient_square-2"/><use width="54" height="54" transform="translate(693.61 269.11) scale(0.99)" xlink:href="#blue_gradient_square-2"/><use width="54" height="54" transform="translate(693.61 375.83) scale(0.99)" xlink:href="#blue_gradient_square-2"/><use width="54" height="54" transform="translate(693.61 482.56) scale(0.99)" xlink:href="#blue_gradient_square-2"/><use width="54" height="54" transform="translate(693.61 589.28) scale(0.99)" xlink:href="#blue_gradient_square-2"/><rect class="cls-4" x="746.97" y="162.39" width="53.36" height="53.36"/><rect class="cls-4" x="746.97" y="269.11" width="53.36" height="53.36"/><rect class="cls-4" x="746.97" y="55.67" width="53.36" height="53.36"/><rect class="cls-4" x="746.97" y="482.56" width="53.36" height="53.36"/><rect class="cls-4" x="746.97" y="589.28" width="53.36" height="53.36"/><rect class="cls-4" x="746.97" y="375.83" width="53.36" height="53.36"/><use width="54" height="54" transform="translate(746.97 109.03) scale(0.99)" xlink:href="#blue_gradient_square-2"/><use width="54" height="54" transform="translate(746.97 215.75) scale(0.99)" xlink:href="#blue_gradient_square-2"/><use width="54" height="54" transform="translate(746.97 322.47) scale(0.99)" xlink:href="#blue_gradient_square-2"/><use width="54" height="54" transform="translate(746.97 429.19) scale(0.99)" xlink:href="#blue_gradient_square-2"/><use width="54" height="54" transform="translate(746.97 535.92) scale(0.99)" xlink:href="#blue_gradient_square-2"/><rect class="cls-4" x="800.33" y="215.75" width="53.36" height="53.36"/><rect class="cls-4" x="800.33" y="322.47" width="53.36" height="53.36"/><rect class="cls-4" x="800.33" y="109.03" width="53.36" height="53.36"/><rect class="cls-4" x="800.33" y="535.92" width="53.36" height="53.36"/><rect class="cls-4" x="800.33" y="429.19" width="53.36" height="53.36"/><use id="blue_gradient_square-247" data-name="blue gradient square" width="54" height="54" transform="translate(800.33 55.67) scale(0.99)" xlink:href="#blue_gradient_square-2"/><use width="54" height="54" transform="translate(800.33 162.39) scale(0.99)" xlink:href="#blue_gradient_square-2"/><use width="54" height="54" transform="translate(800.33 269.11) scale(0.99)" xlink:href="#blue_gradient_square-2"/><use width="54" height="54" transform="translate(800.33 375.83) scale(0.99)" xlink:href="#blue_gradient_square-2"/><use width="54" height="54" transform="translate(800.33 482.56) scale(0.99)" xlink:href="#blue_gradient_square-2"/><use width="54" height="54" transform="translate(800.33 589.28) scale(0.99)" xlink:href="#blue_gradient_square-2"/><rect class="cls-4" x="853.69" y="162.39" width="53.36" height="53.36"/><rect class="cls-4" x="853.69" y="269.11" width="53.36" height="53.36"/><rect class="cls-4" x="853.69" y="55.67" width="53.36" height="53.36"/><rect class="cls-4" x="853.69" y="482.56" width="53.36" height="53.36"/><rect class="cls-4" x="853.69" y="589.28" width="53.36" height="53.36"/><rect class="cls-4" x="853.69" y="375.83" width="53.36" height="53.36"/><use width="54" height="54" transform="translate(853.69 109.03) scale(0.99)" xlink:href="#blue_gradient_square-2"/><use width="54" height="54" transform="translate(853.69 215.75) scale(0.99)" xlink:href="#blue_gradient_square-2"/><use width="54" height="54" transform="translate(853.69 322.47) scale(0.99)" xlink:href="#blue_gradient_square-2"/><use width="54" height="54" transform="translate(853.69 429.19) scale(0.99)" xlink:href="#blue_gradient_square-2"/><use width="54" height="54" transform="translate(853.69 535.92) scale(0.99)" xlink:href="#blue_gradient_square-2"/><rect class="cls-4" x="907.06" y="215.75" width="53.36" height="53.36"/><rect class="cls-4" x="907.06" y="322.47" width="53.36" height="53.36"/><rect class="cls-4" x="907.06" y="109.03" width="53.36" height="53.36"/><rect class="cls-4" x="907.06" y="535.92" width="53.36" height="53.36"/><rect class="cls-4" x="907.06" y="429.19" width="53.36" height="53.36"/><use id="blue_gradient_square-270" data-name="blue gradient square" width="54" height="54" transform="translate(907.06 55.67) scale(0.99)" xlink:href="#blue_gradient_square-2"/><use width="54" height="54" transform="translate(907.06 162.39) scale(0.99)" xlink:href="#blue_gradient_square-2"/><use width="54" height="54" transform="translate(907.06 269.11) scale(0.99)" xlink:href="#blue_gradient_square-2"/><use width="54" height="54" transform="translate(907.06 375.83) scale(0.99)" xlink:href="#blue_gradient_square-2"/><use width="54" height="54" transform="translate(907.06 482.56) scale(0.99)" xlink:href="#blue_gradient_square-2"/><use width="54" height="54" transform="translate(907.06 589.28) scale(0.99)" xlink:href="#blue_gradient_square-2"/><rect class="cls-4" x="960.42" y="162.39" width="53.36" height="53.36"/><rect class="cls-4" x="960.42" y="269.11" width="53.36" height="53.36"/><rect class="cls-4" x="960.42" y="55.67" width="53.36" height="53.36"/><rect class="cls-4" x="960.42" y="482.56" width="53.36" height="53.36"/><rect class="cls-4" x="960.42" y="589.28" width="53.36" height="53.36"/><rect class="cls-4" x="960.42" y="375.83" width="53.36" height="53.36"/><use width="54" height="54" transform="translate(960.42 109.03) scale(0.99)" xlink:href="#blue_gradient_square-2"/><use width="54" height="54" transform="translate(960.42 215.75) scale(0.99)" xlink:href="#blue_gradient_square-2"/><use width="54" height="54" transform="translate(960.42 322.47) scale(0.99)" xlink:href="#blue_gradient_square-2"/><use width="54" height="54" transform="translate(960.42 429.19) scale(0.99)" xlink:href="#blue_gradient_square-2"/><use width="54" height="54" transform="translate(960.42 535.92) scale(0.99)" xlink:href="#blue_gradient_square-2"/><rect class="cls-4" x="1013.78" y="215.75" width="53.36" height="53.36"/><rect class="cls-4" x="1013.78" y="322.47" width="53.36" height="53.36"/><rect class="cls-4" x="1013.78" y="109.03" width="53.36" height="53.36"/><rect class="cls-4" x="1013.78" y="535.92" width="53.36" height="53.36"/><rect class="cls-4" x="1013.78" y="429.19" width="53.36" height="53.36"/><use id="blue_gradient_square-293" data-name="blue gradient square" width="54" height="54" transform="translate(1013.78 55.67) scale(0.99)" xlink:href="#blue_gradient_square-2"/><use width="54" height="54" transform="translate(1013.78 162.39) scale(0.99)" xlink:href="#blue_gradient_square-2"/><use width="54" height="54" transform="translate(1013.78 269.11) scale(0.99)" xlink:href="#blue_gradient_square-2"/><use width="54" height="54" transform="translate(1013.78 375.83) scale(0.99)" xlink:href="#blue_gradient_square-2"/><use width="54" height="54" transform="translate(1013.78 482.56) scale(0.99)" xlink:href="#blue_gradient_square-2"/><use width="54" height="54" transform="translate(1013.78 589.28) scale(0.99)" xlink:href="#blue_gradient_square-2"/><rect class="cls-4" x="1067.14" y="162.39" width="53.36" height="53.36"/><rect class="cls-4" x="1067.14" y="269.11" width="53.36" height="53.36"/><rect class="cls-4" x="1067.14" y="55.67" width="53.36" height="53.36"/><rect class="cls-4" x="1067.14" y="482.56" width="53.36" height="53.36"/><rect class="cls-4" x="1067.14" y="589.28" width="53.36" height="53.36"/><rect class="cls-4" x="1067.14" y="375.83" width="53.36" height="53.36"/><use width="54" height="54" transform="translate(1067.14 109.03) scale(0.99)" xlink:href="#blue_gradient_square-2"/><use width="54" height="54" transform="translate(1067.14 215.75) scale(0.99)" xlink:href="#blue_gradient_square-2"/><use width="54" height="54" transform="translate(1067.14 322.47) scale(0.99)" xlink:href="#blue_gradient_square-2"/><use width="54" height="54" transform="translate(1067.14 429.19) scale(0.99)" xlink:href="#blue_gradient_square-2"/><use width="54" height="54" transform="translate(1067.14 535.92) scale(0.99)" xlink:href="#blue_gradient_square-2"/><rect class="cls-4" x="1120.5" y="215.75" width="53.36" height="53.36"/><rect class="cls-4" x="1120.5" y="322.47" width="53.36" height="53.36"/><rect class="cls-4" x="1120.5" y="109.03" width="53.36" height="53.36"/><rect class="cls-4" x="1120.5" y="535.92" width="53.36" height="53.36"/><rect class="cls-4" x="1120.5" y="429.19" width="53.36" height="53.36"/><use id="blue_gradient_square-316" data-name="blue gradient square" width="54" height="54" transform="translate(1120.5 55.67) scale(0.99)" xlink:href="#blue_gradient_square-2"/><use width="54" height="54" transform="translate(1120.5 162.39) scale(0.99)" xlink:href="#blue_gradient_square-2"/><use width="54" height="54" transform="translate(1120.5 269.11) scale(0.99)" xlink:href="#blue_gradient_square-2"/><use width="54" height="54" transform="translate(1120.5 375.83) scale(0.99)" xlink:href="#blue_gradient_square-2"/><use width="54" height="54" transform="translate(1120.5 482.56) scale(0.99)" xlink:href="#blue_gradient_square-2"/><use width="54" height="54" transform="translate(1120.5 589.28) scale(0.99)" xlink:href="#blue_gradient_square-2"/><rect class="cls-4" x="1173.86" y="162.39" width="53.36" height="53.36"/><rect class="cls-4" x="1173.86" y="269.11" width="53.36" height="53.36"/><rect class="cls-4" x="1173.86" y="55.67" width="53.36" height="53.36"/><rect class="cls-4" x="1173.86" y="482.56" width="53.36" height="53.36"/><rect class="cls-4" x="1173.86" y="589.28" width="53.36" height="53.36"/><rect class="cls-4" x="1173.86" y="375.83" width="53.36" height="53.36"/><use width="54" height="54" transform="translate(1173.86 109.03) scale(0.99)" xlink:href="#blue_gradient_square-2"/><use width="54" height="54" transform="translate(1173.86 215.75) scale(0.99)" xlink:href="#blue_gradient_square-2"/><use width="54" height="54" transform="translate(1173.86 322.47) scale(0.99)" xlink:href="#blue_gradient_square-2"/><use width="54" height="54" transform="translate(1173.86 429.19) scale(0.99)" xlink:href="#blue_gradient_square-2"/><use width="54" height="54" transform="translate(1173.86 535.92) scale(0.99)" xlink:href="#blue_gradient_square-2"/><rect class="cls-4" x="1227.22" y="215.75" width="53.36" height="53.36"/><rect class="cls-4" x="1227.22" y="322.47" width="53.36" height="53.36"/><rect class="cls-4" x="1227.22" y="109.03" width="53.36" height="53.36"/><rect class="cls-4" x="1227.22" y="535.92" width="53.36" height="53.36"/><rect class="cls-4" x="1227.22" y="429.19" width="53.36" height="53.36"/><use id="blue_gradient_square-339" data-name="blue gradient square" width="54" height="54" transform="translate(1227.22 55.67) scale(0.99)" xlink:href="#blue_gradient_square-2"/><use width="54" height="54" transform="translate(1227.22 162.39) scale(0.99)" xlink:href="#blue_gradient_square-2"/><use width="54" height="54" transform="translate(1227.22 269.11) scale(0.99)" xlink:href="#blue_gradient_square-2"/><use width="54" height="54" transform="translate(1227.22 375.83) scale(0.99)" xlink:href="#blue_gradient_square-2"/><use width="54" height="54" transform="translate(1227.22 482.56) scale(0.99)" xlink:href="#blue_gradient_square-2"/><use width="54" height="54" transform="translate(1227.22 589.28) scale(0.99)" xlink:href="#blue_gradient_square-2"/><rect class="cls-4" x="1280.58" y="162.39" width="53.36" height="53.36"/><rect class="cls-4" x="1280.58" y="269.11" width="53.36" height="53.36"/><rect class="cls-4" x="1280.58" y="55.67" width="53.36" height="53.36"/><rect class="cls-4" x="1280.58" y="482.56" width="53.36" height="53.36"/><rect class="cls-4" x="1280.58" y="589.28" width="53.36" height="53.36"/><rect class="cls-4" x="1280.58" y="375.83" width="53.36" height="53.36"/><use width="54" height="54" transform="translate(1280.58 109.03) scale(0.99)" xlink:href="#blue_gradient_square-2"/><use width="54" height="54" transform="translate(1280.58 215.75) scale(0.99)" xlink:href="#blue_gradient_square-2"/><use width="54" height="54" transform="translate(1280.58 322.47) scale(0.99)" xlink:href="#blue_gradient_square-2"/><use width="54" height="54" transform="translate(1280.58 429.19) scale(0.99)" xlink:href="#blue_gradient_square-2"/><use width="54" height="54" transform="translate(1280.58 535.92) scale(0.99)" xlink:href="#blue_gradient_square-2"/><rect class="cls-4" x="1333.94" y="215.75" width="53.36" height="53.36"/><rect class="cls-4" x="1333.94" y="322.47" width="53.36" height="53.36"/><rect class="cls-4" x="1333.94" y="109.03" width="53.36" height="53.36"/><rect class="cls-4" x="1333.94" y="535.92" width="53.36" height="53.36"/><rect class="cls-4" x="1333.94" y="429.19" width="53.36" height="53.36"/><use id="blue_gradient_square-362" data-name="blue gradient square" width="54" height="54" transform="translate(1333.94 55.67) scale(0.99)" xlink:href="#blue_gradient_square-2"/><use width="54" height="54" transform="translate(1333.94 162.39) scale(0.99)" xlink:href="#blue_gradient_square-2"/><use width="54" height="54" transform="translate(1333.94 269.11) scale(0.99)" xlink:href="#blue_gradient_square-2"/><use width="54" height="54" transform="translate(1333.94 375.83) scale(0.99)" xlink:href="#blue_gradient_square-2"/><use width="54" height="54" transform="translate(1333.94 482.56) scale(0.99)" xlink:href="#blue_gradient_square-2"/><use width="54" height="54" transform="translate(1333.94 589.28) scale(0.99)" xlink:href="#blue_gradient_square-2"/><rect class="cls-4" x="1387.31" y="162.39" width="53.36" height="53.36"/><rect class="cls-4" x="1387.31" y="269.11" width="53.36" height="53.36"/><rect class="cls-4" x="1387.31" y="55.67" width="53.36" height="53.36"/><rect class="cls-4" x="1387.31" y="482.56" width="53.36" height="53.36"/><rect class="cls-4" x="1387.31" y="589.28" width="53.36" height="53.36"/><rect class="cls-4" x="1387.31" y="375.83" width="53.36" height="53.36"/><use width="54" height="54" transform="translate(1387.31 109.03) scale(0.99)" xlink:href="#blue_gradient_square-2"/><use width="54" height="54" transform="translate(1387.31 215.75) scale(0.99)" xlink:href="#blue_gradient_square-2"/><use width="54" height="54" transform="translate(1387.31 322.47) scale(0.99)" xlink:href="#blue_gradient_square-2"/><use width="54" height="54" transform="translate(1387.31 429.19) scale(0.99)" xlink:href="#blue_gradient_square-2"/><use width="54" height="54" transform="translate(1387.31 535.92) scale(0.99)" xlink:href="#blue_gradient_square-2"/><rect class="cls-4" x="1440.67" y="215.75" width="53.36" height="53.36"/><rect class="cls-4" x="1440.67" y="322.47" width="53.36" height="53.36"/><rect class="cls-4" x="1440.67" y="109.03" width="53.36" height="53.36"/><rect class="cls-4" x="1440.67" y="535.92" width="53.36" height="53.36"/><rect class="cls-4" x="1440.67" y="429.19" width="53.36" height="53.36"/><use id="blue_gradient_square-385" data-name="blue gradient square" width="54" height="54" transform="translate(1440.67 55.67) scale(0.99)" xlink:href="#blue_gradient_square-2"/><use width="54" height="54" transform="translate(1440.67 162.39) scale(0.99)" xlink:href="#blue_gradient_square-2"/><use width="54" height="54" transform="translate(1440.67 269.11) scale(0.99)" xlink:href="#blue_gradient_square-2"/><use width="54" height="54" transform="translate(1440.67 375.83) scale(0.99)" xlink:href="#blue_gradient_square-2"/><use width="54" height="54" transform="translate(1440.67 482.56) scale(0.99)" xlink:href="#blue_gradient_square-2"/><use width="54" height="54" transform="translate(1440.67 589.28) scale(0.99)" xlink:href="#blue_gradient_square-2"/><rect class="cls-4" x="1494.03" y="162.39" width="53.36" height="53.36"/><rect class="cls-4" x="1494.03" y="269.11" width="53.36" height="53.36"/><rect class="cls-4" x="1494.03" y="55.67" width="53.36" height="53.36"/><rect class="cls-4" x="1494.03" y="482.56" width="53.36" height="53.36"/><rect class="cls-4" x="1494.03" y="589.28" width="53.36" height="53.36"/><rect class="cls-4" x="1494.03" y="375.83" width="53.36" height="53.36"/><use width="54" height="54" transform="translate(1494.03 109.03) scale(0.99)" xlink:href="#blue_gradient_square-2"/><use width="54" height="54" transform="translate(1494.03 215.75) scale(0.99)" xlink:href="#blue_gradient_square-2"/><use width="54" height="54" transform="translate(1494.03 322.47) scale(0.99)" xlink:href="#blue_gradient_square-2"/><use width="54" height="54" transform="translate(1494.03 429.19) scale(0.99)" xlink:href="#blue_gradient_square-2"/><use width="54" height="54" transform="translate(1494.03 535.92) scale(0.99)" xlink:href="#blue_gradient_square-2"/><rect class="cls-4" x="1547.39" y="215.75" width="53.36" height="53.36"/><rect class="cls-4" x="1547.39" y="322.47" width="53.36" height="53.36"/><rect class="cls-4" x="1547.39" y="109.03" width="53.36" height="53.36"/><rect class="cls-4" x="1547.39" y="535.92" width="53.36" height="53.36"/><rect class="cls-4" x="1547.39" y="429.19" width="53.36" height="53.36"/><use id="blue_gradient_square-408" data-name="blue gradient square" width="54" height="54" transform="translate(1547.39 55.67) scale(0.99)" xlink:href="#blue_gradient_square-2"/><use width="54" height="54" transform="translate(1547.39 162.39) scale(0.99)" xlink:href="#blue_gradient_square-2"/><use width="54" height="54" transform="translate(1547.39 269.11) scale(0.99)" xlink:href="#blue_gradient_square-2"/><use width="54" height="54" transform="translate(1547.39 375.83) scale(0.99)" xlink:href="#blue_gradient_square-2"/><use width="54" height="54" transform="translate(1547.39 482.56) scale(0.99)" xlink:href="#blue_gradient_square-2"/><use width="54" height="54" transform="translate(1547.39 589.28) scale(0.99)" xlink:href="#blue_gradient_square-2"/><rect class="cls-4" x="1600.75" y="162.39" width="53.36" height="53.36"/><rect class="cls-4" x="1600.75" y="269.11" width="53.36" height="53.36"/><rect class="cls-4" x="1600.75" y="55.67" width="53.36" height="53.36"/><rect class="cls-4" x="1600.75" y="482.56" width="53.36" height="53.36"/><rect class="cls-4" x="1600.75" y="589.28" width="53.36" height="53.36"/><rect class="cls-4" x="1600.75" y="375.83" width="53.36" height="53.36"/><use width="54" height="54" transform="translate(1600.75 109.03) scale(0.99)" xlink:href="#blue_gradient_square-2"/><use width="54" height="54" transform="translate(1600.75 215.75) scale(0.99)" xlink:href="#blue_gradient_square-2"/><use width="54" height="54" transform="translate(1600.75 322.47) scale(0.99)" xlink:href="#blue_gradient_square-2"/><use width="54" height="54" transform="translate(1600.75 429.19) scale(0.99)" xlink:href="#blue_gradient_square-2"/><use width="54" height="54" transform="translate(1600.75 535.92) scale(0.99)" xlink:href="#blue_gradient_square-2"/><rect class="cls-4" x="1654.11" y="215.75" width="53.36" height="53.36"/><rect class="cls-4" x="1654.11" y="322.47" width="53.36" height="53.36"/><rect class="cls-4" x="1654.11" y="109.03" width="53.36" height="53.36"/><rect class="cls-4" x="1654.11" y="535.92" width="53.36" height="53.36"/><rect class="cls-4" x="1654.11" y="429.19" width="53.36" height="53.36"/><use id="blue_gradient_square-431" data-name="blue gradient square" width="54" height="54" transform="translate(1654.11 55.67) scale(0.99)" xlink:href="#blue_gradient_square-2"/><use width="54" height="54" transform="translate(1654.11 162.39) scale(0.99)" xlink:href="#blue_gradient_square-2"/><use width="54" height="54" transform="translate(1654.11 269.11) scale(0.99)" xlink:href="#blue_gradient_square-2"/><use width="54" height="54" transform="translate(1654.11 375.83) scale(0.99)" xlink:href="#blue_gradient_square-2"/><use width="54" height="54" transform="translate(1654.11 482.56) scale(0.99)" xlink:href="#blue_gradient_square-2"/><use width="54" height="54" transform="translate(1654.11 589.28) scale(0.99)" xlink:href="#blue_gradient_square-2"/><rect class="cls-4" x="1707.47" y="162.39" width="53.36" height="53.36"/><rect class="cls-4" x="1707.47" y="269.11" width="53.36" height="53.36"/><rect class="cls-4" x="1707.47" y="55.67" width="53.36" height="53.36"/><rect class="cls-4" x="1707.47" y="482.56" width="53.36" height="53.36"/><rect class="cls-4" x="1707.47" y="589.28" width="53.36" height="53.36"/><rect class="cls-4" x="1707.47" y="375.83" width="53.36" height="53.36"/><use width="54" height="54" transform="translate(1707.47 109.03) scale(0.99)" xlink:href="#blue_gradient_square-2"/><use width="54" height="54" transform="translate(1707.47 215.75) scale(0.99)" xlink:href="#blue_gradient_square-2"/><use width="54" height="54" transform="translate(1707.47 322.47) scale(0.99)" xlink:href="#blue_gradient_square-2"/><use width="54" height="54" transform="translate(1707.47 429.19) scale(0.99)" xlink:href="#blue_gradient_square-2"/><use width="54" height="54" transform="translate(1707.47 535.92) scale(0.99)" xlink:href="#blue_gradient_square-2"/><rect class="cls-4" x="1760.83" y="215.75" width="53.36" height="53.36"/><rect class="cls-4" x="1760.83" y="322.47" width="53.36" height="53.36"/><rect class="cls-4" x="1760.83" y="109.03" width="53.36" height="53.36"/><rect class="cls-4" x="1760.83" y="535.92" width="53.36" height="53.36"/><rect class="cls-4" x="1760.83" y="429.19" width="53.36" height="53.36"/><use id="blue_gradient_square-454" data-name="blue gradient square" width="54" height="54" transform="translate(1760.83 55.67) scale(0.99)" xlink:href="#blue_gradient_square-2"/><use width="54" height="54" transform="translate(1760.83 162.39) scale(0.99)" xlink:href="#blue_gradient_square-2"/><use width="54" height="54" transform="translate(1760.83 269.11) scale(0.99)" xlink:href="#blue_gradient_square-2"/><use width="54" height="54" transform="translate(1760.83 375.83) scale(0.99)" xlink:href="#blue_gradient_square-2"/><use width="54" height="54" transform="translate(1760.83 482.56) scale(0.99)" xlink:href="#blue_gradient_square-2"/><use width="54" height="54" transform="translate(1760.83 589.28) scale(0.99)" xlink:href="#blue_gradient_square-2"/><rect class="cls-4" x="1814.19" y="162.39" width="53.36" height="53.36"/><rect class="cls-4" x="1814.19" y="269.11" width="53.36" height="53.36"/><rect class="cls-4" x="1814.19" y="55.67" width="53.36" height="53.36"/><rect class="cls-4" x="1814.19" y="482.56" width="53.36" height="53.36"/><rect class="cls-4" x="1814.19" y="589.28" width="53.36" height="53.36"/><rect class="cls-4" x="1814.19" y="375.83" width="53.36" height="53.36"/><use width="54" height="54" transform="translate(1814.19 109.03) scale(0.99)" xlink:href="#blue_gradient_square-2"/><use width="54" height="54" transform="translate(1814.19 215.75) scale(0.99)" xlink:href="#blue_gradient_square-2"/><use width="54" height="54" transform="translate(1814.19 322.47) scale(0.99)" xlink:href="#blue_gradient_square-2"/><use width="54" height="54" transform="translate(1814.19 429.19) scale(0.99)" xlink:href="#blue_gradient_square-2"/><use width="54" height="54" transform="translate(1814.19 535.92) scale(0.99)" xlink:href="#blue_gradient_square-2"/><rect class="cls-4" x="1867.56" y="215.75" width="53.36" height="53.36"/><rect class="cls-4" x="1867.56" y="322.47" width="53.36" height="53.36"/><rect class="cls-4" x="1867.56" y="109.03" width="53.36" height="53.36"/><rect class="cls-4" x="1867.56" y="535.92" width="53.36" height="53.36"/><rect class="cls-4" x="1867.56" y="429.19" width="53.36" height="53.36"/><use id="blue_gradient_square-477" data-name="blue gradient square" width="54" height="54" transform="translate(1867.56 55.67) scale(0.99)" xlink:href="#blue_gradient_square-2"/><use width="54" height="54" transform="translate(1867.56 162.39) scale(0.99)" xlink:href="#blue_gradient_square-2"/><use width="54" height="54" transform="translate(1867.56 269.11) scale(0.99)" xlink:href="#blue_gradient_square-2"/><use width="54" height="54" transform="translate(1867.56 375.83) scale(0.99)" xlink:href="#blue_gradient_square-2"/><use width="54" height="54" transform="translate(1867.56 482.56) scale(0.99)" xlink:href="#blue_gradient_square-2"/><use width="54" height="54" transform="translate(1867.56 589.28) scale(0.99)" xlink:href="#blue_gradient_square-2"/></g><path class="cls-5" d="M0,0H1921V269c0,76-107,107-267,107H747c-91,0-160,37-160,107S559,643,427,643H0Z"/></g></svg>