<svg id="Layer_1" data-name="Layer 1" xmlns="http://www.w3.org/2000/svg" xmlns:xlink="http://www.w3.org/1999/xlink" viewBox="0 0 1920 1043"><defs><style>.cls-1{fill:none;}.cls-2{fill:#8bc642;opacity:0.3;}.cls-3{fill:url(#linear-gradient);}.cls-4{clip-path:url(#clip-path);}.cls-5{clip-path:url(#clip-path-2);}.cls-6{clip-path:url(#clip-path-3);}.cls-7{clip-path:url(#clip-path-4);}</style><linearGradient id="linear-gradient" x2="54" y2="54" gradientUnits="userSpaceOnUse"><stop offset="0" stop-color="#8bc642" stop-opacity="0.8"/><stop offset="1" stop-color="#8bc642" stop-opacity="0.1"/></linearGradient><clipPath id="clip-path"><polygon class="cls-1" points="-2276 384.67 -2221 384.67 -2221 494 -2166 494 -2166 604 -2111 604 -2111 550 -2056 550 -2056 714 -2002 714 -2002 494 -1947 494 -1947 440 -1892 440 -1892 330 -1837 330 -1837 494 -1782 494 -1782 440 -1727 440 -1727 385 -1672 385 -1672 330 -1617 330 -1617 440 -1563 440 -1563 550 -1508 550 -1508 714 -1453 714 -1453 604 -1398 604 -1398 550 -1343 550 -1343 440 -1288 440 -1288 385 -1233 385 -1233 494 -1178 494 -1178 604 -1124 604 -1124 659 -1069 659 -1069 550 -1014 550 -1014 440 -959 440 -959 385 -904 385 -904 275 -849 275 -849 220 -794 220 -794 165 -739 165 -739 275 -685 275 -685 220 -630 220 -630 165 -575 165 -575 110 -520 110 -520 165 -465 165 -465 110 -410 110 -410 55 -355 55 -355 0 -2276 0 -2276 384.67"/></clipPath><clipPath id="clip-path-2"><rect class="cls-1" x="-2276" y="-55" width="1921" height="1098.3"/></clipPath><clipPath id="clip-path-3"><polygon class="cls-1" points="0 934.21 110 934.21 110 879 165 879 165 824 220 824 220 770 384 770 384 660 494 660 494 605 713 605 713 550 878 550 878 495 933 495 933 440 988 440 988 385 1098 385 1098 330 1537 330 1537 275 1701 275 1701 220 1920.63 220 1920.63 0 0 0 0 934.21"/></clipPath><clipPath id="clip-path-4"><rect class="cls-1" y="-55" width="1921" height="1098.3"/></clipPath><symbol id="New_Symbol" data-name="New Symbol" viewBox="0 0 53.36 53.36"><rect class="cls-2" width="53.36" height="53.36"/></symbol><symbol id="blue_gradient_square" data-name="blue gradient square" viewBox="0 0 54 54"><rect class="cls-3" width="54" height="54"/></symbol></defs><title>bg-pattern-carbon-fiber-green-tiered</title><g class="cls-4"><g class="cls-5"><use width="53.36" height="53.36" transform="translate(-26.12 54.85) scale(1.03)" xlink:href="#New_Symbol"/><use width="54" height="54" transform="translate(-26.12 -0.03) scale(1.02)" xlink:href="#blue_gradient_square"/><use width="53.36" height="53.36" transform="translate(-26.12 164.88) scale(1.03)" xlink:href="#New_Symbol"/><use width="54" height="54" transform="translate(-26.12 110.01) scale(1.02)" xlink:href="#blue_gradient_square"/><use width="53.36" height="53.36" transform="translate(-26.12 274.63) scale(1.03)" xlink:href="#New_Symbol"/><use width="54" height="54" transform="translate(-26.12 219.76) scale(1.02)" xlink:href="#blue_gradient_square"/><use width="53.36" height="53.36" transform="translate(-26.12 384.67) scale(1.03)" xlink:href="#New_Symbol"/><use width="54" height="54" transform="translate(-26.12 329.79) scale(1.02)" xlink:href="#blue_gradient_square"/><use width="54" height="54" transform="translate(28.75 54.85) scale(1.02)" xlink:href="#blue_gradient_square"/><use width="53.36" height="53.36" transform="translate(83.63 54.85) scale(1.03)" xlink:href="#New_Symbol"/><use width="53.36" height="53.36" transform="translate(28.75 -0.03) scale(1.03)" xlink:href="#New_Symbol"/><use width="54" height="54" transform="translate(83.63 -0.03) scale(1.02)" xlink:href="#blue_gradient_square"/><use width="54" height="54" transform="translate(28.75 164.88) scale(1.02)" xlink:href="#blue_gradient_square"/><use width="53.36" height="53.36" transform="translate(83.63 164.88) scale(1.03)" xlink:href="#New_Symbol"/><use width="53.36" height="53.36" transform="translate(28.75 110.01) scale(1.03)" xlink:href="#New_Symbol"/><use width="54" height="54" transform="translate(83.63 110.01) scale(1.02)" xlink:href="#blue_gradient_square"/><use width="54" height="54" transform="translate(28.75 274.63) scale(1.02)" xlink:href="#blue_gradient_square"/><use width="53.36" height="53.36" transform="translate(83.63 274.63) scale(1.03)" xlink:href="#New_Symbol"/><use width="53.36" height="53.36" transform="translate(28.75 219.76) scale(1.03)" xlink:href="#New_Symbol"/><use width="54" height="54" transform="translate(83.63 219.76) scale(1.02)" xlink:href="#blue_gradient_square"/><use width="54" height="54" transform="translate(28.75 384.67) scale(1.02)" xlink:href="#blue_gradient_square"/><use width="53.36" height="53.36" transform="translate(83.63 384.67) scale(1.03)" xlink:href="#New_Symbol"/><use width="53.36" height="53.36" transform="translate(28.75 329.79) scale(1.03)" xlink:href="#New_Symbol"/><use width="54" height="54" transform="translate(83.63 329.79) scale(1.02)" xlink:href="#blue_gradient_square"/><use width="54" height="54" transform="translate(138.5 54.85) scale(1.02)" xlink:href="#blue_gradient_square"/><use width="53.36" height="53.36" transform="translate(193.38 54.85) scale(1.03)" xlink:href="#New_Symbol"/><use width="53.36" height="53.36" transform="translate(138.5 -0.03) scale(1.03)" xlink:href="#New_Symbol"/><use width="54" height="54" transform="translate(193.38 -0.03) scale(1.02)" xlink:href="#blue_gradient_square"/><use width="54" height="54" transform="translate(138.5 164.88) scale(1.02)" xlink:href="#blue_gradient_square"/><use width="53.36" height="53.36" transform="translate(193.38 164.88) scale(1.03)" xlink:href="#New_Symbol"/><use width="53.36" height="53.36" transform="translate(138.5 110.01) scale(1.03)" xlink:href="#New_Symbol"/><use width="54" height="54" transform="translate(193.38 110.01) scale(1.02)" xlink:href="#blue_gradient_square"/><use width="54" height="54" transform="translate(138.5 274.63) scale(1.02)" xlink:href="#blue_gradient_square"/><use width="53.36" height="53.36" transform="translate(193.38 274.63) scale(1.03)" xlink:href="#New_Symbol"/><use width="53.36" height="53.36" transform="translate(138.5 219.76) scale(1.03)" xlink:href="#New_Symbol"/><use width="54" height="54" transform="translate(193.38 219.76) scale(1.02)" xlink:href="#blue_gradient_square"/><use width="54" height="54" transform="translate(138.5 384.67) scale(1.02)" xlink:href="#blue_gradient_square"/><use width="53.36" height="53.36" transform="translate(193.38 384.67) scale(1.03)" xlink:href="#New_Symbol"/><use width="53.36" height="53.36" transform="translate(138.5 329.79) scale(1.03)" xlink:href="#New_Symbol"/><use width="54" height="54" transform="translate(193.38 329.79) scale(1.02)" xlink:href="#blue_gradient_square"/><use width="54" height="54" transform="translate(248.25 54.85) scale(1.02)" xlink:href="#blue_gradient_square"/><use width="53.36" height="53.36" transform="translate(303.13 54.85) scale(1.03)" xlink:href="#New_Symbol"/><use width="53.36" height="53.36" transform="translate(248.25 -0.03) scale(1.03)" xlink:href="#New_Symbol"/><use width="54" height="54" transform="translate(303.13 -0.03) scale(1.02)" xlink:href="#blue_gradient_square"/><use width="54" height="54" transform="translate(248.25 164.88) scale(1.02)" xlink:href="#blue_gradient_square"/><use width="53.36" height="53.36" transform="translate(303.13 164.88) scale(1.03)" xlink:href="#New_Symbol"/><use width="53.36" height="53.36" transform="translate(248.25 110.01) scale(1.03)" xlink:href="#New_Symbol"/><use width="54" height="54" transform="translate(303.13 110.01) scale(1.02)" xlink:href="#blue_gradient_square"/><use width="54" height="54" transform="translate(248.25 274.63) scale(1.02)" xlink:href="#blue_gradient_square"/><use width="53.36" height="53.36" transform="translate(303.13 274.63) scale(1.03)" xlink:href="#New_Symbol"/><use width="53.36" height="53.36" transform="translate(248.25 219.76) scale(1.03)" xlink:href="#New_Symbol"/><use width="54" height="54" transform="translate(303.13 219.76) scale(1.02)" xlink:href="#blue_gradient_square"/><use width="54" height="54" transform="translate(248.25 384.67) scale(1.02)" xlink:href="#blue_gradient_square"/><use width="53.36" height="53.36" transform="translate(303.13 384.67) scale(1.03)" xlink:href="#New_Symbol"/><use width="53.36" height="53.36" transform="translate(248.25 329.79) scale(1.03)" xlink:href="#New_Symbol"/><use width="54" height="54" transform="translate(303.13 329.79) scale(1.02)" xlink:href="#blue_gradient_square"/><use width="53.36" height="53.36" transform="translate(-26.12 494.42) scale(1.03)" xlink:href="#New_Symbol"/><use width="54" height="54" transform="translate(-26.12 439.54) scale(1.02)" xlink:href="#blue_gradient_square"/><use width="53.36" height="53.36" transform="translate(-26.12 604.45) scale(1.03)" xlink:href="#New_Symbol"/><use width="54" height="54" transform="translate(-26.12 549.58) scale(1.02)" xlink:href="#blue_gradient_square"/><use width="53.36" height="53.36" transform="translate(-26.12 714.2) scale(1.03)" xlink:href="#New_Symbol"/><use width="54" height="54" transform="translate(-26.12 659.33) scale(1.02)" xlink:href="#blue_gradient_square"/><use width="53.36" height="53.36" transform="translate(-26.12 824.24) scale(1.03)" xlink:href="#New_Symbol"/><use width="54" height="54" transform="translate(-26.12 769.37) scale(1.02)" xlink:href="#blue_gradient_square"/><use width="54" height="54" transform="translate(28.75 494.42) scale(1.02)" xlink:href="#blue_gradient_square"/><use width="53.36" height="53.36" transform="translate(83.63 494.42) scale(1.03)" xlink:href="#New_Symbol"/><use width="53.36" height="53.36" transform="translate(28.75 439.54) scale(1.03)" xlink:href="#New_Symbol"/><use width="54" height="54" transform="translate(83.63 439.54) scale(1.02)" xlink:href="#blue_gradient_square"/><use width="54" height="54" transform="translate(28.75 604.45) scale(1.02)" xlink:href="#blue_gradient_square"/><use width="53.36" height="53.36" transform="translate(83.63 604.45) scale(1.03)" xlink:href="#New_Symbol"/><use width="53.36" height="53.36" transform="translate(28.75 549.58) scale(1.03)" xlink:href="#New_Symbol"/><use width="54" height="54" transform="translate(83.63 549.58) scale(1.02)" xlink:href="#blue_gradient_square"/><use width="54" height="54" transform="translate(28.75 714.2) scale(1.02)" xlink:href="#blue_gradient_square"/><use width="53.36" height="53.36" transform="translate(83.63 714.2) scale(1.03)" xlink:href="#New_Symbol"/><use width="53.36" height="53.36" transform="translate(28.75 659.33) scale(1.03)" xlink:href="#New_Symbol"/><use width="54" height="54" transform="translate(83.63 659.33) scale(1.02)" xlink:href="#blue_gradient_square"/><use width="54" height="54" transform="translate(28.75 824.24) scale(1.02)" xlink:href="#blue_gradient_square"/><use width="53.36" height="53.36" transform="translate(83.63 824.24) scale(1.03)" xlink:href="#New_Symbol"/><use width="53.36" height="53.36" transform="translate(28.75 769.37) scale(1.03)" xlink:href="#New_Symbol"/><use width="54" height="54" transform="translate(83.63 769.37) scale(1.02)" xlink:href="#blue_gradient_square"/><use width="54" height="54" transform="translate(138.5 494.42) scale(1.02)" xlink:href="#blue_gradient_square"/><use width="53.36" height="53.36" transform="translate(193.38 494.42) scale(1.03)" xlink:href="#New_Symbol"/><use width="53.36" height="53.36" transform="translate(138.5 439.54) scale(1.03)" xlink:href="#New_Symbol"/><use width="54" height="54" transform="translate(193.38 439.54) scale(1.02)" xlink:href="#blue_gradient_square"/><use width="54" height="54" transform="translate(138.5 604.45) scale(1.02)" xlink:href="#blue_gradient_square"/><use width="53.36" height="53.36" transform="translate(193.38 604.45) scale(1.03)" xlink:href="#New_Symbol"/><use width="53.36" height="53.36" transform="translate(138.5 549.58) scale(1.03)" xlink:href="#New_Symbol"/><use width="54" height="54" transform="translate(193.38 549.58) scale(1.02)" xlink:href="#blue_gradient_square"/><use width="54" height="54" transform="translate(138.5 714.2) scale(1.02)" xlink:href="#blue_gradient_square"/><use width="53.36" height="53.36" transform="translate(193.38 714.2) scale(1.03)" xlink:href="#New_Symbol"/><use width="53.36" height="53.36" transform="translate(138.5 659.33) scale(1.03)" xlink:href="#New_Symbol"/><use width="54" height="54" transform="translate(193.38 659.33) scale(1.02)" xlink:href="#blue_gradient_square"/><use width="54" height="54" transform="translate(138.5 824.24) scale(1.02)" xlink:href="#blue_gradient_square"/><use width="53.36" height="53.36" transform="translate(193.38 824.24) scale(1.03)" xlink:href="#New_Symbol"/><use width="53.36" height="53.36" transform="translate(138.5 769.37) scale(1.03)" xlink:href="#New_Symbol"/><use width="54" height="54" transform="translate(193.38 769.37) scale(1.02)" xlink:href="#blue_gradient_square"/><use width="54" height="54" transform="translate(248.25 494.42) scale(1.02)" xlink:href="#blue_gradient_square"/><use width="53.36" height="53.36" transform="translate(303.13 494.42) scale(1.03)" xlink:href="#New_Symbol"/><use width="53.36" height="53.36" transform="translate(248.25 439.54) scale(1.03)" xlink:href="#New_Symbol"/><use width="54" height="54" transform="translate(303.13 439.54) scale(1.02)" xlink:href="#blue_gradient_square"/><use width="54" height="54" transform="translate(248.25 604.45) scale(1.02)" xlink:href="#blue_gradient_square"/><use width="53.36" height="53.36" transform="translate(303.13 604.45) scale(1.03)" xlink:href="#New_Symbol"/><use width="53.36" height="53.36" transform="translate(248.25 549.58) scale(1.03)" xlink:href="#New_Symbol"/><use width="54" height="54" transform="translate(303.13 549.58) scale(1.02)" xlink:href="#blue_gradient_square"/><use width="54" height="54" transform="translate(248.25 714.2) scale(1.02)" xlink:href="#blue_gradient_square"/><use width="53.36" height="53.36" transform="translate(303.13 714.2) scale(1.03)" xlink:href="#New_Symbol"/><use width="53.36" height="53.36" transform="translate(248.25 659.33) scale(1.03)" xlink:href="#New_Symbol"/><use width="54" height="54" transform="translate(303.13 659.33) scale(1.02)" xlink:href="#blue_gradient_square"/><use width="54" height="54" transform="translate(248.25 824.24) scale(1.02)" xlink:href="#blue_gradient_square"/><use width="53.36" height="53.36" transform="translate(303.13 824.24) scale(1.03)" xlink:href="#New_Symbol"/><use width="53.36" height="53.36" transform="translate(248.25 769.37) scale(1.03)" xlink:href="#New_Symbol"/><use width="54" height="54" transform="translate(303.13 769.37) scale(1.02)" xlink:href="#blue_gradient_square"/><use width="53.36" height="53.36" transform="translate(-26.12 933.99) scale(1.03)" xlink:href="#New_Symbol"/><use width="54" height="54" transform="translate(-26.12 879.12) scale(1.02)" xlink:href="#blue_gradient_square"/><use width="54" height="54" transform="translate(-26.12 989.15) scale(1.02)" xlink:href="#blue_gradient_square"/><use width="54" height="54" transform="translate(28.75 933.99) scale(1.02)" xlink:href="#blue_gradient_square"/><use width="53.36" height="53.36" transform="translate(83.63 933.99) scale(1.03)" xlink:href="#New_Symbol"/><use width="53.36" height="53.36" transform="translate(28.75 879.12) scale(1.03)" xlink:href="#New_Symbol"/><use width="54" height="54" transform="translate(83.63 879.12) scale(1.02)" xlink:href="#blue_gradient_square"/><use width="53.36" height="53.36" transform="translate(28.75 989.15) scale(1.03)" xlink:href="#New_Symbol"/><use width="54" height="54" transform="translate(83.63 989.15) scale(1.02)" xlink:href="#blue_gradient_square"/><use width="54" height="54" transform="translate(138.5 933.99) scale(1.02)" xlink:href="#blue_gradient_square"/><use width="53.36" height="53.36" transform="translate(193.38 933.99) scale(1.03)" xlink:href="#New_Symbol"/><use width="53.36" height="53.36" transform="translate(138.5 879.12) scale(1.03)" xlink:href="#New_Symbol"/><use width="54" height="54" transform="translate(193.38 879.12) scale(1.02)" xlink:href="#blue_gradient_square"/><use width="53.36" height="53.36" transform="translate(138.5 989.15) scale(1.03)" xlink:href="#New_Symbol"/><use width="54" height="54" transform="translate(193.38 989.15) scale(1.02)" xlink:href="#blue_gradient_square"/><use width="54" height="54" transform="translate(248.25 933.99) scale(1.02)" xlink:href="#blue_gradient_square"/><use width="53.36" height="53.36" transform="translate(303.13 933.99) scale(1.03)" xlink:href="#New_Symbol"/><use width="53.36" height="53.36" transform="translate(248.25 879.12) scale(1.03)" xlink:href="#New_Symbol"/><use width="54" height="54" transform="translate(303.13 879.12) scale(1.02)" xlink:href="#blue_gradient_square"/><use width="53.36" height="53.36" transform="translate(248.25 989.15) scale(1.03)" xlink:href="#New_Symbol"/><use width="54" height="54" transform="translate(303.13 989.15) scale(1.02)" xlink:href="#blue_gradient_square"/></g></g><g class="cls-6"><g class="cls-7"><use width="54" height="54" transform="translate(878 54.85) scale(1.02)" xlink:href="#blue_gradient_square"/><use width="53.36" height="53.36" transform="translate(932.88 54.85) scale(1.03)" xlink:href="#New_Symbol"/><use width="53.36" height="53.36" transform="translate(878 -0.03) scale(1.03)" xlink:href="#New_Symbol"/><use width="54" height="54" transform="translate(932.88 -0.03) scale(1.02)" xlink:href="#blue_gradient_square"/><use width="54" height="54" transform="translate(878 164.88) scale(1.02)" xlink:href="#blue_gradient_square"/><use width="53.36" height="53.36" transform="translate(932.88 164.88) scale(1.03)" xlink:href="#New_Symbol"/><use width="53.36" height="53.36" transform="translate(878 110.01) scale(1.03)" xlink:href="#New_Symbol"/><use width="54" height="54" transform="translate(932.88 110.01) scale(1.02)" xlink:href="#blue_gradient_square"/><use width="54" height="54" transform="translate(878 274.63) scale(1.02)" xlink:href="#blue_gradient_square"/><use width="53.36" height="53.36" transform="translate(932.88 274.63) scale(1.03)" xlink:href="#New_Symbol"/><use width="53.36" height="53.36" transform="translate(878 219.76) scale(1.03)" xlink:href="#New_Symbol"/><use width="54" height="54" transform="translate(932.88 219.76) scale(1.02)" xlink:href="#blue_gradient_square"/><use width="54" height="54" transform="translate(878 384.67) scale(1.02)" xlink:href="#blue_gradient_square"/><use width="53.36" height="53.36" transform="translate(932.88 384.67) scale(1.03)" xlink:href="#New_Symbol"/><use width="53.36" height="53.36" transform="translate(878 329.79) scale(1.03)" xlink:href="#New_Symbol"/><use width="54" height="54" transform="translate(932.88 329.79) scale(1.02)" xlink:href="#blue_gradient_square"/><use width="54" height="54" transform="translate(987.75 54.85) scale(1.02)" xlink:href="#blue_gradient_square"/><use width="53.36" height="53.36" transform="translate(1042.63 54.85) scale(1.03)" xlink:href="#New_Symbol"/><use width="53.36" height="53.36" transform="translate(987.75 -0.03) scale(1.03)" xlink:href="#New_Symbol"/><use width="54" height="54" transform="translate(1042.63 -0.03) scale(1.02)" xlink:href="#blue_gradient_square"/><use width="54" height="54" transform="translate(987.75 164.88) scale(1.02)" xlink:href="#blue_gradient_square"/><use width="53.36" height="53.36" transform="translate(1042.63 164.88) scale(1.03)" xlink:href="#New_Symbol"/><use width="53.36" height="53.36" transform="translate(987.75 110.01) scale(1.03)" xlink:href="#New_Symbol"/><use width="54" height="54" transform="translate(1042.63 110.01) scale(1.02)" xlink:href="#blue_gradient_square"/><use width="54" height="54" transform="translate(987.75 274.63) scale(1.02)" xlink:href="#blue_gradient_square"/><use width="53.36" height="53.36" transform="translate(1042.63 274.63) scale(1.03)" xlink:href="#New_Symbol"/><use width="53.36" height="53.36" transform="translate(987.75 219.76) scale(1.03)" xlink:href="#New_Symbol"/><use width="54" height="54" transform="translate(1042.63 219.76) scale(1.02)" xlink:href="#blue_gradient_square"/><use width="54" height="54" transform="translate(987.75 384.67) scale(1.02)" xlink:href="#blue_gradient_square"/><use width="53.36" height="53.36" transform="translate(1042.63 384.67) scale(1.03)" xlink:href="#New_Symbol"/><use width="53.36" height="53.36" transform="translate(987.75 329.79) scale(1.03)" xlink:href="#New_Symbol"/><use width="54" height="54" transform="translate(1042.63 329.79) scale(1.02)" xlink:href="#blue_gradient_square"/><use width="54" height="54" transform="translate(1097.5 54.85) scale(1.02)" xlink:href="#blue_gradient_square"/><use width="53.36" height="53.36" transform="translate(1152.38 54.85) scale(1.03)" xlink:href="#New_Symbol"/><use width="53.36" height="53.36" transform="translate(1097.5 -0.03) scale(1.03)" xlink:href="#New_Symbol"/><use width="54" height="54" transform="translate(1152.38 -0.03) scale(1.02)" xlink:href="#blue_gradient_square"/><use width="54" height="54" transform="translate(1097.5 164.88) scale(1.02)" xlink:href="#blue_gradient_square"/><use width="53.36" height="53.36" transform="translate(1152.38 164.88) scale(1.03)" xlink:href="#New_Symbol"/><use width="53.36" height="53.36" transform="translate(1097.5 110.01) scale(1.03)" xlink:href="#New_Symbol"/><use width="54" height="54" transform="translate(1152.38 110.01) scale(1.02)" xlink:href="#blue_gradient_square"/><use width="54" height="54" transform="translate(1097.5 274.63) scale(1.02)" xlink:href="#blue_gradient_square"/><use width="53.36" height="53.36" transform="translate(1152.38 274.63) scale(1.03)" xlink:href="#New_Symbol"/><use width="53.36" height="53.36" transform="translate(1097.5 219.76) scale(1.03)" xlink:href="#New_Symbol"/><use width="54" height="54" transform="translate(1152.38 219.76) scale(1.02)" xlink:href="#blue_gradient_square"/><use width="54" height="54" transform="translate(1097.5 384.67) scale(1.02)" xlink:href="#blue_gradient_square"/><use width="53.36" height="53.36" transform="translate(1152.38 384.67) scale(1.03)" xlink:href="#New_Symbol"/><use width="53.36" height="53.36" transform="translate(1097.5 329.79) scale(1.03)" xlink:href="#New_Symbol"/><use width="54" height="54" transform="translate(1152.38 329.79) scale(1.02)" xlink:href="#blue_gradient_square"/><use width="54" height="54" transform="translate(1207.25 54.85) scale(1.02)" xlink:href="#blue_gradient_square"/><use width="53.36" height="53.36" transform="translate(1262.13 54.85) scale(1.03)" xlink:href="#New_Symbol"/><use width="53.36" height="53.36" transform="translate(1207.25 -0.03) scale(1.03)" xlink:href="#New_Symbol"/><use width="54" height="54" transform="translate(1262.13 -0.03) scale(1.02)" xlink:href="#blue_gradient_square"/><use width="54" height="54" transform="translate(1207.25 164.88) scale(1.02)" xlink:href="#blue_gradient_square"/><use width="53.36" height="53.36" transform="translate(1262.13 164.88) scale(1.03)" xlink:href="#New_Symbol"/><use width="53.36" height="53.36" transform="translate(1207.25 110.01) scale(1.03)" xlink:href="#New_Symbol"/><use width="54" height="54" transform="translate(1262.13 110.01) scale(1.02)" xlink:href="#blue_gradient_square"/><use width="54" height="54" transform="translate(1207.25 274.63) scale(1.02)" xlink:href="#blue_gradient_square"/><use width="53.36" height="53.36" transform="translate(1262.13 274.63) scale(1.03)" xlink:href="#New_Symbol"/><use width="53.36" height="53.36" transform="translate(1207.25 219.76) scale(1.03)" xlink:href="#New_Symbol"/><use width="54" height="54" transform="translate(1262.13 219.76) scale(1.02)" xlink:href="#blue_gradient_square"/><use width="54" height="54" transform="translate(1207.25 384.67) scale(1.02)" xlink:href="#blue_gradient_square"/><use width="53.36" height="53.36" transform="translate(1262.13 384.67) scale(1.03)" xlink:href="#New_Symbol"/><use width="53.36" height="53.36" transform="translate(1207.25 329.79) scale(1.03)" xlink:href="#New_Symbol"/><use width="54" height="54" transform="translate(1262.13 329.79) scale(1.02)" xlink:href="#blue_gradient_square"/><use width="54" height="54" transform="translate(878 494.42) scale(1.02)" xlink:href="#blue_gradient_square"/><use width="53.36" height="53.36" transform="translate(932.88 494.42) scale(1.03)" xlink:href="#New_Symbol"/><use width="53.36" height="53.36" transform="translate(878 439.54) scale(1.03)" xlink:href="#New_Symbol"/><use width="54" height="54" transform="translate(932.88 439.54) scale(1.02)" xlink:href="#blue_gradient_square"/><use width="54" height="54" transform="translate(878 604.45) scale(1.02)" xlink:href="#blue_gradient_square"/><use width="53.36" height="53.36" transform="translate(932.88 604.45) scale(1.03)" xlink:href="#New_Symbol"/><use width="53.36" height="53.36" transform="translate(878 549.58) scale(1.03)" xlink:href="#New_Symbol"/><use width="54" height="54" transform="translate(932.88 549.58) scale(1.02)" xlink:href="#blue_gradient_square"/><use width="54" height="54" transform="translate(878 714.2) scale(1.02)" xlink:href="#blue_gradient_square"/><use width="53.36" height="53.36" transform="translate(932.88 714.2) scale(1.03)" xlink:href="#New_Symbol"/><use width="53.36" height="53.36" transform="translate(878 659.33) scale(1.03)" xlink:href="#New_Symbol"/><use width="54" height="54" transform="translate(932.88 659.33) scale(1.02)" xlink:href="#blue_gradient_square"/><use width="54" height="54" transform="translate(878 824.24) scale(1.02)" xlink:href="#blue_gradient_square"/><use width="53.36" height="53.36" transform="translate(932.88 824.24) scale(1.03)" xlink:href="#New_Symbol"/><use width="53.36" height="53.36" transform="translate(878 769.37) scale(1.03)" xlink:href="#New_Symbol"/><use width="54" height="54" transform="translate(932.88 769.37) scale(1.02)" xlink:href="#blue_gradient_square"/><use width="54" height="54" transform="translate(987.75 494.42) scale(1.02)" xlink:href="#blue_gradient_square"/><use width="53.36" height="53.36" transform="translate(1042.63 494.42) scale(1.03)" xlink:href="#New_Symbol"/><use width="53.36" height="53.36" transform="translate(987.75 439.54) scale(1.03)" xlink:href="#New_Symbol"/><use width="54" height="54" transform="translate(1042.63 439.54) scale(1.02)" xlink:href="#blue_gradient_square"/><use width="54" height="54" transform="translate(987.75 604.45) scale(1.02)" xlink:href="#blue_gradient_square"/><use width="53.36" height="53.36" transform="translate(1042.63 604.45) scale(1.03)" xlink:href="#New_Symbol"/><use width="53.36" height="53.36" transform="translate(987.75 549.58) scale(1.03)" xlink:href="#New_Symbol"/><use width="54" height="54" transform="translate(1042.63 549.58) scale(1.02)" xlink:href="#blue_gradient_square"/><use width="54" height="54" transform="translate(987.75 714.2) scale(1.02)" xlink:href="#blue_gradient_square"/><use width="53.36" height="53.36" transform="translate(1042.63 714.2) scale(1.03)" xlink:href="#New_Symbol"/><use width="53.36" height="53.36" transform="translate(987.75 659.33) scale(1.03)" xlink:href="#New_Symbol"/><use width="54" height="54" transform="translate(1042.63 659.33) scale(1.02)" xlink:href="#blue_gradient_square"/><use width="54" height="54" transform="translate(987.75 824.24) scale(1.02)" xlink:href="#blue_gradient_square"/><use width="53.36" height="53.36" transform="translate(1042.63 824.24) scale(1.03)" xlink:href="#New_Symbol"/><use width="53.36" height="53.36" transform="translate(987.75 769.37) scale(1.03)" xlink:href="#New_Symbol"/><use width="54" height="54" transform="translate(1042.63 769.37) scale(1.02)" xlink:href="#blue_gradient_square"/><use width="54" height="54" transform="translate(1097.5 494.42) scale(1.02)" xlink:href="#blue_gradient_square"/><use width="53.36" height="53.36" transform="translate(1152.38 494.42) scale(1.03)" xlink:href="#New_Symbol"/><use width="53.36" height="53.36" transform="translate(1097.5 439.54) scale(1.03)" xlink:href="#New_Symbol"/><use width="54" height="54" transform="translate(1152.38 439.54) scale(1.02)" xlink:href="#blue_gradient_square"/><use width="54" height="54" transform="translate(1097.5 604.45) scale(1.02)" xlink:href="#blue_gradient_square"/><use width="53.36" height="53.36" transform="translate(1152.38 604.45) scale(1.03)" xlink:href="#New_Symbol"/><use width="53.36" height="53.36" transform="translate(1097.5 549.58) scale(1.03)" xlink:href="#New_Symbol"/><use width="54" height="54" transform="translate(1152.38 549.58) scale(1.02)" xlink:href="#blue_gradient_square"/><use width="54" height="54" transform="translate(1097.5 714.2) scale(1.02)" xlink:href="#blue_gradient_square"/><use width="53.36" height="53.36" transform="translate(1152.38 714.2) scale(1.03)" xlink:href="#New_Symbol"/><use width="53.36" height="53.36" transform="translate(1097.5 659.33) scale(1.03)" xlink:href="#New_Symbol"/><use width="54" height="54" transform="translate(1152.38 659.33) scale(1.02)" xlink:href="#blue_gradient_square"/><use width="54" height="54" transform="translate(1097.5 824.24) scale(1.02)" xlink:href="#blue_gradient_square"/><use width="53.36" height="53.36" transform="translate(1152.38 824.24) scale(1.03)" xlink:href="#New_Symbol"/><use width="53.36" height="53.36" transform="translate(1097.5 769.37) scale(1.03)" xlink:href="#New_Symbol"/><use width="54" height="54" transform="translate(1152.38 769.37) scale(1.02)" xlink:href="#blue_gradient_square"/><use width="54" height="54" transform="translate(1207.25 494.42) scale(1.02)" xlink:href="#blue_gradient_square"/><use width="53.36" height="53.36" transform="translate(1262.13 494.42) scale(1.03)" xlink:href="#New_Symbol"/><use width="53.36" height="53.36" transform="translate(1207.25 439.54) scale(1.03)" xlink:href="#New_Symbol"/><use width="54" height="54" transform="translate(1262.13 439.54) scale(1.02)" xlink:href="#blue_gradient_square"/><use width="54" height="54" transform="translate(1207.25 604.45) scale(1.02)" xlink:href="#blue_gradient_square"/><use width="53.36" height="53.36" transform="translate(1262.13 604.45) scale(1.03)" xlink:href="#New_Symbol"/><use width="53.36" height="53.36" transform="translate(1207.25 549.58) scale(1.03)" xlink:href="#New_Symbol"/><use width="54" height="54" transform="translate(1262.13 549.58) scale(1.02)" xlink:href="#blue_gradient_square"/><use width="54" height="54" transform="translate(1207.25 714.2) scale(1.02)" xlink:href="#blue_gradient_square"/><use width="53.36" height="53.36" transform="translate(1262.13 714.2) scale(1.03)" xlink:href="#New_Symbol"/><use width="53.36" height="53.36" transform="translate(1207.25 659.33) scale(1.03)" xlink:href="#New_Symbol"/><use width="54" height="54" transform="translate(1262.13 659.33) scale(1.02)" xlink:href="#blue_gradient_square"/><use width="54" height="54" transform="translate(1207.25 824.24) scale(1.02)" xlink:href="#blue_gradient_square"/><use width="53.36" height="53.36" transform="translate(1262.13 824.24) scale(1.03)" xlink:href="#New_Symbol"/><use width="53.36" height="53.36" transform="translate(1207.25 769.37) scale(1.03)" xlink:href="#New_Symbol"/><use width="54" height="54" transform="translate(1262.13 769.37) scale(1.02)" xlink:href="#blue_gradient_square"/><use width="54" height="54" transform="translate(1317 54.85) scale(1.02)" xlink:href="#blue_gradient_square"/><use width="53.36" height="53.36" transform="translate(1371.88 54.85) scale(1.03)" xlink:href="#New_Symbol"/><use width="53.36" height="53.36" transform="translate(1317 -0.03) scale(1.03)" xlink:href="#New_Symbol"/><use width="54" height="54" transform="translate(1371.88 -0.03) scale(1.02)" xlink:href="#blue_gradient_square"/><use width="54" height="54" transform="translate(1317 164.88) scale(1.02)" xlink:href="#blue_gradient_square"/><use width="53.36" height="53.36" transform="translate(1371.88 164.88) scale(1.03)" xlink:href="#New_Symbol"/><use width="53.36" height="53.36" transform="translate(1317 110.01) scale(1.03)" xlink:href="#New_Symbol"/><use width="54" height="54" transform="translate(1371.88 110.01) scale(1.02)" xlink:href="#blue_gradient_square"/><use width="54" height="54" transform="translate(1317 274.63) scale(1.02)" xlink:href="#blue_gradient_square"/><use width="53.36" height="53.36" transform="translate(1371.88 274.63) scale(1.03)" xlink:href="#New_Symbol"/><use width="53.36" height="53.36" transform="translate(1317 219.76) scale(1.03)" xlink:href="#New_Symbol"/><use width="54" height="54" transform="translate(1371.88 219.76) scale(1.02)" xlink:href="#blue_gradient_square"/><use width="54" height="54" transform="translate(1317 384.67) scale(1.02)" xlink:href="#blue_gradient_square"/><use width="53.36" height="53.36" transform="translate(1371.88 384.67) scale(1.03)" xlink:href="#New_Symbol"/><use width="53.36" height="53.36" transform="translate(1317 329.79) scale(1.03)" xlink:href="#New_Symbol"/><use width="54" height="54" transform="translate(1371.88 329.79) scale(1.02)" xlink:href="#blue_gradient_square"/><use width="54" height="54" transform="translate(1426.75 54.85) scale(1.02)" xlink:href="#blue_gradient_square"/><use width="53.36" height="53.36" transform="translate(1481.63 54.85) scale(1.03)" xlink:href="#New_Symbol"/><use width="53.36" height="53.36" transform="translate(1426.75 -0.03) scale(1.03)" xlink:href="#New_Symbol"/><use width="54" height="54" transform="translate(1481.63 -0.03) scale(1.02)" xlink:href="#blue_gradient_square"/><use width="54" height="54" transform="translate(1426.75 164.88) scale(1.02)" xlink:href="#blue_gradient_square"/><use width="53.36" height="53.36" transform="translate(1481.63 164.88) scale(1.03)" xlink:href="#New_Symbol"/><use width="53.36" height="53.36" transform="translate(1426.75 110.01) scale(1.03)" xlink:href="#New_Symbol"/><use width="54" height="54" transform="translate(1481.63 110.01) scale(1.02)" xlink:href="#blue_gradient_square"/><use width="54" height="54" transform="translate(1426.75 274.63) scale(1.02)" xlink:href="#blue_gradient_square"/><use width="53.36" height="53.36" transform="translate(1481.63 274.63) scale(1.03)" xlink:href="#New_Symbol"/><use width="53.36" height="53.36" transform="translate(1426.75 219.76) scale(1.03)" xlink:href="#New_Symbol"/><use width="54" height="54" transform="translate(1481.63 219.76) scale(1.02)" xlink:href="#blue_gradient_square"/><use width="54" height="54" transform="translate(1426.75 384.67) scale(1.02)" xlink:href="#blue_gradient_square"/><use width="53.36" height="53.36" transform="translate(1481.63 384.67) scale(1.03)" xlink:href="#New_Symbol"/><use width="53.36" height="53.36" transform="translate(1426.75 329.79) scale(1.03)" xlink:href="#New_Symbol"/><use width="54" height="54" transform="translate(1481.63 329.79) scale(1.02)" xlink:href="#blue_gradient_square"/><use width="54" height="54" transform="translate(1536.5 54.85) scale(1.02)" xlink:href="#blue_gradient_square"/><use width="53.36" height="53.36" transform="translate(1591.38 54.85) scale(1.03)" xlink:href="#New_Symbol"/><use width="53.36" height="53.36" transform="translate(1536.5 -0.03) scale(1.03)" xlink:href="#New_Symbol"/><use width="54" height="54" transform="translate(1591.38 -0.03) scale(1.02)" xlink:href="#blue_gradient_square"/><use width="54" height="54" transform="translate(1536.5 164.88) scale(1.02)" xlink:href="#blue_gradient_square"/><use width="53.36" height="53.36" transform="translate(1591.38 164.88) scale(1.03)" xlink:href="#New_Symbol"/><use width="53.36" height="53.36" transform="translate(1536.5 110.01) scale(1.03)" xlink:href="#New_Symbol"/><use width="54" height="54" transform="translate(1591.38 110.01) scale(1.02)" xlink:href="#blue_gradient_square"/><use width="54" height="54" transform="translate(1536.5 274.63) scale(1.02)" xlink:href="#blue_gradient_square"/><use width="53.36" height="53.36" transform="translate(1591.38 274.63) scale(1.03)" xlink:href="#New_Symbol"/><use width="53.36" height="53.36" transform="translate(1536.5 219.76) scale(1.03)" xlink:href="#New_Symbol"/><use width="54" height="54" transform="translate(1591.38 219.76) scale(1.02)" xlink:href="#blue_gradient_square"/><use width="54" height="54" transform="translate(1536.5 384.67) scale(1.02)" xlink:href="#blue_gradient_square"/><use width="53.36" height="53.36" transform="translate(1591.38 384.67) scale(1.03)" xlink:href="#New_Symbol"/><use width="53.36" height="53.36" transform="translate(1536.5 329.79) scale(1.03)" xlink:href="#New_Symbol"/><use width="54" height="54" transform="translate(1591.38 329.79) scale(1.02)" xlink:href="#blue_gradient_square"/><use width="54" height="54" transform="translate(1646.25 54.85) scale(1.02)" xlink:href="#blue_gradient_square"/><use width="53.36" height="53.36" transform="translate(1701.13 54.85) scale(1.03)" xlink:href="#New_Symbol"/><use width="53.36" height="53.36" transform="translate(1646.25 -0.03) scale(1.03)" xlink:href="#New_Symbol"/><use width="54" height="54" transform="translate(1701.13 -0.03) scale(1.02)" xlink:href="#blue_gradient_square"/><use width="54" height="54" transform="translate(1646.25 164.88) scale(1.02)" xlink:href="#blue_gradient_square"/><use width="53.36" height="53.36" transform="translate(1701.13 164.88) scale(1.03)" xlink:href="#New_Symbol"/><use width="53.36" height="53.36" transform="translate(1646.25 110.01) scale(1.03)" xlink:href="#New_Symbol"/><use width="54" height="54" transform="translate(1701.13 110.01) scale(1.02)" xlink:href="#blue_gradient_square"/><use width="54" height="54" transform="translate(1646.25 274.63) scale(1.02)" xlink:href="#blue_gradient_square"/><use width="53.36" height="53.36" transform="translate(1701.13 274.63) scale(1.03)" xlink:href="#New_Symbol"/><use width="53.36" height="53.36" transform="translate(1646.25 219.76) scale(1.03)" xlink:href="#New_Symbol"/><use width="54" height="54" transform="translate(1701.13 219.76) scale(1.02)" xlink:href="#blue_gradient_square"/><use width="54" height="54" transform="translate(1646.25 384.67) scale(1.02)" xlink:href="#blue_gradient_square"/><use width="53.36" height="53.36" transform="translate(1701.13 384.67) scale(1.03)" xlink:href="#New_Symbol"/><use width="53.36" height="53.36" transform="translate(1646.25 329.79) scale(1.03)" xlink:href="#New_Symbol"/><use width="54" height="54" transform="translate(1701.13 329.79) scale(1.02)" xlink:href="#blue_gradient_square"/><use width="54" height="54" transform="translate(1317 494.42) scale(1.02)" xlink:href="#blue_gradient_square"/><use width="53.36" height="53.36" transform="translate(1371.88 494.42) scale(1.03)" xlink:href="#New_Symbol"/><use width="53.36" height="53.36" transform="translate(1317 439.54) scale(1.03)" xlink:href="#New_Symbol"/><use width="54" height="54" transform="translate(1371.88 439.54) scale(1.02)" xlink:href="#blue_gradient_square"/><use width="54" height="54" transform="translate(1317 604.45) scale(1.02)" xlink:href="#blue_gradient_square"/><use width="53.36" height="53.36" transform="translate(1371.88 604.45) scale(1.03)" xlink:href="#New_Symbol"/><use width="53.36" height="53.36" transform="translate(1317 549.58) scale(1.03)" xlink:href="#New_Symbol"/><use width="54" height="54" transform="translate(1371.88 549.58) scale(1.02)" xlink:href="#blue_gradient_square"/><use width="54" height="54" transform="translate(1317 714.2) scale(1.02)" xlink:href="#blue_gradient_square"/><use width="53.36" height="53.36" transform="translate(1371.88 714.2) scale(1.03)" xlink:href="#New_Symbol"/><use width="53.36" height="53.36" transform="translate(1317 659.33) scale(1.03)" xlink:href="#New_Symbol"/><use width="54" height="54" transform="translate(1371.88 659.33) scale(1.02)" xlink:href="#blue_gradient_square"/><use width="54" height="54" transform="translate(1317 824.24) scale(1.02)" xlink:href="#blue_gradient_square"/><use width="53.36" height="53.36" transform="translate(1371.88 824.24) scale(1.03)" xlink:href="#New_Symbol"/><use width="53.36" height="53.36" transform="translate(1317 769.37) scale(1.03)" xlink:href="#New_Symbol"/><use width="54" height="54" transform="translate(1371.88 769.37) scale(1.02)" xlink:href="#blue_gradient_square"/><use width="54" height="54" transform="translate(1426.75 494.42) scale(1.02)" xlink:href="#blue_gradient_square"/><use width="53.36" height="53.36" transform="translate(1481.63 494.42) scale(1.03)" xlink:href="#New_Symbol"/><use width="53.36" height="53.36" transform="translate(1426.75 439.54) scale(1.03)" xlink:href="#New_Symbol"/><use width="54" height="54" transform="translate(1481.63 439.54) scale(1.02)" xlink:href="#blue_gradient_square"/><use width="54" height="54" transform="translate(1426.75 604.45) scale(1.02)" xlink:href="#blue_gradient_square"/><use width="53.36" height="53.36" transform="translate(1481.63 604.45) scale(1.03)" xlink:href="#New_Symbol"/><use width="53.36" height="53.36" transform="translate(1426.75 549.58) scale(1.03)" xlink:href="#New_Symbol"/><use width="54" height="54" transform="translate(1481.63 549.58) scale(1.02)" xlink:href="#blue_gradient_square"/><use width="54" height="54" transform="translate(1426.75 714.2) scale(1.02)" xlink:href="#blue_gradient_square"/><use width="53.36" height="53.36" transform="translate(1481.63 714.2) scale(1.03)" xlink:href="#New_Symbol"/><use width="53.36" height="53.36" transform="translate(1426.75 659.33) scale(1.03)" xlink:href="#New_Symbol"/><use width="54" height="54" transform="translate(1481.63 659.33) scale(1.02)" xlink:href="#blue_gradient_square"/><use width="54" height="54" transform="translate(1426.75 824.24) scale(1.02)" xlink:href="#blue_gradient_square"/><use width="53.36" height="53.36" transform="translate(1481.63 824.24) scale(1.03)" xlink:href="#New_Symbol"/><use width="53.36" height="53.36" transform="translate(1426.75 769.37) scale(1.03)" xlink:href="#New_Symbol"/><use width="54" height="54" transform="translate(1481.63 769.37) scale(1.02)" xlink:href="#blue_gradient_square"/><use width="54" height="54" transform="translate(1536.5 494.42) scale(1.02)" xlink:href="#blue_gradient_square"/><use width="53.36" height="53.36" transform="translate(1591.38 494.42) scale(1.03)" xlink:href="#New_Symbol"/><use width="53.36" height="53.36" transform="translate(1536.5 439.54) scale(1.03)" xlink:href="#New_Symbol"/><use width="54" height="54" transform="translate(1591.38 439.54) scale(1.02)" xlink:href="#blue_gradient_square"/><use width="54" height="54" transform="translate(1536.5 604.45) scale(1.02)" xlink:href="#blue_gradient_square"/><use width="53.36" height="53.36" transform="translate(1591.38 604.45) scale(1.03)" xlink:href="#New_Symbol"/><use width="53.36" height="53.36" transform="translate(1536.5 549.58) scale(1.03)" xlink:href="#New_Symbol"/><use width="54" height="54" transform="translate(1591.38 549.58) scale(1.02)" xlink:href="#blue_gradient_square"/><use width="54" height="54" transform="translate(1536.5 714.2) scale(1.02)" xlink:href="#blue_gradient_square"/><use width="53.36" height="53.36" transform="translate(1591.38 714.2) scale(1.03)" xlink:href="#New_Symbol"/><use width="53.36" height="53.36" transform="translate(1536.5 659.33) scale(1.03)" xlink:href="#New_Symbol"/><use width="54" height="54" transform="translate(1591.38 659.33) scale(1.02)" xlink:href="#blue_gradient_square"/><use width="54" height="54" transform="translate(1536.5 824.24) scale(1.02)" xlink:href="#blue_gradient_square"/><use width="53.36" height="53.36" transform="translate(1591.38 824.24) scale(1.03)" xlink:href="#New_Symbol"/><use width="53.36" height="53.36" transform="translate(1536.5 769.37) scale(1.03)" xlink:href="#New_Symbol"/><use width="54" height="54" transform="translate(1591.38 769.37) scale(1.02)" xlink:href="#blue_gradient_square"/><use width="54" height="54" transform="translate(1646.25 494.42) scale(1.02)" xlink:href="#blue_gradient_square"/><use width="53.36" height="53.36" transform="translate(1701.13 494.42) scale(1.03)" xlink:href="#New_Symbol"/><use width="53.36" height="53.36" transform="translate(1646.25 439.54) scale(1.03)" xlink:href="#New_Symbol"/><use width="54" height="54" transform="translate(1701.13 439.54) scale(1.02)" xlink:href="#blue_gradient_square"/><use width="54" height="54" transform="translate(1646.25 604.45) scale(1.02)" xlink:href="#blue_gradient_square"/><use width="53.36" height="53.36" transform="translate(1701.13 604.45) scale(1.03)" xlink:href="#New_Symbol"/><use width="53.36" height="53.36" transform="translate(1646.25 549.58) scale(1.03)" xlink:href="#New_Symbol"/><use width="54" height="54" transform="translate(1701.13 549.58) scale(1.02)" xlink:href="#blue_gradient_square"/><use width="54" height="54" transform="translate(1646.25 714.2) scale(1.02)" xlink:href="#blue_gradient_square"/><use width="53.36" height="53.36" transform="translate(1701.13 714.2) scale(1.03)" xlink:href="#New_Symbol"/><use width="53.36" height="53.36" transform="translate(1646.25 659.33) scale(1.03)" xlink:href="#New_Symbol"/><use width="54" height="54" transform="translate(1701.13 659.33) scale(1.02)" xlink:href="#blue_gradient_square"/><use width="54" height="54" transform="translate(1646.25 824.24) scale(1.02)" xlink:href="#blue_gradient_square"/><use width="53.36" height="53.36" transform="translate(1701.13 824.24) scale(1.03)" xlink:href="#New_Symbol"/><use width="53.36" height="53.36" transform="translate(1646.25 769.37) scale(1.03)" xlink:href="#New_Symbol"/><use width="54" height="54" transform="translate(1701.13 769.37) scale(1.02)" xlink:href="#blue_gradient_square"/><use width="54" height="54" transform="translate(0 54.85) scale(1.02)" xlink:href="#blue_gradient_square"/><use width="53.36" height="53.36" transform="translate(54.88 54.85) scale(1.03)" xlink:href="#New_Symbol"/><use width="53.36" height="53.36" transform="translate(0 -0.03) scale(1.03)" xlink:href="#New_Symbol"/><use width="54" height="54" transform="translate(54.88 -0.03) scale(1.02)" xlink:href="#blue_gradient_square"/><use width="54" height="54" transform="translate(0 164.88) scale(1.02)" xlink:href="#blue_gradient_square"/><use width="53.36" height="53.36" transform="translate(54.88 164.88) scale(1.03)" xlink:href="#New_Symbol"/><use width="53.36" height="53.36" transform="translate(0 110.01) scale(1.03)" xlink:href="#New_Symbol"/><use width="54" height="54" transform="translate(54.88 110.01) scale(1.02)" xlink:href="#blue_gradient_square"/><use width="54" height="54" transform="translate(0 274.63) scale(1.02)" xlink:href="#blue_gradient_square"/><use width="53.36" height="53.36" transform="translate(54.88 274.63) scale(1.03)" xlink:href="#New_Symbol"/><use width="53.36" height="53.36" transform="translate(0 219.76) scale(1.03)" xlink:href="#New_Symbol"/><use width="54" height="54" transform="translate(54.88 219.76) scale(1.02)" xlink:href="#blue_gradient_square"/><use width="54" height="54" transform="translate(0 384.67) scale(1.02)" xlink:href="#blue_gradient_square"/><use width="53.36" height="53.36" transform="translate(54.88 384.67) scale(1.03)" xlink:href="#New_Symbol"/><use width="53.36" height="53.36" transform="translate(0 329.79) scale(1.03)" xlink:href="#New_Symbol"/><use width="54" height="54" transform="translate(54.88 329.79) scale(1.02)" xlink:href="#blue_gradient_square"/><use width="54" height="54" transform="translate(109.75 54.85) scale(1.02)" xlink:href="#blue_gradient_square"/><use width="53.36" height="53.36" transform="translate(164.63 54.85) scale(1.03)" xlink:href="#New_Symbol"/><use width="53.36" height="53.36" transform="translate(109.75 -0.03) scale(1.03)" xlink:href="#New_Symbol"/><use width="54" height="54" transform="translate(164.63 -0.03) scale(1.02)" xlink:href="#blue_gradient_square"/><use width="54" height="54" transform="translate(109.75 164.88) scale(1.02)" xlink:href="#blue_gradient_square"/><use width="53.36" height="53.36" transform="translate(164.63 164.88) scale(1.03)" xlink:href="#New_Symbol"/><use width="53.36" height="53.36" transform="translate(109.75 110.01) scale(1.03)" xlink:href="#New_Symbol"/><use width="54" height="54" transform="translate(164.63 110.01) scale(1.02)" xlink:href="#blue_gradient_square"/><use width="54" height="54" transform="translate(109.75 274.63) scale(1.02)" xlink:href="#blue_gradient_square"/><use width="53.36" height="53.36" transform="translate(164.63 274.63) scale(1.03)" xlink:href="#New_Symbol"/><use width="53.36" height="53.36" transform="translate(109.75 219.76) scale(1.03)" xlink:href="#New_Symbol"/><use width="54" height="54" transform="translate(164.63 219.76) scale(1.02)" xlink:href="#blue_gradient_square"/><use width="54" height="54" transform="translate(109.75 384.67) scale(1.02)" xlink:href="#blue_gradient_square"/><use width="53.36" height="53.36" transform="translate(164.63 384.67) scale(1.03)" xlink:href="#New_Symbol"/><use width="53.36" height="53.36" transform="translate(109.75 329.79) scale(1.03)" xlink:href="#New_Symbol"/><use width="54" height="54" transform="translate(164.63 329.79) scale(1.02)" xlink:href="#blue_gradient_square"/><use width="54" height="54" transform="translate(219.5 54.85) scale(1.02)" xlink:href="#blue_gradient_square"/><use width="53.36" height="53.36" transform="translate(274.38 54.85) scale(1.03)" xlink:href="#New_Symbol"/><use width="53.36" height="53.36" transform="translate(219.5 -0.03) scale(1.03)" xlink:href="#New_Symbol"/><use width="54" height="54" transform="translate(274.38 -0.03) scale(1.02)" xlink:href="#blue_gradient_square"/><use width="54" height="54" transform="translate(219.5 164.88) scale(1.02)" xlink:href="#blue_gradient_square"/><use width="53.36" height="53.36" transform="translate(274.38 164.88) scale(1.03)" xlink:href="#New_Symbol"/><use width="53.36" height="53.36" transform="translate(219.5 110.01) scale(1.03)" xlink:href="#New_Symbol"/><use width="54" height="54" transform="translate(274.38 110.01) scale(1.02)" xlink:href="#blue_gradient_square"/><use width="54" height="54" transform="translate(219.5 274.63) scale(1.02)" xlink:href="#blue_gradient_square"/><use width="53.36" height="53.36" transform="translate(274.38 274.63) scale(1.03)" xlink:href="#New_Symbol"/><use width="53.36" height="53.36" transform="translate(219.5 219.76) scale(1.03)" xlink:href="#New_Symbol"/><use width="54" height="54" transform="translate(274.38 219.76) scale(1.02)" xlink:href="#blue_gradient_square"/><use width="54" height="54" transform="translate(219.5 384.67) scale(1.02)" xlink:href="#blue_gradient_square"/><use width="53.36" height="53.36" transform="translate(274.38 384.67) scale(1.03)" xlink:href="#New_Symbol"/><use width="53.36" height="53.36" transform="translate(219.5 329.79) scale(1.03)" xlink:href="#New_Symbol"/><use width="54" height="54" transform="translate(274.38 329.79) scale(1.02)" xlink:href="#blue_gradient_square"/><use width="54" height="54" transform="translate(329.25 54.85) scale(1.02)" xlink:href="#blue_gradient_square"/><use width="53.36" height="53.36" transform="translate(384.13 54.85) scale(1.03)" xlink:href="#New_Symbol"/><use width="53.36" height="53.36" transform="translate(329.25 -0.03) scale(1.03)" xlink:href="#New_Symbol"/><use width="54" height="54" transform="translate(384.13 -0.03) scale(1.02)" xlink:href="#blue_gradient_square"/><use width="54" height="54" transform="translate(329.25 164.88) scale(1.02)" xlink:href="#blue_gradient_square"/><use width="53.36" height="53.36" transform="translate(384.13 164.88) scale(1.03)" xlink:href="#New_Symbol"/><use width="53.36" height="53.36" transform="translate(329.25 110.01) scale(1.03)" xlink:href="#New_Symbol"/><use width="54" height="54" transform="translate(384.13 110.01) scale(1.02)" xlink:href="#blue_gradient_square"/><use width="54" height="54" transform="translate(329.25 274.63) scale(1.02)" xlink:href="#blue_gradient_square"/><use width="53.36" height="53.36" transform="translate(384.13 274.63) scale(1.03)" xlink:href="#New_Symbol"/><use width="53.36" height="53.36" transform="translate(329.25 219.76) scale(1.03)" xlink:href="#New_Symbol"/><use width="54" height="54" transform="translate(384.13 219.76) scale(1.02)" xlink:href="#blue_gradient_square"/><use width="54" height="54" transform="translate(329.25 384.67) scale(1.02)" xlink:href="#blue_gradient_square"/><use width="53.36" height="53.36" transform="translate(384.13 384.67) scale(1.03)" xlink:href="#New_Symbol"/><use width="53.36" height="53.36" transform="translate(329.25 329.79) scale(1.03)" xlink:href="#New_Symbol"/><use width="54" height="54" transform="translate(384.13 329.79) scale(1.02)" xlink:href="#blue_gradient_square"/><use width="54" height="54" transform="translate(0 494.42) scale(1.02)" xlink:href="#blue_gradient_square"/><use width="53.36" height="53.36" transform="translate(54.88 494.42) scale(1.03)" xlink:href="#New_Symbol"/><use width="53.36" height="53.36" transform="translate(0 439.54) scale(1.03)" xlink:href="#New_Symbol"/><use width="54" height="54" transform="translate(54.88 439.54) scale(1.02)" xlink:href="#blue_gradient_square"/><use width="54" height="54" transform="translate(0 604.45) scale(1.02)" xlink:href="#blue_gradient_square"/><use width="53.36" height="53.36" transform="translate(54.88 604.45) scale(1.03)" xlink:href="#New_Symbol"/><use width="53.36" height="53.36" transform="translate(0 549.58) scale(1.03)" xlink:href="#New_Symbol"/><use width="54" height="54" transform="translate(54.88 549.58) scale(1.02)" xlink:href="#blue_gradient_square"/><use width="54" height="54" transform="translate(0 714.2) scale(1.02)" xlink:href="#blue_gradient_square"/><use width="53.36" height="53.36" transform="translate(54.88 714.2) scale(1.03)" xlink:href="#New_Symbol"/><use width="53.36" height="53.36" transform="translate(0 659.33) scale(1.03)" xlink:href="#New_Symbol"/><use width="54" height="54" transform="translate(54.88 659.33) scale(1.02)" xlink:href="#blue_gradient_square"/><use width="54" height="54" transform="translate(0 824.24) scale(1.02)" xlink:href="#blue_gradient_square"/><use width="53.36" height="53.36" transform="translate(54.88 824.24) scale(1.03)" xlink:href="#New_Symbol"/><use width="53.36" height="53.36" transform="translate(0 769.37) scale(1.03)" xlink:href="#New_Symbol"/><use width="54" height="54" transform="translate(54.88 769.37) scale(1.02)" xlink:href="#blue_gradient_square"/><use width="54" height="54" transform="translate(109.75 494.42) scale(1.02)" xlink:href="#blue_gradient_square"/><use width="53.36" height="53.36" transform="translate(164.63 494.42) scale(1.03)" xlink:href="#New_Symbol"/><use width="53.36" height="53.36" transform="translate(109.75 439.54) scale(1.03)" xlink:href="#New_Symbol"/><use width="54" height="54" transform="translate(164.63 439.54) scale(1.02)" xlink:href="#blue_gradient_square"/><use width="54" height="54" transform="translate(109.75 604.45) scale(1.02)" xlink:href="#blue_gradient_square"/><use width="53.36" height="53.36" transform="translate(164.63 604.45) scale(1.03)" xlink:href="#New_Symbol"/><use width="53.36" height="53.36" transform="translate(109.75 549.58) scale(1.03)" xlink:href="#New_Symbol"/><use width="54" height="54" transform="translate(164.63 549.58) scale(1.02)" xlink:href="#blue_gradient_square"/><use width="54" height="54" transform="translate(109.75 714.2) scale(1.02)" xlink:href="#blue_gradient_square"/><use width="53.36" height="53.36" transform="translate(164.63 714.2) scale(1.03)" xlink:href="#New_Symbol"/><use width="53.36" height="53.36" transform="translate(109.75 659.33) scale(1.03)" xlink:href="#New_Symbol"/><use width="54" height="54" transform="translate(164.63 659.33) scale(1.02)" xlink:href="#blue_gradient_square"/><use width="54" height="54" transform="translate(109.75 824.24) scale(1.02)" xlink:href="#blue_gradient_square"/><use width="53.36" height="53.36" transform="translate(164.63 824.24) scale(1.03)" xlink:href="#New_Symbol"/><use width="53.36" height="53.36" transform="translate(109.75 769.37) scale(1.03)" xlink:href="#New_Symbol"/><use width="54" height="54" transform="translate(164.63 769.37) scale(1.02)" xlink:href="#blue_gradient_square"/><use width="54" height="54" transform="translate(219.5 494.42) scale(1.02)" xlink:href="#blue_gradient_square"/><use width="53.36" height="53.36" transform="translate(274.38 494.42) scale(1.03)" xlink:href="#New_Symbol"/><use width="53.36" height="53.36" transform="translate(219.5 439.54) scale(1.03)" xlink:href="#New_Symbol"/><use width="54" height="54" transform="translate(274.38 439.54) scale(1.02)" xlink:href="#blue_gradient_square"/><use width="54" height="54" transform="translate(219.5 604.45) scale(1.02)" xlink:href="#blue_gradient_square"/><use width="53.36" height="53.36" transform="translate(274.38 604.45) scale(1.03)" xlink:href="#New_Symbol"/><use width="53.36" height="53.36" transform="translate(219.5 549.58) scale(1.03)" xlink:href="#New_Symbol"/><use width="54" height="54" transform="translate(274.38 549.58) scale(1.02)" xlink:href="#blue_gradient_square"/><use width="54" height="54" transform="translate(219.5 714.2) scale(1.02)" xlink:href="#blue_gradient_square"/><use width="53.36" height="53.36" transform="translate(274.38 714.2) scale(1.03)" xlink:href="#New_Symbol"/><use width="53.36" height="53.36" transform="translate(219.5 659.33) scale(1.03)" xlink:href="#New_Symbol"/><use width="54" height="54" transform="translate(274.38 659.33) scale(1.02)" xlink:href="#blue_gradient_square"/><use width="54" height="54" transform="translate(219.5 824.24) scale(1.02)" xlink:href="#blue_gradient_square"/><use width="53.36" height="53.36" transform="translate(274.38 824.24) scale(1.03)" xlink:href="#New_Symbol"/><use width="53.36" height="53.36" transform="translate(219.5 769.37) scale(1.03)" xlink:href="#New_Symbol"/><use width="54" height="54" transform="translate(274.38 769.37) scale(1.02)" xlink:href="#blue_gradient_square"/><use width="54" height="54" transform="translate(329.25 494.42) scale(1.02)" xlink:href="#blue_gradient_square"/><use width="53.36" height="53.36" transform="translate(384.13 494.42) scale(1.03)" xlink:href="#New_Symbol"/><use width="53.36" height="53.36" transform="translate(329.25 439.54) scale(1.03)" xlink:href="#New_Symbol"/><use width="54" height="54" transform="translate(384.13 439.54) scale(1.02)" xlink:href="#blue_gradient_square"/><use width="54" height="54" transform="translate(329.25 604.45) scale(1.02)" xlink:href="#blue_gradient_square"/><use width="53.36" height="53.36" transform="translate(384.13 604.45) scale(1.03)" xlink:href="#New_Symbol"/><use width="53.36" height="53.36" transform="translate(329.25 549.58) scale(1.03)" xlink:href="#New_Symbol"/><use width="54" height="54" transform="translate(384.13 549.58) scale(1.02)" xlink:href="#blue_gradient_square"/><use width="54" height="54" transform="translate(329.25 714.2) scale(1.02)" xlink:href="#blue_gradient_square"/><use width="53.36" height="53.36" transform="translate(384.13 714.2) scale(1.03)" xlink:href="#New_Symbol"/><use width="53.36" height="53.36" transform="translate(329.25 659.33) scale(1.03)" xlink:href="#New_Symbol"/><use width="54" height="54" transform="translate(384.13 659.33) scale(1.02)" xlink:href="#blue_gradient_square"/><use width="54" height="54" transform="translate(329.25 824.24) scale(1.02)" xlink:href="#blue_gradient_square"/><use width="53.36" height="53.36" transform="translate(384.13 824.24) scale(1.03)" xlink:href="#New_Symbol"/><use width="53.36" height="53.36" transform="translate(329.25 769.37) scale(1.03)" xlink:href="#New_Symbol"/><use width="54" height="54" transform="translate(384.13 769.37) scale(1.02)" xlink:href="#blue_gradient_square"/><use width="54" height="54" transform="translate(439 54.85) scale(1.02)" xlink:href="#blue_gradient_square"/><use width="53.36" height="53.36" transform="translate(493.88 54.85) scale(1.03)" xlink:href="#New_Symbol"/><use width="53.36" height="53.36" transform="translate(439 -0.03) scale(1.03)" xlink:href="#New_Symbol"/><use width="54" height="54" transform="translate(493.88 -0.03) scale(1.02)" xlink:href="#blue_gradient_square"/><use width="54" height="54" transform="translate(439 164.88) scale(1.02)" xlink:href="#blue_gradient_square"/><use width="53.36" height="53.36" transform="translate(493.88 164.88) scale(1.03)" xlink:href="#New_Symbol"/><use width="53.36" height="53.36" transform="translate(439 110.01) scale(1.03)" xlink:href="#New_Symbol"/><use width="54" height="54" transform="translate(493.88 110.01) scale(1.02)" xlink:href="#blue_gradient_square"/><use width="54" height="54" transform="translate(439 274.63) scale(1.02)" xlink:href="#blue_gradient_square"/><use width="53.36" height="53.36" transform="translate(493.88 274.63) scale(1.03)" xlink:href="#New_Symbol"/><use width="53.36" height="53.36" transform="translate(439 219.76) scale(1.03)" xlink:href="#New_Symbol"/><use width="54" height="54" transform="translate(493.88 219.76) scale(1.02)" xlink:href="#blue_gradient_square"/><use width="54" height="54" transform="translate(439 384.67) scale(1.02)" xlink:href="#blue_gradient_square"/><use width="53.36" height="53.36" transform="translate(493.88 384.67) scale(1.03)" xlink:href="#New_Symbol"/><use width="53.36" height="53.36" transform="translate(439 329.79) scale(1.03)" xlink:href="#New_Symbol"/><use width="54" height="54" transform="translate(493.88 329.79) scale(1.02)" xlink:href="#blue_gradient_square"/><use width="54" height="54" transform="translate(548.75 54.85) scale(1.02)" xlink:href="#blue_gradient_square"/><use width="53.36" height="53.36" transform="translate(603.63 54.85) scale(1.03)" xlink:href="#New_Symbol"/><use width="53.36" height="53.36" transform="translate(548.75 -0.03) scale(1.03)" xlink:href="#New_Symbol"/><use width="54" height="54" transform="translate(603.63 -0.03) scale(1.02)" xlink:href="#blue_gradient_square"/><use width="54" height="54" transform="translate(548.75 164.88) scale(1.02)" xlink:href="#blue_gradient_square"/><use width="53.36" height="53.36" transform="translate(603.63 164.88) scale(1.03)" xlink:href="#New_Symbol"/><use width="53.36" height="53.36" transform="translate(548.75 110.01) scale(1.03)" xlink:href="#New_Symbol"/><use width="54" height="54" transform="translate(603.63 110.01) scale(1.02)" xlink:href="#blue_gradient_square"/><use width="54" height="54" transform="translate(548.75 274.63) scale(1.02)" xlink:href="#blue_gradient_square"/><use width="53.36" height="53.36" transform="translate(603.63 274.63) scale(1.03)" xlink:href="#New_Symbol"/><use width="53.36" height="53.36" transform="translate(548.75 219.76) scale(1.03)" xlink:href="#New_Symbol"/><use width="54" height="54" transform="translate(603.63 219.76) scale(1.02)" xlink:href="#blue_gradient_square"/><use width="54" height="54" transform="translate(548.75 384.67) scale(1.02)" xlink:href="#blue_gradient_square"/><use width="53.36" height="53.36" transform="translate(603.63 384.67) scale(1.03)" xlink:href="#New_Symbol"/><use width="53.36" height="53.36" transform="translate(548.75 329.79) scale(1.03)" xlink:href="#New_Symbol"/><use width="54" height="54" transform="translate(603.63 329.79) scale(1.02)" xlink:href="#blue_gradient_square"/><use width="54" height="54" transform="translate(658.5 54.85) scale(1.02)" xlink:href="#blue_gradient_square"/><use width="53.36" height="53.36" transform="translate(713.38 54.85) scale(1.03)" xlink:href="#New_Symbol"/><use width="53.36" height="53.36" transform="translate(658.5 -0.03) scale(1.03)" xlink:href="#New_Symbol"/><use width="54" height="54" transform="translate(713.38 -0.03) scale(1.02)" xlink:href="#blue_gradient_square"/><use width="54" height="54" transform="translate(658.5 164.88) scale(1.02)" xlink:href="#blue_gradient_square"/><use width="53.36" height="53.36" transform="translate(713.38 164.88) scale(1.03)" xlink:href="#New_Symbol"/><use width="53.36" height="53.36" transform="translate(658.5 110.01) scale(1.03)" xlink:href="#New_Symbol"/><use width="54" height="54" transform="translate(713.38 110.01) scale(1.02)" xlink:href="#blue_gradient_square"/><use width="54" height="54" transform="translate(658.5 274.63) scale(1.02)" xlink:href="#blue_gradient_square"/><use width="53.36" height="53.36" transform="translate(713.38 274.63) scale(1.03)" xlink:href="#New_Symbol"/><use width="53.36" height="53.36" transform="translate(658.5 219.76) scale(1.03)" xlink:href="#New_Symbol"/><use width="54" height="54" transform="translate(713.38 219.76) scale(1.02)" xlink:href="#blue_gradient_square"/><use width="54" height="54" transform="translate(658.5 384.67) scale(1.02)" xlink:href="#blue_gradient_square"/><use width="53.36" height="53.36" transform="translate(713.38 384.67) scale(1.03)" xlink:href="#New_Symbol"/><use width="53.36" height="53.36" transform="translate(658.5 329.79) scale(1.03)" xlink:href="#New_Symbol"/><use width="54" height="54" transform="translate(713.38 329.79) scale(1.02)" xlink:href="#blue_gradient_square"/><use width="54" height="54" transform="translate(768.25 54.85) scale(1.02)" xlink:href="#blue_gradient_square"/><use width="53.36" height="53.36" transform="translate(823.13 54.85) scale(1.03)" xlink:href="#New_Symbol"/><use width="53.36" height="53.36" transform="translate(768.25 -0.03) scale(1.03)" xlink:href="#New_Symbol"/><use width="54" height="54" transform="translate(823.13 -0.03) scale(1.02)" xlink:href="#blue_gradient_square"/><use width="54" height="54" transform="translate(768.25 164.88) scale(1.02)" xlink:href="#blue_gradient_square"/><use width="53.36" height="53.36" transform="translate(823.13 164.88) scale(1.03)" xlink:href="#New_Symbol"/><use width="53.36" height="53.36" transform="translate(768.25 110.01) scale(1.03)" xlink:href="#New_Symbol"/><use width="54" height="54" transform="translate(823.13 110.01) scale(1.02)" xlink:href="#blue_gradient_square"/><use width="54" height="54" transform="translate(768.25 274.63) scale(1.02)" xlink:href="#blue_gradient_square"/><use width="53.36" height="53.36" transform="translate(823.13 274.63) scale(1.03)" xlink:href="#New_Symbol"/><use width="53.36" height="53.36" transform="translate(768.25 219.76) scale(1.03)" xlink:href="#New_Symbol"/><use width="54" height="54" transform="translate(823.13 219.76) scale(1.02)" xlink:href="#blue_gradient_square"/><use width="54" height="54" transform="translate(768.25 384.67) scale(1.02)" xlink:href="#blue_gradient_square"/><use width="53.36" height="53.36" transform="translate(823.13 384.67) scale(1.03)" xlink:href="#New_Symbol"/><use width="53.36" height="53.36" transform="translate(768.25 329.79) scale(1.03)" xlink:href="#New_Symbol"/><use width="54" height="54" transform="translate(823.13 329.79) scale(1.02)" xlink:href="#blue_gradient_square"/><use width="54" height="54" transform="translate(439 494.42) scale(1.02)" xlink:href="#blue_gradient_square"/><use width="53.36" height="53.36" transform="translate(493.88 494.42) scale(1.03)" xlink:href="#New_Symbol"/><use width="53.36" height="53.36" transform="translate(439 439.54) scale(1.03)" xlink:href="#New_Symbol"/><use width="54" height="54" transform="translate(493.88 439.54) scale(1.02)" xlink:href="#blue_gradient_square"/><use width="54" height="54" transform="translate(439 604.45) scale(1.02)" xlink:href="#blue_gradient_square"/><use width="53.36" height="53.36" transform="translate(493.88 604.45) scale(1.03)" xlink:href="#New_Symbol"/><use width="53.36" height="53.36" transform="translate(439 549.58) scale(1.03)" xlink:href="#New_Symbol"/><use width="54" height="54" transform="translate(493.88 549.58) scale(1.02)" xlink:href="#blue_gradient_square"/><use width="54" height="54" transform="translate(439 714.2) scale(1.02)" xlink:href="#blue_gradient_square"/><use width="53.36" height="53.36" transform="translate(493.88 714.2) scale(1.03)" xlink:href="#New_Symbol"/><use width="53.36" height="53.36" transform="translate(439 659.33) scale(1.03)" xlink:href="#New_Symbol"/><use width="54" height="54" transform="translate(493.88 659.33) scale(1.02)" xlink:href="#blue_gradient_square"/><use width="54" height="54" transform="translate(439 824.24) scale(1.02)" xlink:href="#blue_gradient_square"/><use width="53.36" height="53.36" transform="translate(493.88 824.24) scale(1.03)" xlink:href="#New_Symbol"/><use width="53.36" height="53.36" transform="translate(439 769.37) scale(1.03)" xlink:href="#New_Symbol"/><use width="54" height="54" transform="translate(493.88 769.37) scale(1.02)" xlink:href="#blue_gradient_square"/><use width="54" height="54" transform="translate(548.75 494.42) scale(1.02)" xlink:href="#blue_gradient_square"/><use width="53.36" height="53.36" transform="translate(603.63 494.42) scale(1.03)" xlink:href="#New_Symbol"/><use width="53.36" height="53.36" transform="translate(548.75 439.54) scale(1.03)" xlink:href="#New_Symbol"/><use width="54" height="54" transform="translate(603.63 439.54) scale(1.02)" xlink:href="#blue_gradient_square"/><use width="54" height="54" transform="translate(548.75 604.45) scale(1.02)" xlink:href="#blue_gradient_square"/><use width="53.36" height="53.36" transform="translate(603.63 604.45) scale(1.03)" xlink:href="#New_Symbol"/><use width="53.36" height="53.36" transform="translate(548.75 549.58) scale(1.03)" xlink:href="#New_Symbol"/><use width="54" height="54" transform="translate(603.63 549.58) scale(1.02)" xlink:href="#blue_gradient_square"/><use width="54" height="54" transform="translate(548.75 714.2) scale(1.02)" xlink:href="#blue_gradient_square"/><use width="53.36" height="53.36" transform="translate(603.63 714.2) scale(1.03)" xlink:href="#New_Symbol"/><use width="53.36" height="53.36" transform="translate(548.75 659.33) scale(1.03)" xlink:href="#New_Symbol"/><use width="54" height="54" transform="translate(603.63 659.33) scale(1.02)" xlink:href="#blue_gradient_square"/><use width="54" height="54" transform="translate(548.75 824.24) scale(1.02)" xlink:href="#blue_gradient_square"/><use width="53.36" height="53.36" transform="translate(603.63 824.24) scale(1.03)" xlink:href="#New_Symbol"/><use width="53.36" height="53.36" transform="translate(548.75 769.37) scale(1.03)" xlink:href="#New_Symbol"/><use width="54" height="54" transform="translate(603.63 769.37) scale(1.02)" xlink:href="#blue_gradient_square"/><use width="54" height="54" transform="translate(658.5 494.42) scale(1.02)" xlink:href="#blue_gradient_square"/><use width="53.36" height="53.36" transform="translate(713.38 494.42) scale(1.03)" xlink:href="#New_Symbol"/><use width="53.36" height="53.36" transform="translate(658.5 439.54) scale(1.03)" xlink:href="#New_Symbol"/><use width="54" height="54" transform="translate(713.38 439.54) scale(1.02)" xlink:href="#blue_gradient_square"/><use width="54" height="54" transform="translate(658.5 604.45) scale(1.02)" xlink:href="#blue_gradient_square"/><use width="53.36" height="53.36" transform="translate(713.38 604.45) scale(1.03)" xlink:href="#New_Symbol"/><use width="53.36" height="53.36" transform="translate(658.5 549.58) scale(1.03)" xlink:href="#New_Symbol"/><use width="54" height="54" transform="translate(713.38 549.58) scale(1.02)" xlink:href="#blue_gradient_square"/><use width="54" height="54" transform="translate(658.5 714.2) scale(1.02)" xlink:href="#blue_gradient_square"/><use width="53.36" height="53.36" transform="translate(713.38 714.2) scale(1.03)" xlink:href="#New_Symbol"/><use width="53.36" height="53.36" transform="translate(658.5 659.33) scale(1.03)" xlink:href="#New_Symbol"/><use width="54" height="54" transform="translate(713.38 659.33) scale(1.02)" xlink:href="#blue_gradient_square"/><use width="54" height="54" transform="translate(658.5 824.24) scale(1.02)" xlink:href="#blue_gradient_square"/><use width="53.36" height="53.36" transform="translate(713.38 824.24) scale(1.03)" xlink:href="#New_Symbol"/><use width="53.36" height="53.36" transform="translate(658.5 769.37) scale(1.03)" xlink:href="#New_Symbol"/><use width="54" height="54" transform="translate(713.38 769.37) scale(1.02)" xlink:href="#blue_gradient_square"/><use width="54" height="54" transform="translate(768.25 494.42) scale(1.02)" xlink:href="#blue_gradient_square"/><use width="53.36" height="53.36" transform="translate(823.13 494.42) scale(1.03)" xlink:href="#New_Symbol"/><use width="53.36" height="53.36" transform="translate(768.25 439.54) scale(1.03)" xlink:href="#New_Symbol"/><use width="54" height="54" transform="translate(823.13 439.54) scale(1.02)" xlink:href="#blue_gradient_square"/><use width="54" height="54" transform="translate(768.25 604.45) scale(1.02)" xlink:href="#blue_gradient_square"/><use width="53.36" height="53.36" transform="translate(823.13 604.45) scale(1.03)" xlink:href="#New_Symbol"/><use width="53.36" height="53.36" transform="translate(768.25 549.58) scale(1.03)" xlink:href="#New_Symbol"/><use width="54" height="54" transform="translate(823.13 549.58) scale(1.02)" xlink:href="#blue_gradient_square"/><use width="54" height="54" transform="translate(768.25 714.2) scale(1.02)" xlink:href="#blue_gradient_square"/><use width="53.36" height="53.36" transform="translate(823.13 714.2) scale(1.03)" xlink:href="#New_Symbol"/><use width="53.36" height="53.36" transform="translate(768.25 659.33) scale(1.03)" xlink:href="#New_Symbol"/><use width="54" height="54" transform="translate(823.13 659.33) scale(1.02)" xlink:href="#blue_gradient_square"/><use width="54" height="54" transform="translate(768.25 824.24) scale(1.02)" xlink:href="#blue_gradient_square"/><use width="53.36" height="53.36" transform="translate(823.13 824.24) scale(1.03)" xlink:href="#New_Symbol"/><use width="53.36" height="53.36" transform="translate(768.25 769.37) scale(1.03)" xlink:href="#New_Symbol"/><use width="54" height="54" transform="translate(823.13 769.37) scale(1.02)" xlink:href="#blue_gradient_square"/><use width="54" height="54" transform="translate(1756 54.85) scale(1.02)" xlink:href="#blue_gradient_square"/><use width="53.36" height="53.36" transform="translate(1810.88 54.85) scale(1.03)" xlink:href="#New_Symbol"/><use width="53.36" height="53.36" transform="translate(1756 -0.03) scale(1.03)" xlink:href="#New_Symbol"/><use width="54" height="54" transform="translate(1810.88 -0.03) scale(1.02)" xlink:href="#blue_gradient_square"/><use width="54" height="54" transform="translate(1756 164.88) scale(1.02)" xlink:href="#blue_gradient_square"/><use width="53.36" height="53.36" transform="translate(1810.88 164.88) scale(1.03)" xlink:href="#New_Symbol"/><use width="53.36" height="53.36" transform="translate(1756 110.01) scale(1.03)" xlink:href="#New_Symbol"/><use width="54" height="54" transform="translate(1810.88 110.01) scale(1.02)" xlink:href="#blue_gradient_square"/><use width="54" height="54" transform="translate(1756 274.63) scale(1.02)" xlink:href="#blue_gradient_square"/><use width="53.36" height="53.36" transform="translate(1810.88 274.63) scale(1.03)" xlink:href="#New_Symbol"/><use width="53.36" height="53.36" transform="translate(1756 219.76) scale(1.03)" xlink:href="#New_Symbol"/><use width="54" height="54" transform="translate(1810.88 219.76) scale(1.02)" xlink:href="#blue_gradient_square"/><use width="54" height="54" transform="translate(1756 384.67) scale(1.02)" xlink:href="#blue_gradient_square"/><use width="53.36" height="53.36" transform="translate(1810.88 384.67) scale(1.03)" xlink:href="#New_Symbol"/><use width="53.36" height="53.36" transform="translate(1756 329.79) scale(1.03)" xlink:href="#New_Symbol"/><use width="54" height="54" transform="translate(1810.88 329.79) scale(1.02)" xlink:href="#blue_gradient_square"/><use width="54" height="54" transform="translate(1865.75 54.85) scale(1.02)" xlink:href="#blue_gradient_square"/><use width="53.36" height="53.36" transform="translate(1865.75 -0.03) scale(1.03)" xlink:href="#New_Symbol"/><use width="54" height="54" transform="translate(1865.75 164.88) scale(1.02)" xlink:href="#blue_gradient_square"/><use width="53.36" height="53.36" transform="translate(1865.75 110.01) scale(1.03)" xlink:href="#New_Symbol"/><use width="54" height="54" transform="translate(1865.75 274.63) scale(1.02)" xlink:href="#blue_gradient_square"/><use width="53.36" height="53.36" transform="translate(1865.75 219.76) scale(1.03)" xlink:href="#New_Symbol"/><use width="54" height="54" transform="translate(1865.75 384.67) scale(1.02)" xlink:href="#blue_gradient_square"/><use width="53.36" height="53.36" transform="translate(1865.75 329.79) scale(1.03)" xlink:href="#New_Symbol"/><use width="54" height="54" transform="translate(1756 494.42) scale(1.02)" xlink:href="#blue_gradient_square"/><use width="53.36" height="53.36" transform="translate(1810.88 494.42) scale(1.03)" xlink:href="#New_Symbol"/><use width="53.36" height="53.36" transform="translate(1756 439.54) scale(1.03)" xlink:href="#New_Symbol"/><use width="54" height="54" transform="translate(1810.88 439.54) scale(1.02)" xlink:href="#blue_gradient_square"/><use width="54" height="54" transform="translate(1756 604.45) scale(1.02)" xlink:href="#blue_gradient_square"/><use width="53.36" height="53.36" transform="translate(1810.88 604.45) scale(1.03)" xlink:href="#New_Symbol"/><use width="53.36" height="53.36" transform="translate(1756 549.58) scale(1.03)" xlink:href="#New_Symbol"/><use width="54" height="54" transform="translate(1810.88 549.58) scale(1.02)" xlink:href="#blue_gradient_square"/><use width="54" height="54" transform="translate(1756 714.2) scale(1.02)" xlink:href="#blue_gradient_square"/><use width="53.36" height="53.36" transform="translate(1810.88 714.2) scale(1.03)" xlink:href="#New_Symbol"/><use width="53.36" height="53.36" transform="translate(1756 659.33) scale(1.03)" xlink:href="#New_Symbol"/><use width="54" height="54" transform="translate(1810.88 659.33) scale(1.02)" xlink:href="#blue_gradient_square"/><use width="54" height="54" transform="translate(1756 824.24) scale(1.02)" xlink:href="#blue_gradient_square"/><use width="53.36" height="53.36" transform="translate(1810.88 824.24) scale(1.03)" xlink:href="#New_Symbol"/><use width="53.36" height="53.36" transform="translate(1756 769.37) scale(1.03)" xlink:href="#New_Symbol"/><use width="54" height="54" transform="translate(1810.88 769.37) scale(1.02)" xlink:href="#blue_gradient_square"/><use width="54" height="54" transform="translate(1865.75 494.42) scale(1.02)" xlink:href="#blue_gradient_square"/><use width="53.36" height="53.36" transform="translate(1865.75 439.54) scale(1.03)" xlink:href="#New_Symbol"/><use width="54" height="54" transform="translate(1865.75 604.45) scale(1.02)" xlink:href="#blue_gradient_square"/><use width="53.36" height="53.36" transform="translate(1865.75 549.58) scale(1.03)" xlink:href="#New_Symbol"/><use width="54" height="54" transform="translate(1865.75 714.2) scale(1.02)" xlink:href="#blue_gradient_square"/><use width="53.36" height="53.36" transform="translate(1865.75 659.33) scale(1.03)" xlink:href="#New_Symbol"/><use width="54" height="54" transform="translate(1865.75 824.24) scale(1.02)" xlink:href="#blue_gradient_square"/><use width="53.36" height="53.36" transform="translate(1865.75 769.37) scale(1.03)" xlink:href="#New_Symbol"/><use width="54" height="54" transform="translate(878 933.99) scale(1.02)" xlink:href="#blue_gradient_square"/><use width="53.36" height="53.36" transform="translate(932.88 933.99) scale(1.03)" xlink:href="#New_Symbol"/><use width="53.36" height="53.36" transform="translate(878 879.12) scale(1.03)" xlink:href="#New_Symbol"/><use width="54" height="54" transform="translate(932.88 879.12) scale(1.02)" xlink:href="#blue_gradient_square"/><use width="53.36" height="53.36" transform="translate(878 989.15) scale(1.03)" xlink:href="#New_Symbol"/><use width="54" height="54" transform="translate(932.88 989.15) scale(1.02)" xlink:href="#blue_gradient_square"/><use width="54" height="54" transform="translate(987.75 933.99) scale(1.02)" xlink:href="#blue_gradient_square"/><use width="53.36" height="53.36" transform="translate(1042.63 933.99) scale(1.03)" xlink:href="#New_Symbol"/><use width="53.36" height="53.36" transform="translate(987.75 879.12) scale(1.03)" xlink:href="#New_Symbol"/><use width="54" height="54" transform="translate(1042.63 879.12) scale(1.02)" xlink:href="#blue_gradient_square"/><use width="53.36" height="53.36" transform="translate(987.75 989.15) scale(1.03)" xlink:href="#New_Symbol"/><use width="54" height="54" transform="translate(1042.63 989.15) scale(1.02)" xlink:href="#blue_gradient_square"/><use width="54" height="54" transform="translate(1097.5 933.99) scale(1.02)" xlink:href="#blue_gradient_square"/><use width="53.36" height="53.36" transform="translate(1152.38 933.99) scale(1.03)" xlink:href="#New_Symbol"/><use width="53.36" height="53.36" transform="translate(1097.5 879.12) scale(1.03)" xlink:href="#New_Symbol"/><use width="54" height="54" transform="translate(1152.38 879.12) scale(1.02)" xlink:href="#blue_gradient_square"/><use width="53.36" height="53.36" transform="translate(1097.5 989.15) scale(1.03)" xlink:href="#New_Symbol"/><use width="54" height="54" transform="translate(1152.38 989.15) scale(1.02)" xlink:href="#blue_gradient_square"/><use width="54" height="54" transform="translate(1207.25 933.99) scale(1.02)" xlink:href="#blue_gradient_square"/><use width="53.36" height="53.36" transform="translate(1262.13 933.99) scale(1.03)" xlink:href="#New_Symbol"/><use width="53.36" height="53.36" transform="translate(1207.25 879.12) scale(1.03)" xlink:href="#New_Symbol"/><use width="54" height="54" transform="translate(1262.13 879.12) scale(1.02)" xlink:href="#blue_gradient_square"/><use width="53.36" height="53.36" transform="translate(1207.25 989.15) scale(1.03)" xlink:href="#New_Symbol"/><use width="54" height="54" transform="translate(1262.13 989.15) scale(1.02)" xlink:href="#blue_gradient_square"/><use width="54" height="54" transform="translate(1317 933.99) scale(1.02)" xlink:href="#blue_gradient_square"/><use width="53.36" height="53.36" transform="translate(1371.88 933.99) scale(1.03)" xlink:href="#New_Symbol"/><use width="53.36" height="53.36" transform="translate(1317 879.12) scale(1.03)" xlink:href="#New_Symbol"/><use width="54" height="54" transform="translate(1371.88 879.12) scale(1.02)" xlink:href="#blue_gradient_square"/><use width="53.36" height="53.36" transform="translate(1317 989.15) scale(1.03)" xlink:href="#New_Symbol"/><use width="54" height="54" transform="translate(1371.88 989.15) scale(1.02)" xlink:href="#blue_gradient_square"/><use width="54" height="54" transform="translate(1426.75 933.99) scale(1.02)" xlink:href="#blue_gradient_square"/><use width="53.36" height="53.36" transform="translate(1481.63 933.99) scale(1.03)" xlink:href="#New_Symbol"/><use width="53.36" height="53.36" transform="translate(1426.75 879.12) scale(1.03)" xlink:href="#New_Symbol"/><use width="54" height="54" transform="translate(1481.63 879.12) scale(1.02)" xlink:href="#blue_gradient_square"/><use width="53.36" height="53.36" transform="translate(1426.75 989.15) scale(1.03)" xlink:href="#New_Symbol"/><use width="54" height="54" transform="translate(1481.63 989.15) scale(1.02)" xlink:href="#blue_gradient_square"/><use width="54" height="54" transform="translate(1536.5 933.99) scale(1.02)" xlink:href="#blue_gradient_square"/><use width="53.36" height="53.36" transform="translate(1591.38 933.99) scale(1.03)" xlink:href="#New_Symbol"/><use width="53.36" height="53.36" transform="translate(1536.5 879.12) scale(1.03)" xlink:href="#New_Symbol"/><use width="54" height="54" transform="translate(1591.38 879.12) scale(1.02)" xlink:href="#blue_gradient_square"/><use width="53.36" height="53.36" transform="translate(1536.5 989.15) scale(1.03)" xlink:href="#New_Symbol"/><use width="54" height="54" transform="translate(1591.38 989.15) scale(1.02)" xlink:href="#blue_gradient_square"/><use width="54" height="54" transform="translate(1646.25 933.99) scale(1.02)" xlink:href="#blue_gradient_square"/><use width="53.36" height="53.36" transform="translate(1701.13 933.99) scale(1.03)" xlink:href="#New_Symbol"/><use width="53.36" height="53.36" transform="translate(1646.25 879.12) scale(1.03)" xlink:href="#New_Symbol"/><use width="54" height="54" transform="translate(1701.13 879.12) scale(1.02)" xlink:href="#blue_gradient_square"/><use width="53.36" height="53.36" transform="translate(1646.25 989.15) scale(1.03)" xlink:href="#New_Symbol"/><use width="54" height="54" transform="translate(1701.13 989.15) scale(1.02)" xlink:href="#blue_gradient_square"/><use width="54" height="54" transform="translate(0 933.99) scale(1.02)" xlink:href="#blue_gradient_square"/><use width="53.36" height="53.36" transform="translate(54.88 933.99) scale(1.03)" xlink:href="#New_Symbol"/><use width="53.36" height="53.36" transform="translate(0 879.12) scale(1.03)" xlink:href="#New_Symbol"/><use width="54" height="54" transform="translate(54.88 879.12) scale(1.02)" xlink:href="#blue_gradient_square"/><use width="53.36" height="53.36" transform="translate(0 989.15) scale(1.03)" xlink:href="#New_Symbol"/><use width="54" height="54" transform="translate(54.88 989.15) scale(1.02)" xlink:href="#blue_gradient_square"/><use width="54" height="54" transform="translate(109.75 933.99) scale(1.02)" xlink:href="#blue_gradient_square"/><use width="53.36" height="53.36" transform="translate(164.63 933.99) scale(1.03)" xlink:href="#New_Symbol"/><use width="53.36" height="53.36" transform="translate(109.75 879.12) scale(1.03)" xlink:href="#New_Symbol"/><use width="54" height="54" transform="translate(164.63 879.12) scale(1.02)" xlink:href="#blue_gradient_square"/><use width="53.36" height="53.36" transform="translate(109.75 989.15) scale(1.03)" xlink:href="#New_Symbol"/><use width="54" height="54" transform="translate(164.63 989.15) scale(1.02)" xlink:href="#blue_gradient_square"/><use width="54" height="54" transform="translate(219.5 933.99) scale(1.02)" xlink:href="#blue_gradient_square"/><use width="53.36" height="53.36" transform="translate(274.38 933.99) scale(1.03)" xlink:href="#New_Symbol"/><use width="53.36" height="53.36" transform="translate(219.5 879.12) scale(1.03)" xlink:href="#New_Symbol"/><use width="54" height="54" transform="translate(274.38 879.12) scale(1.02)" xlink:href="#blue_gradient_square"/><use width="53.36" height="53.36" transform="translate(219.5 989.15) scale(1.03)" xlink:href="#New_Symbol"/><use width="54" height="54" transform="translate(274.38 989.15) scale(1.02)" xlink:href="#blue_gradient_square"/><use width="54" height="54" transform="translate(329.25 933.99) scale(1.02)" xlink:href="#blue_gradient_square"/><use width="53.36" height="53.36" transform="translate(384.13 933.99) scale(1.03)" xlink:href="#New_Symbol"/><use width="53.36" height="53.36" transform="translate(329.25 879.12) scale(1.03)" xlink:href="#New_Symbol"/><use width="54" height="54" transform="translate(384.13 879.12) scale(1.02)" xlink:href="#blue_gradient_square"/><use width="53.36" height="53.36" transform="translate(329.25 989.15) scale(1.03)" xlink:href="#New_Symbol"/><use width="54" height="54" transform="translate(384.13 989.15) scale(1.02)" xlink:href="#blue_gradient_square"/><use width="54" height="54" transform="translate(439 933.99) scale(1.02)" xlink:href="#blue_gradient_square"/><use width="53.36" height="53.36" transform="translate(493.88 933.99) scale(1.03)" xlink:href="#New_Symbol"/><use width="53.36" height="53.36" transform="translate(439 879.12) scale(1.03)" xlink:href="#New_Symbol"/><use width="54" height="54" transform="translate(493.88 879.12) scale(1.02)" xlink:href="#blue_gradient_square"/><use width="53.36" height="53.36" transform="translate(439 989.15) scale(1.03)" xlink:href="#New_Symbol"/><use width="54" height="54" transform="translate(493.88 989.15) scale(1.02)" xlink:href="#blue_gradient_square"/><use width="54" height="54" transform="translate(548.75 933.99) scale(1.02)" xlink:href="#blue_gradient_square"/><use width="53.36" height="53.36" transform="translate(603.63 933.99) scale(1.03)" xlink:href="#New_Symbol"/><use width="53.36" height="53.36" transform="translate(548.75 879.12) scale(1.03)" xlink:href="#New_Symbol"/><use width="54" height="54" transform="translate(603.63 879.12) scale(1.02)" xlink:href="#blue_gradient_square"/><use width="53.36" height="53.36" transform="translate(548.75 989.15) scale(1.03)" xlink:href="#New_Symbol"/><use width="54" height="54" transform="translate(603.63 989.15) scale(1.02)" xlink:href="#blue_gradient_square"/><use width="54" height="54" transform="translate(658.5 933.99) scale(1.02)" xlink:href="#blue_gradient_square"/><use width="53.36" height="53.36" transform="translate(713.38 933.99) scale(1.03)" xlink:href="#New_Symbol"/><use width="53.36" height="53.36" transform="translate(658.5 879.12) scale(1.03)" xlink:href="#New_Symbol"/><use width="54" height="54" transform="translate(713.38 879.12) scale(1.02)" xlink:href="#blue_gradient_square"/><use width="53.36" height="53.36" transform="translate(658.5 989.15) scale(1.03)" xlink:href="#New_Symbol"/><use width="54" height="54" transform="translate(713.38 989.15) scale(1.02)" xlink:href="#blue_gradient_square"/><use width="54" height="54" transform="translate(768.25 933.99) scale(1.02)" xlink:href="#blue_gradient_square"/><use width="53.36" height="53.36" transform="translate(823.13 933.99) scale(1.03)" xlink:href="#New_Symbol"/><use width="53.36" height="53.36" transform="translate(768.25 879.12) scale(1.03)" xlink:href="#New_Symbol"/><use width="54" height="54" transform="translate(823.13 879.12) scale(1.02)" xlink:href="#blue_gradient_square"/><use width="53.36" height="53.36" transform="translate(768.25 989.15) scale(1.03)" xlink:href="#New_Symbol"/><use width="54" height="54" transform="translate(823.13 989.15) scale(1.02)" xlink:href="#blue_gradient_square"/><use width="54" height="54" transform="translate(1756 933.99) scale(1.02)" xlink:href="#blue_gradient_square"/><use width="53.36" height="53.36" transform="translate(1810.88 933.99) scale(1.03)" xlink:href="#New_Symbol"/><use width="53.36" height="53.36" transform="translate(1756 879.12) scale(1.03)" xlink:href="#New_Symbol"/><use width="54" height="54" transform="translate(1810.88 879.12) scale(1.02)" xlink:href="#blue_gradient_square"/><use width="53.36" height="53.36" transform="translate(1756 989.15) scale(1.03)" xlink:href="#New_Symbol"/><use width="54" height="54" transform="translate(1810.88 989.15) scale(1.02)" xlink:href="#blue_gradient_square"/><use width="54" height="54" transform="translate(1865.75 933.99) scale(1.02)" xlink:href="#blue_gradient_square"/><use width="53.36" height="53.36" transform="translate(1865.75 879.12) scale(1.03)" xlink:href="#New_Symbol"/><use width="53.36" height="53.36" transform="translate(1865.75 989.15) scale(1.03)" xlink:href="#New_Symbol"/></g></g></svg>