<?xml version="1.0" encoding="utf-8"?>
<!-- Generator: Adobe Illustrator 21.1.0, SVG Export Plug-In . SVG Version: 6.00 Build 0)  -->
<svg version="1.1" id="Layer_1" xmlns="http://www.w3.org/2000/svg" xmlns:xlink="http://www.w3.org/1999/xlink" x="0px" y="0px"
	 viewBox="0 0 175 255" style="enable-background:new 0 0 175 255;" xml:space="preserve">
<style type="text/css">
	.st0{fill:#9FE800;}
	.st1{clip-path:url(#SVGID_2_);}
	.st2{fill:#B0FF03;}
	.st3{opacity:0.26;}
	.st4{opacity:0.3;}
</style>
<symbol  id="pattern-diamond" viewBox="-546 -120.4 1091.9 240.8">
	<path class="st0" d="M546-32.6v-87.8H423.3L288,15c-9.2,9.2-24.2,9.2-33.4,0L119.2-120.4h-238.4L-254.6,15
		c-9.2,9.2-24.2,9.2-33.4,0l-135.3-135.3H-546v87.8l153,153h243.9L-16.7-12c9.2-9.2,24.2-9.2,33.4,0L149,120.4H393L546-32.6z"/>
</symbol>
<title>cta-bg</title>
<g>
	<defs>
		<rect id="SVGID_1_" width="175" height="255"/>
	</defs>
	<clipPath id="SVGID_2_">
		<use xlink:href="#SVGID_1_"  style="overflow:visible;"/>
	</clipPath>
	<g class="st1">
		<rect x="-305.6" y="-71.1" class="st2" width="3220.9" height="1232.4"/>
		<g>
			<g class="st3">
				<defs>
					<rect id="SVGID_3_" x="-305.6" y="-71.1" class="st3" width="3220.9" height="1232.4"/>
				</defs>
				<clipPath id="SVGID_4_">
					<use xlink:href="#SVGID_3_"  style="overflow:visible;"/>
				</clipPath>
			</g>
		</g>
	</g>
</g>
<g class="st4">
	<g>
		
			<use xlink:href="#pattern-diamond"  width="1091.9" height="240.8" id="pattern-diamond-3" x="-546" y="-120.4" transform="matrix(0.1564 0 0 -0.1564 87.8732 190.7131)" style="overflow:visible;"/>
		
			<use xlink:href="#pattern-diamond"  width="1091.9" height="240.8" x="-546" y="-120.4" transform="matrix(-0.1564 0 0 0.1564 87.8732 233.1032)" style="overflow:visible;"/>
	</g>
	<g>
		
			<use xlink:href="#pattern-diamond"  width="1091.9" height="240.8" id="pattern-diamond-3_3_" x="-546" y="-120.4" transform="matrix(0.1564 0 0 -0.1564 87.8732 106.3049)" style="overflow:visible;"/>
		
			<use xlink:href="#pattern-diamond"  width="1091.9" height="240.8" x="-546" y="-120.4" transform="matrix(-0.1564 0 0 0.1564 87.8732 148.6951)" style="overflow:visible;"/>
	</g>
	<g>
		
			<use xlink:href="#pattern-diamond"  width="1091.9" height="240.8" id="pattern-diamond-3_4_" x="-546" y="-120.4" transform="matrix(0.1564 0 0 -0.1564 87.8732 21.8968)" style="overflow:visible;"/>
		
			<use xlink:href="#pattern-diamond"  width="1091.9" height="240.8" x="-546" y="-120.4" transform="matrix(-0.1564 0 0 0.1564 87.8732 64.2869)" style="overflow:visible;"/>
	</g>
</g>
</svg>
