<svg id="Layer_1" data-name="Layer 1" xmlns="http://www.w3.org/2000/svg" viewBox="0 0 78 61"><defs><style>.cls-1{fill:#fff;}</style></defs><title>envelope-white</title><g id="SVGID"><path class="cls-1" d="M77,7.32c0,4.73-3.51,9-7.22,11.58C63.19,23.46,56.56,28,50,32.63c-2.75,1.9-7.39,5.78-10.81,5.78h-.08c-3.42,0-8.07-3.89-10.81-5.78C21.75,28,15.12,23.46,8.57,18.9c-3-2-7.27-6.8-7.27-10.65C1.3,4.11,3.54.56,8.06.56H70.24A6.8,6.8,0,0,1,77,7.32Zm0,12.42V53.28A6.78,6.78,0,0,1,70.24,60H8.06A6.78,6.78,0,0,1,1.3,53.28V19.74a23.74,23.74,0,0,0,4.27,3.68c7,4.77,14.11,9.54,21,14.57,3.55,2.62,7.94,5.83,12.55,5.83h.08c4.6,0,9-3.21,12.55-5.83,6.89-5,14-9.8,21-14.57A25,25,0,0,0,77,19.74Z"/></g></svg>