<svg id="Layer_1" data-name="Layer 1" xmlns="http://www.w3.org/2000/svg" xmlns:xlink="http://www.w3.org/1999/xlink" viewBox="0 0 20 20"><defs><style>.cls-1{fill:none;clip-rule:evenodd;}.cls-2{clip-path:url(#clip-path);}.cls-3{clip-path:url(#clip-path-2);}.cls-4{fill:#fff;fill-rule:evenodd;}</style><clipPath id="clip-path"><path id="SVGID" class="cls-1" d="M-43.9-39.7c-3.3,0-5.4-1.5-5.4-3.7s2-2.9,2.6-3.2a14.33,14.33,0,0,1,3.3-.5h.7c2.4,1.7,3.4,2.4,3.4,4C-39.3-41.2-41.2-39.7-43.9-39.7Zm-3.6-18c0-2.2,1.3-3.2,2.7-3.2,2.6,0,4,3.5,4,5.5a2.89,2.89,0,0,1-2.9,3.1C-46.2-52.3-47.5-55.4-47.5-57.7Zm7.6,9.1-1.1-.8a1.68,1.68,0,0,1-.8-1.4,2,2,0,0,1,1-1.6c1.3-1,2.6-2.1,2.6-4.3a5,5,0,0,0-2-3.9h1.7l1.2-1.4h-6.2c-4.4,0-6.6,2.8-6.6,5.8a4.84,4.84,0,0,0,5,4.8h.8a4,4,0,0,0-.4,1.3,2.69,2.69,0,0,0,.9,2,13.44,13.44,0,0,0-5.9,1.6A4.33,4.33,0,0,0-52-42.8c0,2.3,2.1,4.5,6.6,4.5,5.4,0,8-3,8-5.9C-37.4-46.3-38.5-47.4-39.9-48.6Zm7.7-3.4v-3h-2v3h-3v2h3v3h2v-3h3v-2Z"/></clipPath><clipPath id="clip-path-2"><path id="SVGID-2" data-name="SVGID" class="cls-1" d="M-43.9,14.3c-3.3,0-5.4-1.5-5.4-3.7s2-2.9,2.6-3.2a14.33,14.33,0,0,1,3.3-.5h.7c2.4,1.7,3.4,2.4,3.4,4C-39.3,12.8-41.2,14.3-43.9,14.3Zm-3.6-18c0-2.2,1.3-3.2,2.7-3.2,2.6,0,4,3.5,4,5.5a2.89,2.89,0,0,1-2.9,3.1C-46.2,1.7-47.5-1.4-47.5-3.7Zm7.6,9.1L-41,4.6a1.68,1.68,0,0,1-.8-1.4,2,2,0,0,1,1-1.6c1.3-1,2.6-2.1,2.6-4.3a5,5,0,0,0-2-3.9h1.7L-37.3-8h-6.2c-4.4,0-6.6,2.8-6.6,5.8a4.84,4.84,0,0,0,5,4.8h.8a4,4,0,0,0-.4,1.3,2.69,2.69,0,0,0,.9,2,13.44,13.44,0,0,0-5.9,1.6A4.33,4.33,0,0,0-52,11.2c0,2.3,2.1,4.5,6.6,4.5,5.4,0,8-3,8-5.9C-37.4,7.7-38.5,6.6-39.9,5.4ZM-32.2,2V-1h-2V2h-3V4h3V7h2V4h3V2Z"/></clipPath></defs><title>facebook-square-white</title><g id="SVGID-3" data-name="SVGID"><path class="cls-4" d="M17,2V5H15a.94.94,0,0,0-1,1V8h3v3H14v7H11V11H9V8h2V5.5A3.54,3.54,0,0,1,14.5,2Zm1-2H2A2,2,0,0,0,0,2V18a2,2,0,0,0,2,2H18a2,2,0,0,0,2-2V2A2,2,0,0,0,18,0Z"/></g></svg>