<svg id="Layer_1" data-name="Layer 1" xmlns="http://www.w3.org/2000/svg" xmlns:xlink="http://www.w3.org/1999/xlink" viewBox="0 0 1920 180"><defs><style>.cls-1{fill:url(#linear-gradient);}.cls-2{fill:url(#linear-gradient-2);}</style><linearGradient id="linear-gradient" x2="30" y2="30" gradientUnits="userSpaceOnUse"><stop offset="0" stop-color="#f2f2f2"/><stop offset="1" stop-color="#fff"/></linearGradient><linearGradient id="linear-gradient-2" y1="90" x2="1920" y2="90" gradientUnits="userSpaceOnUse"><stop offset="0" stop-color="#fff" stop-opacity="0.2"/><stop offset="0.02" stop-color="#fff" stop-opacity="0.24"/><stop offset="0.11" stop-color="#fff" stop-opacity="0.44"/><stop offset="0.19" stop-color="#fff" stop-opacity="0.61"/><stop offset="0.28" stop-color="#fff" stop-opacity="0.73"/><stop offset="0.36" stop-color="#fff" stop-opacity="0.83"/><stop offset="0.44" stop-color="#fff" stop-opacity="0.88"/><stop offset="0.5" stop-color="#fff" stop-opacity="0.9"/><stop offset="0.57" stop-color="#fff" stop-opacity="0.88"/><stop offset="0.66" stop-color="#fff" stop-opacity="0.83"/><stop offset="0.74" stop-color="#fff" stop-opacity="0.74"/><stop offset="0.83" stop-color="#fff" stop-opacity="0.62"/><stop offset="0.92" stop-color="#fff" stop-opacity="0.46"/><stop offset="1" stop-color="#fff" stop-opacity="0.3"/></linearGradient><symbol id="SQUARE" data-name="SQUARE" viewBox="0 0 30 30"><rect class="cls-1" width="30" height="30"/></symbol></defs><title>Artboard 1</title><use width="30" height="30" xlink:href="#SQUARE"/><use width="30" height="30" transform="translate(30 30)" xlink:href="#SQUARE"/><use width="30" height="30" transform="translate(0 60)" xlink:href="#SQUARE"/><use width="30" height="30" transform="translate(60)" xlink:href="#SQUARE"/><use width="30" height="30" transform="translate(90 30)" xlink:href="#SQUARE"/><use width="30" height="30" transform="translate(60 60)" xlink:href="#SQUARE"/><use width="30" height="30" transform="translate(0 120)" xlink:href="#SQUARE"/><use width="30" height="30" transform="translate(30 90)" xlink:href="#SQUARE"/><use width="30" height="30" transform="translate(90 90)" xlink:href="#SQUARE"/><use width="30" height="30" transform="translate(60 120)" xlink:href="#SQUARE"/><use width="30" height="30" transform="translate(30 150)" xlink:href="#SQUARE"/><use width="30" height="30" transform="translate(90 150)" xlink:href="#SQUARE"/><use width="30" height="30" transform="translate(120)" xlink:href="#SQUARE"/><use width="30" height="30" transform="translate(150 30)" xlink:href="#SQUARE"/><use width="30" height="30" transform="translate(120 60)" xlink:href="#SQUARE"/><use width="30" height="30" transform="translate(180)" xlink:href="#SQUARE"/><use width="30" height="30" transform="translate(210 30)" xlink:href="#SQUARE"/><use width="30" height="30" transform="translate(180 60)" xlink:href="#SQUARE"/><use width="30" height="30" transform="translate(120 120)" xlink:href="#SQUARE"/><use width="30" height="30" transform="translate(150 90)" xlink:href="#SQUARE"/><use width="30" height="30" transform="translate(210 90)" xlink:href="#SQUARE"/><use width="30" height="30" transform="translate(180 120)" xlink:href="#SQUARE"/><use width="30" height="30" transform="translate(150 150)" xlink:href="#SQUARE"/><use width="30" height="30" transform="translate(210 150)" xlink:href="#SQUARE"/><use width="30" height="30" transform="translate(240)" xlink:href="#SQUARE"/><use width="30" height="30" transform="translate(270 30)" xlink:href="#SQUARE"/><use width="30" height="30" transform="translate(240 60)" xlink:href="#SQUARE"/><use width="30" height="30" transform="translate(300)" xlink:href="#SQUARE"/><use width="30" height="30" transform="translate(330 30)" xlink:href="#SQUARE"/><use width="30" height="30" transform="translate(300 60)" xlink:href="#SQUARE"/><use width="30" height="30" transform="translate(240 120)" xlink:href="#SQUARE"/><use width="30" height="30" transform="translate(270 90)" xlink:href="#SQUARE"/><use width="30" height="30" transform="translate(330 90)" xlink:href="#SQUARE"/><use width="30" height="30" transform="translate(300 120)" xlink:href="#SQUARE"/><use width="30" height="30" transform="translate(270 150)" xlink:href="#SQUARE"/><use width="30" height="30" transform="translate(330 150)" xlink:href="#SQUARE"/><use width="30" height="30" transform="translate(360)" xlink:href="#SQUARE"/><use width="30" height="30" transform="translate(390 30)" xlink:href="#SQUARE"/><use width="30" height="30" transform="translate(360 60)" xlink:href="#SQUARE"/><use width="30" height="30" transform="translate(420)" xlink:href="#SQUARE"/><use width="30" height="30" transform="translate(450 30)" xlink:href="#SQUARE"/><use width="30" height="30" transform="translate(420 60)" xlink:href="#SQUARE"/><use width="30" height="30" transform="translate(360 120)" xlink:href="#SQUARE"/><use width="30" height="30" transform="translate(390 90)" xlink:href="#SQUARE"/><use width="30" height="30" transform="translate(450 90)" xlink:href="#SQUARE"/><use width="30" height="30" transform="translate(420 120)" xlink:href="#SQUARE"/><use width="30" height="30" transform="translate(390 150)" xlink:href="#SQUARE"/><use width="30" height="30" transform="translate(450 150)" xlink:href="#SQUARE"/><use width="30" height="30" transform="translate(480)" xlink:href="#SQUARE"/><use width="30" height="30" transform="translate(510 30)" xlink:href="#SQUARE"/><use width="30" height="30" transform="translate(480 60)" xlink:href="#SQUARE"/><use width="30" height="30" transform="translate(540)" xlink:href="#SQUARE"/><use width="30" height="30" transform="translate(570 30)" xlink:href="#SQUARE"/><use width="30" height="30" transform="translate(540 60)" xlink:href="#SQUARE"/><use width="30" height="30" transform="translate(480 120)" xlink:href="#SQUARE"/><use width="30" height="30" transform="translate(510 90)" xlink:href="#SQUARE"/><use width="30" height="30" transform="translate(570 90)" xlink:href="#SQUARE"/><use width="30" height="30" transform="translate(540 120)" xlink:href="#SQUARE"/><use width="30" height="30" transform="translate(510 150)" xlink:href="#SQUARE"/><use width="30" height="30" transform="translate(570 150)" xlink:href="#SQUARE"/><use width="30" height="30" transform="translate(600)" xlink:href="#SQUARE"/><use width="30" height="30" transform="translate(630 30)" xlink:href="#SQUARE"/><use width="30" height="30" transform="translate(600 60)" xlink:href="#SQUARE"/><use width="30" height="30" transform="translate(660)" xlink:href="#SQUARE"/><use width="30" height="30" transform="translate(690 30)" xlink:href="#SQUARE"/><use width="30" height="30" transform="translate(660 60)" xlink:href="#SQUARE"/><use width="30" height="30" transform="translate(600 120)" xlink:href="#SQUARE"/><use width="30" height="30" transform="translate(630 90)" xlink:href="#SQUARE"/><use width="30" height="30" transform="translate(690 90)" xlink:href="#SQUARE"/><use width="30" height="30" transform="translate(660 120)" xlink:href="#SQUARE"/><use width="30" height="30" transform="translate(630 150)" xlink:href="#SQUARE"/><use width="30" height="30" transform="translate(690 150)" xlink:href="#SQUARE"/><use width="30" height="30" transform="translate(720)" xlink:href="#SQUARE"/><use width="30" height="30" transform="translate(750 30)" xlink:href="#SQUARE"/><use width="30" height="30" transform="translate(720 60)" xlink:href="#SQUARE"/><use width="30" height="30" transform="translate(780)" xlink:href="#SQUARE"/><use width="30" height="30" transform="translate(810 30)" xlink:href="#SQUARE"/><use width="30" height="30" transform="translate(780 60)" xlink:href="#SQUARE"/><use width="30" height="30" transform="translate(720 120)" xlink:href="#SQUARE"/><use width="30" height="30" transform="translate(750 90)" xlink:href="#SQUARE"/><use width="30" height="30" transform="translate(810 90)" xlink:href="#SQUARE"/><use width="30" height="30" transform="translate(780 120)" xlink:href="#SQUARE"/><use width="30" height="30" transform="translate(750 150)" xlink:href="#SQUARE"/><use width="30" height="30" transform="translate(810 150)" xlink:href="#SQUARE"/><use width="30" height="30" transform="translate(840)" xlink:href="#SQUARE"/><use width="30" height="30" transform="translate(870 30)" xlink:href="#SQUARE"/><use width="30" height="30" transform="translate(840 60)" xlink:href="#SQUARE"/><use width="30" height="30" transform="translate(900)" xlink:href="#SQUARE"/><use width="30" height="30" transform="translate(930 30)" xlink:href="#SQUARE"/><use width="30" height="30" transform="translate(900 60)" xlink:href="#SQUARE"/><use width="30" height="30" transform="translate(840 120)" xlink:href="#SQUARE"/><use width="30" height="30" transform="translate(870 90)" xlink:href="#SQUARE"/><use width="30" height="30" transform="translate(930 90)" xlink:href="#SQUARE"/><use width="30" height="30" transform="translate(900 120)" xlink:href="#SQUARE"/><use width="30" height="30" transform="translate(870 150)" xlink:href="#SQUARE"/><use width="30" height="30" transform="translate(930 150)" xlink:href="#SQUARE"/><use width="30" height="30" transform="translate(960)" xlink:href="#SQUARE"/><use width="30" height="30" transform="translate(990 30)" xlink:href="#SQUARE"/><use width="30" height="30" transform="translate(960 60)" xlink:href="#SQUARE"/><use width="30" height="30" transform="translate(1020)" xlink:href="#SQUARE"/><use width="30" height="30" transform="translate(1050 30)" xlink:href="#SQUARE"/><use width="30" height="30" transform="translate(1020 60)" xlink:href="#SQUARE"/><use width="30" height="30" transform="translate(960 120)" xlink:href="#SQUARE"/><use width="30" height="30" transform="translate(990 90)" xlink:href="#SQUARE"/><use width="30" height="30" transform="translate(1050 90)" xlink:href="#SQUARE"/><use width="30" height="30" transform="translate(1020 120)" xlink:href="#SQUARE"/><use width="30" height="30" transform="translate(990 150)" xlink:href="#SQUARE"/><use width="30" height="30" transform="translate(1050 150)" xlink:href="#SQUARE"/><use width="30" height="30" transform="translate(1080)" xlink:href="#SQUARE"/><use width="30" height="30" transform="translate(1110 30)" xlink:href="#SQUARE"/><use width="30" height="30" transform="translate(1080 60)" xlink:href="#SQUARE"/><use width="30" height="30" transform="translate(1140)" xlink:href="#SQUARE"/><use width="30" height="30" transform="translate(1170 30)" xlink:href="#SQUARE"/><use width="30" height="30" transform="translate(1140 60)" xlink:href="#SQUARE"/><use width="30" height="30" transform="translate(1080 120)" xlink:href="#SQUARE"/><use width="30" height="30" transform="translate(1110 90)" xlink:href="#SQUARE"/><use width="30" height="30" transform="translate(1170 90)" xlink:href="#SQUARE"/><use width="30" height="30" transform="translate(1140 120)" xlink:href="#SQUARE"/><use width="30" height="30" transform="translate(1110 150)" xlink:href="#SQUARE"/><use width="30" height="30" transform="translate(1170 150)" xlink:href="#SQUARE"/><use width="30" height="30" transform="translate(1200)" xlink:href="#SQUARE"/><use width="30" height="30" transform="translate(1230 30)" xlink:href="#SQUARE"/><use width="30" height="30" transform="translate(1200 60)" xlink:href="#SQUARE"/><use width="30" height="30" transform="translate(1260)" xlink:href="#SQUARE"/><use width="30" height="30" transform="translate(1290 30)" xlink:href="#SQUARE"/><use width="30" height="30" transform="translate(1260 60)" xlink:href="#SQUARE"/><use width="30" height="30" transform="translate(1200 120)" xlink:href="#SQUARE"/><use width="30" height="30" transform="translate(1230 90)" xlink:href="#SQUARE"/><use width="30" height="30" transform="translate(1290 90)" xlink:href="#SQUARE"/><use width="30" height="30" transform="translate(1260 120)" xlink:href="#SQUARE"/><use width="30" height="30" transform="translate(1230 150)" xlink:href="#SQUARE"/><use width="30" height="30" transform="translate(1290 150)" xlink:href="#SQUARE"/><use width="30" height="30" transform="translate(1320)" xlink:href="#SQUARE"/><use width="30" height="30" transform="translate(1350 30)" xlink:href="#SQUARE"/><use width="30" height="30" transform="translate(1320 60)" xlink:href="#SQUARE"/><use width="30" height="30" transform="translate(1380)" xlink:href="#SQUARE"/><use width="30" height="30" transform="translate(1410 30)" xlink:href="#SQUARE"/><use width="30" height="30" transform="translate(1380 60)" xlink:href="#SQUARE"/><use width="30" height="30" transform="translate(1320 120)" xlink:href="#SQUARE"/><use width="30" height="30" transform="translate(1350 90)" xlink:href="#SQUARE"/><use width="30" height="30" transform="translate(1410 90)" xlink:href="#SQUARE"/><use width="30" height="30" transform="translate(1380 120)" xlink:href="#SQUARE"/><use width="30" height="30" transform="translate(1350 150)" xlink:href="#SQUARE"/><use width="30" height="30" transform="translate(1410 150)" xlink:href="#SQUARE"/><use width="30" height="30" transform="translate(1440)" xlink:href="#SQUARE"/><use width="30" height="30" transform="translate(1470 30)" xlink:href="#SQUARE"/><use width="30" height="30" transform="translate(1440 60)" xlink:href="#SQUARE"/><use width="30" height="30" transform="translate(1500)" xlink:href="#SQUARE"/><use width="30" height="30" transform="translate(1530 30)" xlink:href="#SQUARE"/><use width="30" height="30" transform="translate(1500 60)" xlink:href="#SQUARE"/><use width="30" height="30" transform="translate(1440 120)" xlink:href="#SQUARE"/><use width="30" height="30" transform="translate(1470 90)" xlink:href="#SQUARE"/><use width="30" height="30" transform="translate(1530 90)" xlink:href="#SQUARE"/><use width="30" height="30" transform="translate(1500 120)" xlink:href="#SQUARE"/><use width="30" height="30" transform="translate(1470 150)" xlink:href="#SQUARE"/><use width="30" height="30" transform="translate(1530 150)" xlink:href="#SQUARE"/><use width="30" height="30" transform="translate(1560)" xlink:href="#SQUARE"/><use width="30" height="30" transform="translate(1590 30)" xlink:href="#SQUARE"/><use width="30" height="30" transform="translate(1560 60)" xlink:href="#SQUARE"/><use width="30" height="30" transform="translate(1620)" xlink:href="#SQUARE"/><use width="30" height="30" transform="translate(1650 30)" xlink:href="#SQUARE"/><use width="30" height="30" transform="translate(1620 60)" xlink:href="#SQUARE"/><use width="30" height="30" transform="translate(1560 120)" xlink:href="#SQUARE"/><use width="30" height="30" transform="translate(1590 90)" xlink:href="#SQUARE"/><use width="30" height="30" transform="translate(1650 90)" xlink:href="#SQUARE"/><use width="30" height="30" transform="translate(1620 120)" xlink:href="#SQUARE"/><use width="30" height="30" transform="translate(1590 150)" xlink:href="#SQUARE"/><use width="30" height="30" transform="translate(1650 150)" xlink:href="#SQUARE"/><use width="30" height="30" transform="translate(1680)" xlink:href="#SQUARE"/><use width="30" height="30" transform="translate(1710 30)" xlink:href="#SQUARE"/><use width="30" height="30" transform="translate(1680 60)" xlink:href="#SQUARE"/><use width="30" height="30" transform="translate(1740)" xlink:href="#SQUARE"/><use width="30" height="30" transform="translate(1770 30)" xlink:href="#SQUARE"/><use width="30" height="30" transform="translate(1740 60)" xlink:href="#SQUARE"/><use width="30" height="30" transform="translate(1680 120)" xlink:href="#SQUARE"/><use width="30" height="30" transform="translate(1710 90)" xlink:href="#SQUARE"/><use width="30" height="30" transform="translate(1770 90)" xlink:href="#SQUARE"/><use width="30" height="30" transform="translate(1740 120)" xlink:href="#SQUARE"/><use width="30" height="30" transform="translate(1710 150)" xlink:href="#SQUARE"/><use width="30" height="30" transform="translate(1770 150)" xlink:href="#SQUARE"/><use width="30" height="30" transform="translate(1800)" xlink:href="#SQUARE"/><use width="30" height="30" transform="translate(1830 30)" xlink:href="#SQUARE"/><use width="30" height="30" transform="translate(1800 60)" xlink:href="#SQUARE"/><use width="30" height="30" transform="translate(1860)" xlink:href="#SQUARE"/><use width="30" height="30" transform="translate(1890 30)" xlink:href="#SQUARE"/><use width="30" height="30" transform="translate(1860 60)" xlink:href="#SQUARE"/><use width="30" height="30" transform="translate(1800 120)" xlink:href="#SQUARE"/><use width="30" height="30" transform="translate(1830 90)" xlink:href="#SQUARE"/><use width="30" height="30" transform="translate(1890 90)" xlink:href="#SQUARE"/><use width="30" height="30" transform="translate(1860 120)" xlink:href="#SQUARE"/><use width="30" height="30" transform="translate(1830 150)" xlink:href="#SQUARE"/><use width="30" height="30" transform="translate(1890 150)" xlink:href="#SQUARE"/><rect class="cls-2" width="1920" height="180"/></svg>