<svg id="Layer_1" data-name="Layer 1" xmlns="http://www.w3.org/2000/svg" xmlns:xlink="http://www.w3.org/1999/xlink" viewBox="0 0 38.58 31.17"><defs><style>.cls-1{fill:#fff;}</style><symbol id="mail3" data-name="mail3" viewBox="0 0 36.01 28.3"><path class="cls-1" d="M32.58,8.72c-3.13,2.17-6.29,4.34-9.4,6.53C21.86,16.16,19.65,18,18,18h0c-1.63,0-3.84-1.85-5.14-2.75-3.11-2.19-6.27-4.36-9.38-6.53C2,7.76,0,5.49,0,3.66S1.07,0,3.22,0H32.8A3.24,3.24,0,0,1,36,3.22C36,5.47,34.34,7.5,32.58,8.72ZM36,25.08a3.22,3.22,0,0,1-3.22,3.22H3.22A3.22,3.22,0,0,1,0,25.08v-16a11.24,11.24,0,0,0,2,1.75c3.34,2.27,6.71,4.54,10,6.93,1.69,1.25,3.78,2.77,6,2.77h0c2.19,0,4.28-1.53,6-2.77,3.28-2.37,6.65-4.66,10-6.93a11.84,11.84,0,0,0,2-1.75Z"/></symbol></defs><title>icon-mail</title><use width="36.01" height="28.29" transform="translate(1.38 1.05) scale(1 1.02)" xlink:href="#mail3"/></svg>