<svg id="Layer_1" data-name="Layer 1" xmlns="http://www.w3.org/2000/svg" xmlns:xlink="http://www.w3.org/1999/xlink" viewBox="0 0 35.38 34.11"><defs><style>.cls-1{fill:#fff;}</style><symbol id="phone3" data-name="phone3" viewBox="0 0 21.35 21.18"><path class="cls-1" d="M15,12.19c-.34-.2-.75-.59-1.16-.59-.78,0-1.94,2.33-2.63,2.33a2.86,2.86,0,0,1-1.12-.5A13,13,0,0,1,4.79,8.15,2.86,2.86,0,0,1,4.29,7c0-.69,2.33-1.85,2.33-2.63,0-.41-.39-.82-.59-1.16A20,20,0,0,0,4.11,0a.78.78,0,0,0-.28,0A6.25,6.25,0,0,0,2,.39c-1.17.53-2,2.78-2,4A9.81,9.81,0,0,0,.89,7.78a18.06,18.06,0,0,0,9.55,9.55,9.81,9.81,0,0,0,3.38.89c1.23,0,3.47-.85,4-2a6.25,6.25,0,0,0,.39-1.8.78.78,0,0,0,0-.28A20,20,0,0,0,15,12.19Z"/><polygon class="cls-1" points="21.34 21.18 21.35 21.18 21.35 21.18 21.34 21.18"/></symbol></defs><title>icon-phone</title><use width="21.35" height="21.18" transform="translate(1.75 1.77) scale(1.77 1.7)" xlink:href="#phone3"/></svg>