<svg id="Layer_1" data-name="Layer 1" xmlns="http://www.w3.org/2000/svg" xmlns:xlink="http://www.w3.org/1999/xlink" viewBox="0 0 113 109"><defs><style>.cls-1{fill:url(#New_Gradient_Swatch);}</style><linearGradient id="New_Gradient_Swatch" x1="11.22" y1="113.09" x2="43.51" y2="73.16" gradientUnits="userSpaceOnUse"><stop offset="0" stop-color="#cbff5b"/><stop offset="1"/></linearGradient></defs><title>icon-stethoscope</title><path class="cls-1" d="M88.87,10.93h-7.7a2.57,2.57,0,0,0,0,5.13h7.7c1.24,0,2.57,1.8,2.57,5.13,0,5.09,0,12.05-4.7,19.1-5.28,7.92-7.12,9.12-10.7,9.12s-5.41-1.2-10.69-9.12c-4.7-7.05-4.7-14-4.7-19.1,0-3.33,1.32-5.13,2.57-5.13h7.7a2.57,2.57,0,1,0,0-5.13h-7.7c-3.83,0-7.7,3.53-7.7,10.26,0,5.42,0,13.61,5.56,22,4,6,7.07,10,12.12,11.11V74.08a16.68,16.68,0,0,1-33.36,0V61.42a12.54,12.54,0,1,0-5.13,0V74.08a21.81,21.81,0,0,0,43.62,0V54.38c5.39-.88,8.51-5,12.68-11.23,5.56-8.34,5.56-16.53,5.56-22C96.57,14.46,92.69,10.93,88.87,10.93ZM29.28,49.14a8,8,0,1,1,8,8A8,8,0,0,1,29.28,49.14Z"/></svg>