<svg id="Layer_1" data-name="Layer 1" xmlns="http://www.w3.org/2000/svg" xmlns:xlink="http://www.w3.org/1999/xlink" viewBox="0 0 113 109"><defs><style>.cls-1{fill:url(#New_Gradient_Swatch);}.cls-2{fill:url(#New_Gradient_Swatch-2);}</style><linearGradient id="New_Gradient_Swatch" x1="54.5" y1="122.58" x2="54.5" y2="75.59" gradientUnits="userSpaceOnUse"><stop offset="0" stop-color="#cbff5b"/><stop offset="1"/></linearGradient><linearGradient id="New_Gradient_Swatch-2" x1="33" y1="122.58" x2="33" y2="75.59" xlink:href="#New_Gradient_Swatch"/></defs><title>icon-heart</title><path class="cls-1" d="M70.87,17.37A23.52,23.52,0,0,0,54.5,24,23.61,23.61,0,0,0,16.73,51c4.77,13,18.65,24.26,36.19,38.46l1.57,1.27,1.57-1.27C73.62,75.24,87.49,64,92.27,51A23.39,23.39,0,0,0,94.5,41,23.65,23.65,0,0,0,70.87,17.37ZM87.7,48.95l-.09.22C83.48,60.55,70.15,71.61,54.5,84.28c-15.65-12.68-29-23.73-33.11-35.12l-.09-.22A18.44,18.44,0,0,1,19.5,41,18.62,18.62,0,0,1,52.56,29.24l1.94,2.37,1.94-2.37A18.61,18.61,0,0,1,87.7,48.95Z"/><path class="cls-2" d="M40.5,25A17.52,17.52,0,0,0,23,42.5a2.5,2.5,0,0,0,5,0A12.51,12.51,0,0,1,40.5,30a2.5,2.5,0,0,0,0-5Z"/></svg>