<svg id="Layer_1" data-name="Layer 1" xmlns="http://www.w3.org/2000/svg" xmlns:xlink="http://www.w3.org/1999/xlink" viewBox="0 0 113 109"><defs><style>.cls-1{fill:url(#New_Gradient_Swatch);}.cls-2{fill:url(#New_Gradient_Swatch-2);}.cls-3{fill:url(#New_Gradient_Swatch-3);}.cls-4{fill:url(#New_Gradient_Swatch-4);}</style><linearGradient id="New_Gradient_Swatch" x1="54.49" y1="161.68" x2="55.77" y2="77.94" gradientUnits="userSpaceOnUse"><stop offset="0" stop-color="#cbff5b"/><stop offset="1"/></linearGradient><linearGradient id="New_Gradient_Swatch-2" x1="75.74" y1="162" x2="77.02" y2="78.26" xlink:href="#New_Gradient_Swatch"/><linearGradient id="New_Gradient_Swatch-3" x1="31.77" y1="161.33" x2="33.06" y2="77.59" xlink:href="#New_Gradient_Swatch"/><linearGradient id="New_Gradient_Swatch-4" x1="59.61" y1="161.75" x2="60.89" y2="78.01" xlink:href="#New_Gradient_Swatch"/></defs><title>icon-brain</title><path class="cls-1" d="M99.15,48l0-.2a9.27,9.27,0,0,0,.33-1v0a11.19,11.19,0,0,0-4.85-11.91c-.42-5.33-5.24-7.28-8.3-8.34-1.94-4.51-5.53-6.59-10.69-6.17a16.3,16.3,0,0,0-19.49-4.32c-3-2.5-7.38-1.33-10.07.06-2.78-1.32-5.43.35-7.41,1.6l-.34.21a4.64,4.64,0,0,0-2,0h0c-1.86.36-4,1.76-6.09,4.57-6.3-.12-10.84,3.93-13.82,12.34a5.83,5.83,0,0,0-2.75,2.79c-1.44,2.89-1.34,7.07-.74,10,0,0,0,0,0,.07a15.42,15.42,0,0,0,.39,1.53c-1.35,4.4-.45,8.31,2.55,11.06a12.48,12.48,0,0,0,10.44,3c2.26,1.92,7.87,2.65,11.58,1.79,2,1.82,5.86,2.95,9.15,3.43,1.78,8.64,4.22,14.49,10.54,16.92,1.34.5,2.77,2.36,4,4,1.81,2.35,3.51,4.57,5.82,4.57s7.86-1,9.92-3.47a3.07,3.07,0,0,0,.78-2.55,38.73,38.73,0,0,0-2.38-7.32c.45,0,.89.07,1.34.07a20.08,20.08,0,0,0,12.65-4.91c3.29-2.88,8.18-7.16,6.52-14.48a7.84,7.84,0,0,0,2.07-1.76C100.92,56.23,99.94,51.65,99.15,48ZM75.25,88.71c-1.13,1.34-5.34,2.52-7.87,2.52-1,0-2.49-2-3.69-3.52-1.55-2-3.16-4.11-5.2-4.87-4.47-1.72-6.82-5.48-8.7-14.15a10.87,10.87,0,0,0,4-.44,15.32,15.32,0,0,0,8.61,2.92h0a13.42,13.42,0,0,0,5.46-1.38,13.86,13.86,0,0,0,4.37,9.88c.66.74,2.77,6.05,3.21,8.66C75.45,88.44,75.34,88.6,75.25,88.71Zm12.67-15c-3.36,2.94-9,5.22-14,3.83a10.94,10.94,0,0,1-3.24-9.24l.25-.15a40.39,40.39,0,0,0,5.9-4.55,10.54,10.54,0,0,0,10.12-.37,23.78,23.78,0,0,0,6.79-.88C94.66,67.81,91,71.05,87.92,73.7ZM96.2,57.79a5.37,5.37,0,0,1-1.63,1.3,1.27,1.27,0,0,0-1,.44,20.09,20.09,0,0,1-7.11,1h-.43l-.25.18c-.91-3-1.21-5.07.38-5.75a1.34,1.34,0,0,0-1.06-2.46c-3.79,1.62-2.86,5.84-1.79,9.32-2.3.54-4.78,0-5.73-.92l-.94-1-1,.94a39,39,0,0,1-4,3.4,1.33,1.33,0,0,0-.83-.29,2.38,2.38,0,0,1-2-1,6,6,0,0,1-.73-4.85,1.34,1.34,0,0,0-2.58-.74,8.58,8.58,0,0,0,1.17,7.2A5.33,5.33,0,0,0,68.45,66a1.33,1.33,0,0,0-.13.31c0,.09,0,.18-.06.27a12.78,12.78,0,0,1-5.86,1.88h0a12.72,12.72,0,0,1-7.05-2.41c0-.42,0-.82,0-1.21-.1-3.24-.14-4.73,3.5-7.38a1.34,1.34,0,1,0-1.58-2.17c-4.79,3.48-4.71,6.19-4.6,9.62,0,.27,0,.56,0,.85a13.72,13.72,0,0,1-5.15,0c-3.22-.46-6.23-1.49-7.57-2.55a1.33,1.33,0,0,0,0-.21c-.49-2.2-.46-3.6.09-4.28A3.33,3.33,0,0,1,42.6,58a1.34,1.34,0,0,0,0-2.68c-2.21,0-3.75.58-4.71,1.78-1.17,1.46-1.15,3.51-.84,5.36-3.69.81-8.6-.51-9.16-1.37l-.57-1.15-1.17.52c-1.68.74-5.83.24-8.52-2.22-2.3-2.11-2.88-5.1-1.68-8.67l.15-.45-.16-.44-.09-.25c2-.19,4.72.31,5.84,1.71a1.34,1.34,0,0,0,2.09-1.67c-1.86-2.33-5.72-3-8.51-2.66-.31-2.36-.22-5.2.72-7.08a3.49,3.49,0,0,1,1-1.31c3.93,3.48,9.86,4.77,13.4,2.83l.07,0,0,0c4.14-2.36,7.77-1.72,10.81,1.93a1.34,1.34,0,0,0,2.06-1.72c-3.22-3.87-7.25-5.13-11.55-3.72a21.73,21.73,0,0,0,.26-3.91,1.34,1.34,0,0,0-2.68,0,16.45,16.45,0,0,1-.66,5.3c-2.39,1-6.74.13-9.86-2.58,2.7-7.58,6.37-10.79,11.84-10.41l.77.05.43-.64a10.09,10.09,0,0,1,4.12-3.85c1.41,1.48,3.6,3.85,3.23,5.72C39.09,27.43,38,28.42,36,29.29a1.34,1.34,0,1,0,1.09,2.45,10.38,10.38,0,0,0,3.49-2.35c1.79,1.35,4.87,1.35,6.9,1.35a1.34,1.34,0,0,0,0-2.68c-1.4,0-5.13,0-5.57-1.15v0c.49-2.45-1-4.79-2.55-6.59l.68-.42c2.19-1.38,3.74-2.22,5.23-1.22l.7.47.73-.43c1.79-1.07,5.57-2.47,7.71-.65-.32,2.36.39,6.17,1,8.72a1.34,1.34,0,0,0,0,.14c.22.88.43,1.61.57,2,.25.74-.3,2.41-1.61,3.83C53.29,34,52,34.6,51,34.35a1.34,1.34,0,1,0-.65,2.6,4.6,4.6,0,0,0,1.12.14,7,7,0,0,0,5-2.5,8.76,8.76,0,0,0,2.36-4.81,13.46,13.46,0,0,0,2.35.53l1.07.19.26,0a1.34,1.34,0,0,0,.26-2.65c-.4-.08-.79-.14-1.17-.2-1.74-.28-2.72-.49-3.54-1.68a28.24,28.24,0,0,1-1-7.52,13.58,13.58,0,0,1,16.7,3.76,9.22,9.22,0,0,1-5,6A1.34,1.34,0,1,0,70,30.6a12,12,0,0,0,6.37-7.7c3.81-.17,6.19,1.36,7.59,4.86-2.7,4.74-4.3,5.89-6.77,5.06a1.34,1.34,0,1,0-.85,2.54,6.1,6.1,0,0,0,6.53-1.51,12,12,0,0,0,1.66,4.92,1.34,1.34,0,1,0,2.33-1.33,8.44,8.44,0,0,1-.55-8.15c3.62,1.39,5.67,3,5.66,6.28v.83l.74.37A8.44,8.44,0,0,1,97,45.27c-3.55.54-7.48.13-8.58-1a1.34,1.34,0,0,0-1.89,1.89c1.49,1.49,4.44,2,7.25,2A25.32,25.32,0,0,0,96.43,48l.1.48C97.24,51.81,98,55.54,96.2,57.79Z"/><path class="cls-2" d="M82.11,49.71a7.65,7.65,0,0,1-3.52-1,5.26,5.26,0,0,0,.59-2.26c.06-2.67-2.2-4.42-4-5.83-.4-.31-.78-.61-1.12-.9a1.34,1.34,0,1,0-1.74,2c.39.33.81.66,1.22,1,1.48,1.15,3,2.34,3,3.66,0,1-.82,2.65-4.55,5.3a1.34,1.34,0,0,0,1.56,2.18,23,23,0,0,0,3.51-3,10.34,10.34,0,0,0,5.09,1.45,1.34,1.34,0,0,0,0-2.68Z"/><path class="cls-3" d="M41.4,46.56c-3.13,3.32-4.65,3.68-5.29,3.59-.9-.12-1.61-1.46-2.29-2.76-.18-.35-.37-.7-.55-1a1.48,1.48,0,0,0-1.66-.82c-1.11.26-1.17,1.3-1.24,2.5a13.4,13.4,0,0,1-.18,1.73c-1.39.3-2.73,1.68-4.77,3.8-.56.58-1.17,1.21-1.84,1.88a1.34,1.34,0,1,0,1.89,1.89c.69-.69,1.31-1.33,1.87-1.92,1.36-1.4,2.89-3,3.43-3a2,2,0,0,0,1.92-1.65,4.54,4.54,0,0,0,3.07,2.07c2.08.29,4.5-1.12,7.6-4.41a1.34,1.34,0,1,0-2-1.84Z"/><path class="cls-4" d="M68.12,45.73c-4.24-1-5.77-2.88-6.3-4.71l0-.08,0-.08A7.46,7.46,0,0,1,61.57,39a1.34,1.34,0,0,0-2.68,0,10.22,10.22,0,0,0,.32,2.6c.56,2.54.37,4.41-.57,5.42a4.2,4.2,0,0,1-3.58.92,1.34,1.34,0,0,0-.38,2.65,8.93,8.93,0,0,0,1.26.09,6.21,6.21,0,0,0,4.66-1.85A5.92,5.92,0,0,0,62,45.9a13.62,13.62,0,0,0,5.48,2.44,1.34,1.34,0,1,0,.6-2.61Z"/></svg>