<svg id="Layer_1" data-name="Layer 1" xmlns="http://www.w3.org/2000/svg" xmlns:xlink="http://www.w3.org/1999/xlink" viewBox="0 0 113 109"><defs><style>.cls-1{fill:url(#New_Gradient_Swatch);}</style><linearGradient id="New_Gradient_Swatch" x1="56.12" y1="158.86" x2="56.12" y2="77.23" gradientUnits="userSpaceOnUse"><stop offset="0" stop-color="#cbff5b"/><stop offset="1"/></linearGradient></defs><title>icon-kit</title><polygon class="cls-1" points="50.63 47.38 50.63 56.38 41.63 56.38 41.63 67.38 50.63 67.38 50.63 76.38 61.63 76.38 61.63 67.38 70.63 67.38 70.63 56.38 61.63 56.38 61.63 47.38 50.63 47.38"/><path class="cls-1" d="M93.24,30.38H75.5V21.91a8.43,8.43,0,0,0-8.41-8.41H43.91a8.43,8.43,0,0,0-8.41,8.41v8.47H19a4.39,4.39,0,0,0-4.38,4.38V59.38H34.78a21.49,21.49,0,0,1,42.69,0H97.63V34.76A4.39,4.39,0,0,0,93.24,30.38Zm-24,0H41.75V21.81a3.32,3.32,0,0,1,3.31-3.31H65.94a3.32,3.32,0,0,1,3.31,3.31Z"/><path class="cls-1" d="M56.13,83.38a21.49,21.49,0,0,1-21.34-19H14.63V89A4.39,4.39,0,0,0,19,93.38H93.24A4.39,4.39,0,0,0,97.63,89V64.38H77.47A21.49,21.49,0,0,1,56.13,83.38Z"/></svg>