<?xml version="1.0" encoding="utf-8"?>
<!-- Generator: Adobe Illustrator 21.1.0, SVG Export Plug-In . SVG Version: 6.00 Build 0)  -->
<svg version="1.1" id="Layer_1" xmlns="http://www.w3.org/2000/svg" xmlns:xlink="http://www.w3.org/1999/xlink" x="0px" y="0px"
	 viewBox="0 0 2840.8 665" style="enable-background:new 0 0 2840.8 665;" xml:space="preserve">
<style type="text/css">
	.st0{fill:#CCDD52;}
	.st1{fill:#EE2826;}
	.st2{enable-background:new    ;}
	.st3{fill:#FFFFFF;}
</style>
<title>logo</title>
<polygon class="st0" points="202.8,201.2 121.1,201.2 39.5,282.8 202.8,282.8 "/>
<polygon class="st0" points="366,446.1 366,609.3 447.6,527.7 447.6,446.1 "/>
<polygon class="st0" points="447.6,201.2 447.6,42.9 279.4,42.9 202.8,119.6 366,119.6 366,282.8 529.3,282.8 529.3,446.1 
	610.9,364.4 610.9,201.2 "/>
<polygon class="st1" points="39.5,446.1 39.5,527.7 121.1,527.7 121.1,609.3 202.8,609.3 202.8,446.1 "/>
<g class="st2">
	<path class="st3" d="M695.9,367.9H790c50.8,0,86,23.5,86,77.8c0,55.8-30.1,80.3-83.8,80.3h-34.8v78.4h-61.5V367.9z M757.4,476.5
		h10.4c22.3,0,44.2,0,44.2-28.9c0-29.8-20.4-30.1-44.2-30.1h-10.4V476.5z"/>
</g>
<g class="st2">
	<path class="st3" d="M940.3,563.4L924,604.5h-65.3l91-236.6h67.1l89.1,236.6h-65.6l-15.4-41.1H940.3z M983.3,441h-0.6l-25.4,75.3
		h51.1L983.3,441z"/>
	<path class="st3" d="M1186.6,604.5h-61.5V367.9h61.5V604.5z"/>
	<path class="st3" d="M1226.7,367.9h61.5l112.6,144.6h0.6V367.9h61.5v236.6h-61.5l-112.6-144.9h-0.6v144.9h-61.5V367.9z"/>
	<path class="st3" d="M1779.8,447.3c-12.5-16.9-32.9-26-54-26c-37.6,0-63.1,28.9-63.1,65.6c0,37.3,25.7,64.3,64,64.3
		c20.1,0,40.2-9.7,53-25.1v73.7c-20.4,6.3-35.1,11-54.3,11c-32.9,0-64.3-12.5-88.8-34.8c-26-23.5-38-54.3-38-89.4
		c0-32.3,12.2-63.4,34.8-86.6c23.2-23.8,56.8-38.3,90-38.3c19.8,0,38,4.4,56.2,11.9V447.3z"/>
	<path class="st3" d="M1879.3,420v39.5h69.3v52.1h-69.3v40.8h73.1v52.1h-134.6V367.9h134.6V420H1879.3z"/>
	<path class="st3" d="M1990.3,367.9h61.5l112.6,144.6h0.6V367.9h61.5v236.6h-61.5l-112.6-144.9h-0.6v144.9h-61.5V367.9z"/>
	<path class="st3" d="M2360.8,604.5h-61.5V420h-50.8v-52.1h163.1V420h-50.8V604.5z"/>
	<path class="st3" d="M2495.4,420v39.5h69.3v52.1h-69.3v40.8h73.1v52.1h-134.6V367.9h134.6V420H2495.4z"/>
	<path class="st3" d="M2803.2,604.5h-76.6l-58-91h-0.6v91h-61.5V367.9h91.9c46.7,0,82.2,22.3,82.2,72.8c0,32.6-18.2,60.9-51.8,66.8
		L2803.2,604.5z M2668,474h6c20.1,0,42.7-3.8,42.7-29.5c0-25.7-22.6-29.5-42.7-29.5h-6V474z"/>
</g>
<g class="st2">
	<path class="st3" d="M800.1,302.8h-66.9V102h-55.3V45.3h177.5V102h-55.3V302.8z"/>
	<path class="st3" d="M1043.2,144.7V45.3h66.9v257.4h-66.9V197.3h-96.6v105.5h-66.9V45.3h66.9v99.4H1043.2z"/>
	<path class="st3" d="M1220.7,102v43h75.5v56.7h-75.5v44.4h79.5v56.7h-146.5V45.3h146.5V102H1220.7z"/>
	<path class="st3" d="M1672.7,302.8h-83.3l-63.2-99h-0.7v99h-66.9V45.3h100c50.9,0,89.5,24.2,89.5,79.2c0,35.5-19.8,66.2-56.3,72.7
		L1672.7,302.8z M1525.6,160.7h6.5c21.9,0,46.4-4.1,46.4-32.1s-24.6-32.1-46.4-32.1h-6.5V160.7z"/>
	<path class="st3" d="M1757.7,102v43h75.5v56.7h-75.5v44.4h79.5v56.7h-146.5V45.3h146.5V102H1757.7z"/>
	<path class="st3" d="M1945.5,102v43h73.4v56.7h-73.4v101.1h-66.9V45.3h147.8V102H1945.5z"/>
	<path class="st3" d="M2286.9,45.3v144.8c0,33.1-1.4,65.9-27,90.8c-21.5,21.2-55.3,28.7-85.4,28.7s-63.8-7.5-85.4-28.7
		c-25.6-24.9-27-57.7-27-90.8V45.3h66.9v135.5c0,33.5,2.4,70,45.4,70s45.4-36.5,45.4-70V45.3H2286.9z"/>
	<path class="st3" d="M2586,159c-0.7,37.6-3.4,69.6-26.3,101.7c-25.3,35.2-63.2,50.5-106.2,50.5c-80.9,0-137.2-55-137.2-135.9
		c0-83.6,56.7-138.6,139.6-138.6c52.9,0,93.9,23.9,116.1,72l-63.5,26.6c-9.2-24.6-28.7-41-55.7-41c-44,0-66.9,42-66.9,81.3
		c0,39.9,23.9,80.6,67.9,80.6c29,0,51.2-15,53.9-44.7h-54.6V159H2586z"/>
	<path class="st3" d="M2683.6,102v43h75.5v56.7h-75.5v44.4h79.5v56.7h-146.5V45.3h146.5V102H2683.6z"/>
</g>
</svg>
