<svg id="Layer_1" data-name="Layer 1" xmlns="http://www.w3.org/2000/svg" viewBox="0 0 126.6 22.06"><defs><style>.cls-1{fill:#1273b8;}.cls-2{fill:#8bc642;}</style></defs><title>logo</title><path class="cls-1" d="M3.94,2.33H1.69v-.7h8.79a11.33,11.33,0,0,1,4.17.42c3.13,1.13,5.19,4.71,5.19,9A9.9,9.9,0,0,1,16.54,19a6.76,6.76,0,0,1-3.16,1.38,28.58,28.58,0,0,1-2.9.08H1.69v-.7H3.94Zm6.54,17.39c2,0,2.85-.39,3.55-1.55.85-1.44,1.1-3.1,1.1-7.16S14.87,5.32,14,3.88c-.7-1.16-1.58-1.55-3.55-1.55H7.89V19.72Z"/><path class="cls-1" d="M24,2.33H21.75v-.7H30c3.47,0,4.68.23,5.86,1.1A3.89,3.89,0,0,1,37.47,6a4.19,4.19,0,0,1-2.23,3.75c-.87.48-1.35.56-3.35.68,3.18.54,5.19,2.71,5.19,5.64v.59a7.17,7.17,0,0,0,0,.73c0,1.47.42,2.11,1.41,2.11a4,4,0,0,0,1.32-.31v.73a8.4,8.4,0,0,1-3.07.62,3.35,3.35,0,0,1-3.35-1.94A8.54,8.54,0,0,1,32.68,15c-.17-3.35-.93-4.34-3.18-4.26H27.95v9H30.2v.7H21.75v-.7H24Zm6,7.72c2.73,0,3.44-.85,3.44-4.14,0-1.52-.25-2.42-.79-3S31.56,2.33,30,2.33H27.95v7.72Z"/><path class="cls-1" d="M45.15,18.45A2.16,2.16,0,1,1,43,16.31,2.15,2.15,0,0,1,45.15,18.45Z"/><path class="cls-1" d="M56.47,3.94V17.69c0,1.83.14,2,1.52,2h1.1v.7H53.37v-.7h.73c1.38,0,1.55-.23,1.52-2V4.36c0-1.8-.14-2-1.52-2h-.73v-.7h6.09l9,12V4.36c0-1.83-.14-2-1.52-2h-.73v-.7h5.35v.7h-.73c-1.38,0-1.55.2-1.52,2V20.62h-.65Z"/><path class="cls-1" d="M102.43,6.7h-.76c-.39-3-2.11-4.79-4.59-4.79A3.25,3.25,0,0,0,93.58,5a2.54,2.54,0,0,0,1.3,2.28,12.57,12.57,0,0,0,3.18,1.1c2.87.85,3.66,1.18,4.42,2A6.09,6.09,0,0,1,104,14.59a6.11,6.11,0,0,1-6.2,6.31,7.94,7.94,0,0,1-4.73-1.66l-.93,1.18h-.73V15.19h.76c.7,3.07,2.79,5,5.47,5a3.8,3.8,0,0,0,4-3.61,3.21,3.21,0,0,0-1.24-2.59c-.56-.39-.7-.45-3.33-1.27-3.21-1-3.21-1-3.89-1.58A5,5,0,0,1,91.35,7a5.71,5.71,0,0,1,5.72-5.89,6.06,6.06,0,0,1,3.8,1.35l.79-.87h.76Z"/><path class="cls-1" d="M108.2,2.33h-2.25v-.7h8.74v.7h-2.54v8.09h6.57V2.33h-2.54v-.7h8.74v.7h-2.25V19.72h2.25v.7h-8.74v-.7h2.54V11.13h-6.57v8.59h2.54v.7h-8.74v-.7h2.25Z"/><polygon class="cls-2" points="87.61 19.72 81.19 1.63 80.31 1.63 78.71 6.11 81.81 14.68 81.79 14.68 82.05 15.38 82.09 15.38 83.61 19.72 81.19 19.72 81.19 20.43 89.61 20.43 89.61 19.72 87.61 19.72"/><path class="cls-2" d="M80.31,12.52c-2.51,0-4.71.47-5.61,3.54s-2,4-2.74,4.14c1.37.47,5.6.18,6-3.68A4.84,4.84,0,0,1,80.31,12.52Z"/></svg>