<svg id="Layer_1" data-name="Layer 1" xmlns="http://www.w3.org/2000/svg" xmlns:xlink="http://www.w3.org/1999/xlink" viewBox="0 0 1920 160"><defs><style>.cls-1{fill:url(#linear-gradient);}.cls-2{fill:#8ac542;}.cls-3{fill:url(#linear-gradient-2);}</style><linearGradient id="linear-gradient" x2="54" y2="54" gradientUnits="userSpaceOnUse"><stop offset="0" stop-color="#709936"/><stop offset="1" stop-color="#709936" stop-opacity="0"/></linearGradient><linearGradient id="linear-gradient-2" x1="-1" y1="80.04" x2="1920" y2="80.04" gradientUnits="userSpaceOnUse"><stop offset="0" stop-color="#8ac542" stop-opacity="0.4"/><stop offset="0.5" stop-color="#8ac542" stop-opacity="0.8"/><stop offset="1" stop-color="#8ac542" stop-opacity="0.4"/></linearGradient><symbol id="blue_gradient_square" data-name="blue gradient square" viewBox="0 0 54 54"><rect class="cls-1" width="54" height="54"/></symbol></defs><title>pattern-carbon-fiber-green</title><rect class="cls-2" x="-1" width="1921" height="160.08"/><use width="54" height="54" transform="translate(52.36 106.72) scale(0.99)" xlink:href="#blue_gradient_square"/><use width="54" height="54" transform="translate(52.36) scale(0.99)" xlink:href="#blue_gradient_square"/><use width="54" height="54" transform="translate(159.08 106.72) scale(0.99)" xlink:href="#blue_gradient_square"/><use width="54" height="54" transform="translate(159.08) scale(0.99)" xlink:href="#blue_gradient_square"/><use width="54" height="54" transform="translate(265.81 106.72) scale(0.99)" xlink:href="#blue_gradient_square"/><use width="54" height="54" transform="translate(265.81) scale(0.99)" xlink:href="#blue_gradient_square"/><use width="54" height="54" transform="translate(372.53 106.72) scale(0.99)" xlink:href="#blue_gradient_square"/><use width="54" height="54" transform="translate(372.53) scale(0.99)" xlink:href="#blue_gradient_square"/><use width="54" height="54" transform="translate(479.25 106.72) scale(0.99)" xlink:href="#blue_gradient_square"/><use width="54" height="54" transform="translate(479.25) scale(0.99)" xlink:href="#blue_gradient_square"/><use width="54" height="54" transform="translate(585.97 106.72) scale(0.99)" xlink:href="#blue_gradient_square"/><use width="54" height="54" transform="translate(585.97) scale(0.99)" xlink:href="#blue_gradient_square"/><use width="54" height="54" transform="translate(692.69 106.72) scale(0.99)" xlink:href="#blue_gradient_square"/><use width="54" height="54" transform="translate(692.69) scale(0.99)" xlink:href="#blue_gradient_square"/><use id="blue_gradient_square-31" data-name="blue gradient square" width="54" height="54" transform="translate(799.42 106.72) scale(0.99)" xlink:href="#blue_gradient_square"/><use width="54" height="54" transform="translate(799.42) scale(0.99)" xlink:href="#blue_gradient_square"/><use id="blue_gradient_square-36" data-name="blue gradient square" width="54" height="54" transform="translate(906.14 106.72) scale(0.99)" xlink:href="#blue_gradient_square"/><use width="54" height="54" transform="translate(906.14) scale(0.99)" xlink:href="#blue_gradient_square"/><use id="blue_gradient_square-41" data-name="blue gradient square" width="54" height="54" transform="translate(1012.86 106.72) scale(0.99)" xlink:href="#blue_gradient_square"/><use width="54" height="54" transform="translate(1012.86) scale(0.99)" xlink:href="#blue_gradient_square"/><use id="blue_gradient_square-46" data-name="blue gradient square" width="54" height="54" transform="translate(1119.58 106.72) scale(0.99)" xlink:href="#blue_gradient_square"/><use width="54" height="54" transform="translate(1119.58) scale(0.99)" xlink:href="#blue_gradient_square"/><use width="54" height="54" transform="translate(1226.31 106.72) scale(0.99)" xlink:href="#blue_gradient_square"/><use width="54" height="54" transform="translate(1226.31) scale(0.99)" xlink:href="#blue_gradient_square"/><use width="54" height="54" transform="translate(1333.03 106.72) scale(0.99)" xlink:href="#blue_gradient_square"/><use width="54" height="54" transform="translate(1333.03) scale(0.99)" xlink:href="#blue_gradient_square"/><use width="54" height="54" transform="translate(1439.75 106.72) scale(0.99)" xlink:href="#blue_gradient_square"/><use width="54" height="54" transform="translate(1439.75) scale(0.99)" xlink:href="#blue_gradient_square"/><use width="54" height="54" transform="translate(1546.47 106.72) scale(0.99)" xlink:href="#blue_gradient_square"/><use width="54" height="54" transform="translate(1546.47) scale(0.99)" xlink:href="#blue_gradient_square"/><use width="54" height="54" transform="translate(1653.19 106.72) scale(0.99)" xlink:href="#blue_gradient_square"/><use width="54" height="54" transform="translate(1653.19) scale(0.99)" xlink:href="#blue_gradient_square"/><use width="54" height="54" transform="translate(1759.92 106.72) scale(0.99)" xlink:href="#blue_gradient_square"/><use width="54" height="54" transform="translate(1759.92) scale(0.99)" xlink:href="#blue_gradient_square"/><use width="54" height="54" transform="translate(1866.64 106.72) scale(0.99)" xlink:href="#blue_gradient_square"/><use width="54" height="54" transform="translate(1866.64) scale(0.99)" xlink:href="#blue_gradient_square"/><use width="54" height="54" transform="translate(-0.64 53) scale(0.99)" xlink:href="#blue_gradient_square"/><use width="54" height="54" transform="translate(106.08 53) scale(0.99)" xlink:href="#blue_gradient_square"/><use width="54" height="54" transform="translate(212.81 53) scale(0.99)" xlink:href="#blue_gradient_square"/><use width="54" height="54" transform="translate(319.53 53) scale(0.99)" xlink:href="#blue_gradient_square"/><use width="54" height="54" transform="translate(426.25 53) scale(0.99)" xlink:href="#blue_gradient_square"/><use width="54" height="54" transform="translate(532.97 53) scale(0.99)" xlink:href="#blue_gradient_square"/><use width="54" height="54" transform="translate(639.69 53) scale(0.99)" xlink:href="#blue_gradient_square"/><use width="54" height="54" transform="translate(746.42 53) scale(0.99)" xlink:href="#blue_gradient_square"/><use width="54" height="54" transform="translate(853.14 53) scale(0.99)" xlink:href="#blue_gradient_square"/><use width="54" height="54" transform="translate(959.86 53) scale(0.99)" xlink:href="#blue_gradient_square"/><use width="54" height="54" transform="translate(1066.58 53) scale(0.99)" xlink:href="#blue_gradient_square"/><use width="54" height="54" transform="translate(1173.31 53) scale(0.99)" xlink:href="#blue_gradient_square"/><use width="54" height="54" transform="translate(1280.03 53) scale(0.99)" xlink:href="#blue_gradient_square"/><use width="54" height="54" transform="translate(1386.75 53) scale(0.99)" xlink:href="#blue_gradient_square"/><use width="54" height="54" transform="translate(1493.47 53) scale(0.99)" xlink:href="#blue_gradient_square"/><use width="54" height="54" transform="translate(1600.19 53) scale(0.99)" xlink:href="#blue_gradient_square"/><use width="54" height="54" transform="translate(1706.92 53) scale(0.99)" xlink:href="#blue_gradient_square"/><use width="54" height="54" transform="translate(1813.64 53) scale(0.99)" xlink:href="#blue_gradient_square"/><rect class="cls-3" x="-1" width="1921" height="160.08"/></svg>