<svg id="Layer_1" data-name="Layer 1" xmlns="http://www.w3.org/2000/svg" xmlns:xlink="http://www.w3.org/1999/xlink" viewBox="0 0 1920 160"><defs><style>.cls-1{fill:url(#linear-gradient);}.cls-2{fill:#1273b7;}.cls-3{fill:url(#linear-gradient-3);}</style><linearGradient id="linear-gradient" x2="54" y2="54" gradientUnits="userSpaceOnUse"><stop offset="0" stop-color="#126293"/><stop offset="1" stop-color="#1273b7"/></linearGradient><linearGradient id="linear-gradient-3" x1="-1" y1="80.04" x2="1920" y2="80.04" gradientUnits="userSpaceOnUse"><stop offset="0" stop-color="#1273b7" stop-opacity="0.4"/><stop offset="0.5" stop-color="#1273b7" stop-opacity="0.8"/><stop offset="1" stop-color="#1273b7" stop-opacity="0.4"/></linearGradient><symbol id="blue_gradient_square" data-name="blue gradient square" viewBox="0 0 54 54"><rect class="cls-1" width="54" height="54"/></symbol></defs><title>pattern-carbon-fiber-blue</title><rect class="cls-2" x="-1" width="1921" height="160.08"/><use width="54" height="54" transform="translate(52.36 106.72) scale(0.99)" xlink:href="#blue_gradient_square"/><use width="54" height="54" transform="translate(52.36) scale(0.99)" xlink:href="#blue_gradient_square"/><use width="54" height="54" transform="translate(159.08 106.72) scale(0.99)" xlink:href="#blue_gradient_square"/><use width="54" height="54" transform="translate(159.08) scale(0.99)" xlink:href="#blue_gradient_square"/><use width="54" height="54" transform="translate(-1 53.36) scale(0.99)" xlink:href="#blue_gradient_square"/><use width="54" height="54" transform="translate(105.72 53.36) scale(0.99)" xlink:href="#blue_gradient_square"/><use width="54" height="54" transform="translate(265.81 106.72) scale(0.99)" xlink:href="#blue_gradient_square"/><use width="54" height="54" transform="translate(265.81) scale(0.99)" xlink:href="#blue_gradient_square"/><use width="54" height="54" transform="translate(212.44 53.36) scale(0.99)" xlink:href="#blue_gradient_square"/><use width="54" height="54" transform="translate(372.53 106.72) scale(0.99)" xlink:href="#blue_gradient_square"/><use width="54" height="54" transform="translate(372.53) scale(0.99)" xlink:href="#blue_gradient_square"/><use width="54" height="54" transform="translate(479.25 106.72) scale(0.99)" xlink:href="#blue_gradient_square"/><use width="54" height="54" transform="translate(479.25) scale(0.99)" xlink:href="#blue_gradient_square"/><use width="54" height="54" transform="translate(319.17 53.36) scale(0.99)" xlink:href="#blue_gradient_square"/><use width="54" height="54" transform="translate(425.89 53.36) scale(0.99)" xlink:href="#blue_gradient_square"/><use width="54" height="54" transform="translate(585.97 106.72) scale(0.99)" xlink:href="#blue_gradient_square"/><use width="54" height="54" transform="translate(585.97) scale(0.99)" xlink:href="#blue_gradient_square"/><use width="54" height="54" transform="translate(532.61 53.36) scale(0.99)" xlink:href="#blue_gradient_square"/><use width="54" height="54" transform="translate(692.69 106.72) scale(0.99)" xlink:href="#blue_gradient_square"/><use width="54" height="54" transform="translate(692.69) scale(0.99)" xlink:href="#blue_gradient_square"/><use width="54" height="54" transform="translate(799.42 106.72) scale(0.99)" xlink:href="#blue_gradient_square"/><use width="54" height="54" transform="translate(799.42) scale(0.99)" xlink:href="#blue_gradient_square"/><use width="54" height="54" transform="translate(639.33 53.36) scale(0.99)" xlink:href="#blue_gradient_square"/><use width="54" height="54" transform="translate(746.06 53.36) scale(0.99)" xlink:href="#blue_gradient_square"/><use width="54" height="54" transform="translate(906.14 106.72) scale(0.99)" xlink:href="#blue_gradient_square"/><use width="54" height="54" transform="translate(906.14) scale(0.99)" xlink:href="#blue_gradient_square"/><use width="54" height="54" transform="translate(852.78 53.36) scale(0.99)" xlink:href="#blue_gradient_square"/><use width="54" height="54" transform="translate(1012.86 106.72) scale(0.99)" xlink:href="#blue_gradient_square"/><use width="54" height="54" transform="translate(1012.86) scale(0.99)" xlink:href="#blue_gradient_square"/><use width="54" height="54" transform="translate(1119.58 106.72) scale(0.99)" xlink:href="#blue_gradient_square"/><use width="54" height="54" transform="translate(1119.58) scale(0.99)" xlink:href="#blue_gradient_square"/><use width="54" height="54" transform="translate(959.5 53.36) scale(0.99)" xlink:href="#blue_gradient_square"/><use width="54" height="54" transform="translate(1066.22 53.36) scale(0.99)" xlink:href="#blue_gradient_square"/><use width="54" height="54" transform="translate(1226.31 106.72) scale(0.99)" xlink:href="#blue_gradient_square"/><use width="54" height="54" transform="translate(1226.31) scale(0.99)" xlink:href="#blue_gradient_square"/><use width="54" height="54" transform="translate(1172.94 53.36) scale(0.99)" xlink:href="#blue_gradient_square"/><use width="54" height="54" transform="translate(1333.03 106.72) scale(0.99)" xlink:href="#blue_gradient_square"/><use width="54" height="54" transform="translate(1333.03) scale(0.99)" xlink:href="#blue_gradient_square"/><use width="54" height="54" transform="translate(1439.75 106.72) scale(0.99)" xlink:href="#blue_gradient_square"/><use width="54" height="54" transform="translate(1439.75) scale(0.99)" xlink:href="#blue_gradient_square"/><use width="54" height="54" transform="translate(1279.67 53.36) scale(0.99)" xlink:href="#blue_gradient_square"/><use width="54" height="54" transform="translate(1386.39 53.36) scale(0.99)" xlink:href="#blue_gradient_square"/><use width="54" height="54" transform="translate(1546.47 106.72) scale(0.99)" xlink:href="#blue_gradient_square"/><use width="54" height="54" transform="translate(1546.47) scale(0.99)" xlink:href="#blue_gradient_square"/><use width="54" height="54" transform="translate(1493.11 53.36) scale(0.99)" xlink:href="#blue_gradient_square"/><use width="54" height="54" transform="translate(1653.19 106.72) scale(0.99)" xlink:href="#blue_gradient_square"/><use width="54" height="54" transform="translate(1653.19) scale(0.99)" xlink:href="#blue_gradient_square"/><use width="54" height="54" transform="translate(1759.92 106.72) scale(0.99)" xlink:href="#blue_gradient_square"/><use width="54" height="54" transform="translate(1759.92) scale(0.99)" xlink:href="#blue_gradient_square"/><use width="54" height="54" transform="translate(1599.83 53.36) scale(0.99)" xlink:href="#blue_gradient_square"/><use width="54" height="54" transform="translate(1706.56 53.36) scale(0.99)" xlink:href="#blue_gradient_square"/><use width="54" height="54" transform="translate(1866.64 106.72) scale(0.99)" xlink:href="#blue_gradient_square"/><use width="54" height="54" transform="translate(1866.64) scale(0.99)" xlink:href="#blue_gradient_square"/><use width="54" height="54" transform="translate(1813.28 53.36) scale(0.99)" xlink:href="#blue_gradient_square"/><rect class="cls-3" x="-1" width="1921" height="160.08"/></svg>